<?xml version='1.0' encoding='ASCII' standalone='yes'?>
<svg xmlns="http://www.w3.org/2000/svg" xmlns:cc="http://creativecommons.org/ns" xmlns:dc="http://purl.org/dc/elements/1.1/" xmlns:ev="http://www.w3.org/2001/xml-events" xmlns:inkscape="http://www.inkscape.org/namespaces/inkscape" xmlns:rdf="http://www.w3.org/1999/02/22-rdf-syntax-ns" xmlns:sodipodi="http://sodipodi.sourceforge.net/DTD/sodipodi-0.dtd" xmlns:xlink="http://www.w3.org/1999/xlink" baseProfile="tiny" height="6.0in" version="1.2" viewBox="0 0 1152.0 576.0" width="12in">
  <metadata>
    <rdf:RDF>
      <cc:Work>
        <dc:format>image/svg+xml</dc:format>
        <dc:source>vpype lambda-touchterrain.handler
</dc:source>
        <dc:date>2023-05-26T16:19:03.460050</dc:date>
      </cc:Work>
    </rdf:RDF>
  </metadata>
  <defs/>
  <g fill="none" id="layer1" inkscape:groupmode="layer" inkscape:label="1" stroke="#000000" stroke-width="1.0" style="display:inline">
    <polyline points="489.6003,308.1602 489.6003,308.1602 488.6403,308.1602 488.6403,308.1602 488.6403,308.1602 487.6803,307.2002 486.7203,307.2002 486.7203,307.2002 486.7203,307.2002 486.7203,306.2402 485.7603,306.2402 485.7603,306.2402 485.7603,305.2802 485.7603,305.2802 485.7603,304.3202 486.7203,304.3202 486.7203,303.3602 486.7203,302.4002 486.7203,302.4002 486.7203,302.4002 486.7203,301.4402 486.7203,301.4402 487.6803,301.4402 487.6803,300.4802 487.6803,300.4802 488.6403,299.5202 488.6403,298.5602 489.6003,298.5602 489.6003,298.5602 490.5603,298.5602 490.5603,298.5602 490.5603,298.5602 490.5603,298.5602 491.5203,298.5602 491.5203,298.5602 491.5203,298.5602 492.4803,298.5602 492.4803,298.5602 492.4803,298.5602 493.4403,298.5602 493.4403,298.5602 493.4403,298.5602 493.4403,298.5602 493.4403,298.5602 494.4003,298.5602 494.4003,298.5602 494.4003,298.5602 494.4003,297.6002 494.4003,297.6002 494.4003,297.6002 494.4003,297.6002 495.3603,297.6002 495.3603,297.6002 495.3603,297.6002 495.3603,297.6002 495.3603,297.6002 496.3203,297.6002 496.3203,297.6002 496.3203,297.6002 496.3203,297.6002 497.2803,297.6002 497.2803,297.6002 497.2803,297.6002 497.2803,297.6002 498.2403,297.6002 498.2403,297.6002 498.2403,298.5602 498.2403,297.6002 498.2403,297.6002 499.2003,297.6002 499.2003,297.6002 499.2003,297.6002 499.2003,297.6002 500.1603,297.6002 500.1603,298.5602 500.1603,298.5602 500.1603,298.5602 500.1603,298.5602 500.1603,298.5602 501.1203,298.5602 501.1203,298.5602 501.1203,298.5602 501.1203,298.5602 501.1203,298.5602 502.0803,298.5602 502.0803,298.5602 502.0803,298.5602 502.0803,298.5602 502.0803,298.5602 502.0803,298.5602 503.0403,298.5602 503.0403,298.5602 503.0403,297.6002 503.0403,297.6002 503.0403,297.6002 503.0403,297.6002 504.0003,297.6002 504.0003,297.6002 504.0003,297.6002 504.0003,297.6002 504.0003,296.6402 504.0003,296.6402 504.9603,296.6402 504.9603,296.6402 504.9603,296.6402 504.9603,295.6802 505.9203,295.6802 505.9203,295.6802 505.9203,295.6802 505.9203,295.6802 505.9203,295.6802 505.9203,295.6802 505.9203,295.6802 505.9203,295.6802 506.8803,294.7202 506.8803,294.7202 506.8803,294.7202 506.8803,294.7202 506.8803,294.7202 506.8803,293.7602 506.8803,293.7602 506.8803,293.7602 506.8803,293.7602 506.8803,292.8002 506.8803,292.8002 506.8803,292.8002 506.8803,292.8002 506.8803,292.8002 505.9203,291.8402 505.9203,291.8402 505.9203,291.8402 505.9203,291.8402 505.9203,290.8802 505.9203,290.8802 505.9203,290.8802 506.8803,290.8802 506.8803,290.8802 506.8803,290.8802 506.8803,289.9202 506.8803,289.9202 506.8803,289.9202 506.8803,289.9202 505.9203,289.9202 506.8803,288.9602 506.8803,288.9602 506.8803,288.9602 506.8803,288.0002 506.8803,288.0002 506.8803,288.0002 507.8403,288.0002 507.8403,288.0002 507.8403,288.0002 507.8403,288.0002 507.8403,288.0002 508.8003,288.0002 507.8403,288.0002 507.8403,288.0002 507.8403,286.0802 507.8403,286.0802 507.8403,286.0802 506.8803,285.1202 506.8803,285.1202 506.8803,285.1202 506.8803,285.1202 506.8803,285.1202 506.8803,285.1202 506.8803,285.1202 506.8803,285.1202 506.8803,284.1602 506.8803,284.1602 506.8803,284.1602 506.8803,284.1602 506.8803,284.1602 505.9203,283.2002 505.9203,283.2002 505.9203,283.2002 505.9203,283.2002 505.9203,283.2002 505.9203,282.2402 504.9603,282.2402 504.9603,282.2402 504.9603,282.2402 504.9603,281.2802 504.9603,281.2802 504.9603,281.2802 504.9603,281.2802 504.9603,281.2802 504.9603,280.3202 504.0003,280.3202 504.0003,280.3202 504.0003,280.3202 504.0003,280.3202 504.0003,280.3202 503.0403,279.3602 503.0403,279.3602 503.0403,279.3602 503.0403,279.3602 503.0403,279.3602 503.0403,278.4002 503.0403,278.4002 503.0403,278.4002 503.0403,278.4002 503.0403,277.4401 503.0403,277.4401 503.0403,277.4401 503.0403,277.4401 503.0403,276.4801 503.0403,276.4801 503.0403,276.4801 503.0403,275.5201 503.0403,275.5201 503.0403,275.5201 503.0403,275.5201 503.0403,274.5601 503.0403,274.5601 503.0403,274.5601 503.0403,274.5601 503.0403,274.5601 503.0403,274.5601 503.0403,273.6001 503.0403,273.6001 503.0403,273.6001 503.0403,273.6001 503.0403,272.6401 503.0403,272.6401 503.0403,272.6401 503.0403,271.6801 503.0403,271.6801 503.0403,271.6801 503.0403,271.6801 503.0403,271.6801 503.0403,271.6801 503.0403,271.6801 503.0403,271.6801 503.0403,271.6801 504.0003,269.7601 504.0003,269.7601 504.0003,269.7601 504.0003,269.7601 504.9603,269.7601 504.9603,268.8001 504.9603,268.8001 504.9603,268.8001 504.9603,268.8001 504.9603,268.8001 504.9603,267.8401 504.9603,267.8401 505.9203,267.8401 505.9203,267.8401 505.9203,267.8401 505.9203,267.8401 505.9203,266.8801 505.9203,266.8801 505.9203,266.8801 506.8803,266.8801 506.8803,266.8801 506.8803,266.8801 506.8803,265.9201 506.8803,265.9201 506.8803,265.9201 506.8803,265.9201 507.8403,265.9201 507.8403,264.9601 506.8803,264.9601 506.8803,264.9601 506.8803,264.9601 506.8803,264.0001 506.8803,264.0001 506.8803,264.0001 506.8803,264.0001 505.9203,264.0001 506.8803,263.0401 506.8803,263.0401 506.8803,263.0401 506.8803,263.0401 506.8803,263.0401 506.8803,262.0801 506.8803,262.0801 506.8803,262.0801 507.8403,262.0801 507.8403,261.1201 506.8803,261.1201 506.8803,261.1201 505.9203,260.1601 505.9203,260.1601 504.9603,260.1601 504.9603,260.1601 504.9603,260.1601 504.9603,260.1601 504.0003,260.1601 504.0003,260.1601 504.0003,260.1601 504.0003,260.1601 504.0003,260.1601 503.0403,260.1601 503.0403,259.2001 503.0403,259.2001 503.0403,259.2001 503.0403,259.2001 503.0403,259.2001 503.0403,258.2401 503.0403,258.2401 503.0403,258.2401 502.0803,258.2401 502.0803,258.2401 502.0803,258.2401 502.0803,257.2801 502.0803,257.2801 502.0803,257.2801 501.1203,257.2801 501.1203,257.2801 501.1203,257.2801 501.1203,256.3201 501.1203,256.3201 501.1203,256.3201 501.1203,256.3201 501.1203,255.3601 501.1203,255.3601 501.1203,255.3601 501.1203,255.3601 501.1203,255.3601 501.1203,254.4001 502.0803,254.4001 502.0803,254.4001 502.0803,254.4001 502.0803,254.4001 502.0803,254.4001 502.0803,253.4401 502.0803,253.4401 503.0403,253.4401 503.0403,253.4401 503.0403,253.4401 503.0403,253.4401 503.0403,252.4801 503.0403,252.4801 503.0403,252.4801 503.0403,252.4801 503.0403,252.4801 503.0403,251.5201 503.0403,251.5201 503.0403,251.5201 503.0403,251.5201 503.0403,250.5601 503.0403,250.5601 503.0403,250.5601 503.0403,250.5601 502.0803,250.5601 502.0803,249.6001 502.0803,249.6001 502.0803,249.6001 502.0803,249.6001 502.0803,249.6001 502.0803,248.6401 502.0803,248.6401 502.0803,248.6401 502.0803,248.6401 502.0803,247.6801 502.0803,247.6801 502.0803,247.6801 502.0803,247.6801 502.0803,246.7201 502.0803,246.7201 502.0803,246.7201 502.0803,246.7201 502.0803,246.7201 503.0403,245.7601 503.0403,245.7601 503.0403,245.7601 503.0403,245.7601 503.0403,245.7601 503.0403,245.7601 503.0403,244.8001 503.0403,244.8001 503.0403,244.8001 503.0403,244.8001 503.0403,244.8001 503.0403,244.8001 503.0403,244.8001 503.0403,243.8401 503.0403,243.8401 503.0403,243.8401 504.0003,243.8401 504.0003,241.9201 504.0003,241.9201 504.0003,241.9201 504.0003,241.9201 504.0003,241.9201 504.0003,240.9601 504.0003,240.9601 504.0003,240.9601 504.0003,240.9601 504.0003,240.0001 504.0003,240.0001 504.0003,240.0001 504.0003,240.0001 504.0003,239.0401 504.0003,239.0401 504.0003,239.0401 504.0003,239.0401 504.0003,239.0401 504.0003,239.0401 504.0003,238.0801 504.0003,238.0801 504.0003,238.0801 504.0003,238.0801 504.0003,237.1201 504.0003,237.1201 504.0003,237.1201 504.0003,237.1201 504.0003,237.1201 504.0003,237.1201 504.0003,236.1601 504.0003,236.1601 504.0003,236.1601 504.0003,236.1601 504.0003,236.1601 504.0003,236.1601 504.0003,235.2001 504.0003,235.2001 504.0003,235.2001 504.0003,234.2401 504.0003,234.2401 504.0003,234.2401 504.0003,234.2401 504.0003,234.2401 504.0003,234.2401 504.0003,233.2801 504.9603,232.3201 504.9603,232.3201 504.9603,231.3601 505.9203,231.3601 505.9203,231.3601 505.9203,231.3601 505.9203,231.3601 505.9203,231.3601 505.9203,230.4001 505.9203,230.4001 505.9203,230.4001 505.9203,230.4001 505.9203,229.4401 506.8803,229.4401 506.8803,229.4401 506.8803,229.4401 506.8803,229.4401 506.8803,228.4801 507.8403,228.4801 507.8403,228.4801 507.8403,228.4801 507.8403,228.4801 507.8403,227.5201 507.8403,227.5201 507.8403,227.5201 508.8003,227.5201 508.8003,226.5601 508.8003,226.5601 508.8003,226.5601 508.8003,226.5601 508.8003,225.6001 508.8003,225.6001 508.8003,225.6001 508.8003,225.6001 508.8003,224.6401 509.7603,224.6401 509.7603,224.6401 509.7603,224.6401 509.7603,223.6801 509.7603,223.6801 508.8003,223.6801 509.7603,223.6801 509.7603,222.7201 509.7603,222.7201 509.7603,222.7201 509.7603,222.7201 509.7603,221.7601 509.7603,221.7601 509.7603,221.7601 509.7603,220.8001 509.7603,220.8001 509.7603,220.8001 509.7603,220.8001 509.7603,219.8401 509.7603,219.8401 510.7203,219.8401 510.7203,219.8401 510.7203,219.8401 510.7203,218.8801 510.7203,218.8801 510.7203,218.8801 510.7203,217.9201 510.7203,217.9201 510.7203,217.9201 510.7203,217.9201 510.7203,216.9601 511.6803,216.9601 511.6803,216.9601 511.6803,216.9601 511.6803,216.0001 511.6803,216.0001 511.6803,216.0001 511.6803,216.0001 511.6803,216.0001 512.6403,215.0401 512.6403,215.0401 511.6803,215.0401 511.6803,215.0401 511.6803,215.0401 511.6803,215.0401 512.6403,215.0401 512.6403,215.0401 513.6003,215.0401 513.6003,215.0401 513.6003,215.0401 513.6003,215.0401 514.5603,215.0401 514.5603,215.0401 514.5603,215.0401 514.5603,215.0401 515.5203,215.0401 515.5203,216.0001 515.5203,216.0001 516.4803,216.0001 516.4803,216.0001 516.4803,216.0001 516.4803,216.0001 516.4803,216.0001 517.4403,216.0001 517.4403,216.0001 517.4403,216.0001 517.4403,216.0001 518.4003,216.0001 518.4003,216.9601 518.4003,216.9601 518.4003,216.9601 518.4003,216.9601 519.3603,216.9601 519.3603,216.9601 519.3603,216.9601 519.3603,216.9601 520.3203,216.9601 520.3203,216.9601 520.3203,216.9601 520.3203,216.9601 520.3203,216.9601 522.2403,216.0001 522.2403,216.0001 522.2403,216.0001 522.2403,216.0001 523.2003,216.0001 523.2003,216.0001 523.2003,216.0001 523.2003,216.0001 524.1603,216.0001 524.1603,216.0001 524.1603,216.0001 524.1603,216.0001 524.1603,216.0001 525.1203,216.0001 525.1203,216.0001 525.1203,216.0001 525.1203,216.0001 526.0803,216.0001 526.0803,216.0001 526.0803,216.0001 526.0803,216.0001 527.0403,216.0001 527.0403,216.0001 527.0403,216.0001 527.0403,216.0001 528.0003,216.0001 528.0003,216.0001 528.0003,216.0001 528.0003,216.0001 528.9603,216.0001 528.9603,216.0001 528.9603,216.0001 528.9603,216.0001 529.9203,216.0001 529.9203,216.0001 529.9203,216.0001 530.8803,216.0001 530.8803,216.0001 530.8803,216.0001 530.8803,215.0401 530.8803,215.0401 530.8803,215.0401 530.8803,215.0401 531.8403,214.0801 531.8403,214.0801 531.8403,214.0801 532.8003,214.0801 532.8003,214.0801 532.8003,214.0801 532.8003,214.0801 533.7603,214.0801 533.7603,214.0801 533.7603,214.0801 533.7603,214.0801 534.7203,214.0801 534.7203,214.0801 534.7203,214.0801 534.7203,214.0801 535.6803,214.0801 535.6803,214.0801 535.6803,214.0801 535.6803,214.0801 535.6803,213.1201 536.6403,213.1201 536.6403,213.1201 536.6403,213.1201 536.6403,214.0801 537.6003,214.0801 537.6003,214.0801 537.6003,214.0801 537.6003,214.0801 538.5603,214.0801 538.5603,214.0801 538.5603,214.0801 538.5603,214.0801 539.5203,214.0801 539.5203,214.0801 539.5203,214.0801 539.5203,214.0801 539.5203,214.0801 540.4803,214.0801 540.4803,214.0801 540.4803,214.0801 540.4803,214.0801 541.4403,214.0801 541.4403,214.0801 541.4403,214.0801 541.4403,214.0801 542.4003,214.0801 542.4003,214.0801 542.4003,215.0401 542.4003,215.0401 542.4003,215.0401 543.3603,215.0401 543.3603,215.0401 543.3603,215.0401 543.3603,215.0401 544.3203,215.0401 544.3203,215.0401 544.3203,215.0401 544.3203,215.0401 545.2803,215.0401 545.2803,214.0801 545.2803,214.0801 545.2803,214.0801 546.2403,215.0401 546.2403,215.0401 546.2403,215.0401 547.2003,215.0401 547.2003,214.0801 547.2003,214.0801 547.2003,214.0801 548.1603,214.0801 548.1603,214.0801 548.1603,214.0801 548.1603,214.0801 549.1203,214.0801 549.1203,214.0801 549.1203,214.0801 549.1203,214.0801 550.0803,214.0801 550.0803,214.0801 550.0803,214.0801 550.0803,214.0801 551.0403,214.0801 551.0403,214.0801 551.0403,214.0801 551.0403,214.0801 552.0003,214.0801 552.0003,214.0801 552.0003,214.0801 552.0003,214.0801 552.9603,213.1201 552.9603,213.1201 552.9603,213.1201 552.9603,213.1201 553.9203,213.1201 553.9203,213.1201 553.9203,213.1201 553.9203,213.1201 554.8803,213.1201 554.8803,213.1201 554.8803,214.0801 554.8803,214.0801 555.8403,214.0801 555.8403,214.0801 555.8403,214.0801 555.8403,214.0801 555.8403,214.0801 556.8003,214.0801 556.8003,214.0801 556.8003,214.0801 556.8003,215.0401 557.7603,215.0401 557.7603,215.0401 557.7603,215.0401 557.7603,215.0401 558.7203,215.0401 558.7203,215.0401 558.7203,215.0401 558.7203,216.0001 558.7203,216.0001 559.6803,216.0001 559.6803,216.0001 559.6803,216.0001 559.6803,216.0001 559.6803,216.0001 560.6403,216.0001 560.6403,216.0001 560.6403,216.0001 560.6403,216.9601 561.6003,216.9601 561.6003,216.9601 561.6003,216.9601 561.6003,216.9601 561.6003,216.9601 561.6003,217.9201 561.6003,216.9601 562.5603,216.9601 562.5603,216.9601 562.5603,217.9201 562.5603,217.9201 562.5603,217.9201 563.5203,217.9201 563.5203,217.9201 563.5203,217.9201 563.5203,217.9201 563.5203,218.8801 563.5203,218.8801 563.5203,218.8801 563.5203,218.8801 564.4803,218.8801 564.4803,218.8801 564.4803,218.8801 564.4803,218.8801 565.4403,218.8801 565.4403,218.8801 565.4403,219.8401 565.4403,219.8401 565.4403,219.8401 566.4003,219.8401 566.4003,219.8401 566.4003,219.8401 566.4003,219.8401 567.3603,219.8401 567.3603,219.8401 567.3603,219.8401 567.3603,219.8401 567.3603,219.8401 567.3603,219.8401 567.3603,219.8401 569.2803,219.8401 569.2803,219.8401 569.2803,219.8401 570.2403,219.8401 570.2403,219.8401 570.2403,219.8401 570.2403,220.8001 570.2403,220.8001 570.2403,220.8001 570.2403,220.8001 570.2403,221.7601 570.2403,221.7601 570.2403,221.7601 570.2403,221.7601 570.2403,221.7601 570.2403,221.7601 570.2403,221.7601 570.2403,222.7201 570.2403,222.7201 571.2003,222.7201 571.2003,222.7201 571.2003,222.7201 571.2003,222.7201 571.2003,222.7201 572.1603,222.7201 572.1603,222.7201 572.1603,223.6801 572.1603,223.6801 573.1203,223.6801 573.1203,223.6801 573.1203,223.6801 573.1203,223.6801 573.1203,223.6801 573.1203,223.6801 574.0803,224.6401 574.0803,224.6401 574.0803,224.6401 574.0803,224.6401 574.0803,224.6401 574.0803,224.6401 575.0403,225.6001 576.0003,225.6001 576.0003,225.6001 576.0003,226.5601 576.0003,226.5601 576.0003,226.5601 576.9603,226.5601 576.9603,226.5601 576.9603,226.5601 576.9603,226.5601 576.9603,227.5201 577.9203,227.5201 577.9203,227.5201 577.9203,227.5201 577.9203,227.5201 577.9203,227.5201 578.8803,227.5201 578.8803,227.5201 578.8803,227.5201 578.8803,227.5201 579.8403,227.5201 579.8403,227.5201 579.8403,227.5201 579.8403,227.5201 580.8003,227.5201 580.8003,227.5201 580.8003,227.5201 580.8003,227.5201 581.7603,227.5201 581.7603,227.5201 581.7603,227.5201 581.7603,227.5201 581.7603,227.5201 582.7203,226.5601 582.7203,226.5601 582.7203,226.5601 582.7203,226.5601 582.7203,226.5601 583.6803,226.5601 583.6803,226.5601 583.6803,225.6001 583.6803,225.6001 583.6803,225.6001 584.6403,225.6001 584.6403,225.6001 584.6403,225.6001 584.6403,225.6001 585.6003,225.6001 585.6003,225.6001 585.6003,225.6001 585.6003,225.6001 585.6003,225.6001 586.5603,224.6401 586.5603,224.6401 586.5603,224.6401 586.5603,224.6401 587.5203,224.6401 587.5203,224.6401 587.5203,224.6401 587.5203,224.6401 588.4803,224.6401 588.4803,224.6401 588.4803,225.6001 588.4803,225.6001 589.4403,225.6001 589.4403,225.6001 589.4403,225.6001 589.4403,225.6001 589.4403,225.6001 589.4403,225.6001 589.4403,225.6001 590.4003,225.6001 590.4003,225.6001 590.4003,225.6001 590.4003,225.6001 591.3603,225.6001 591.3603,225.6001 591.3603,224.6401 591.3603,224.6401 591.3603,224.6401 592.3203,224.6401 592.3203,224.6401 592.3203,224.6401 592.3203,224.6401 593.2803,224.6401 593.2803,224.6401 593.2803,224.6401 593.2803,224.6401 593.2803,224.6401 593.2803,224.6401 593.2803,223.6801 593.2803,223.6801 594.2403,223.6801 594.2403,223.6801 594.2403,222.7201 595.2003,222.7201 595.2003,222.7201 595.2003,222.7201 595.2003,222.7201 595.2003,222.7201 596.1603,222.7201 596.1603,222.7201 596.1603,222.7201 596.1603,222.7201 596.1603,222.7201 597.1203,222.7201 597.1203,222.7201 597.1203,222.7201 597.1203,223.6801 598.0803,223.6801 598.0803,223.6801 598.0803,223.6801 598.0803,223.6801 598.0803,223.6801 599.0403,223.6801 599.0403,224.6401 599.0403,224.6401 599.0403,224.6401 599.0403,224.6401 599.0403,224.6401 600.0003,224.6401 600.0003,224.6401 600.0003,224.6401 600.0003,224.6401 600.0003,224.6401 600.9603,223.6801 600.9603,223.6801 600.9603,223.6801 600.9603,223.6801 600.9603,223.6801 601.9203,223.6801 601.9203,223.6801 601.9203,223.6801 601.9203,223.6801 601.9203,223.6801 601.9203,223.6801 602.8803,223.6801 602.8803,223.6801 602.8803,223.6801 603.8403,223.6801 603.8403,223.6801 603.8403,223.6801 603.8403,223.6801 604.8003,223.6801 604.8003,223.6801 604.8003,223.6801 604.8003,223.6801 604.8003,223.6801 606.7203,223.6801 606.7203,224.6401 606.7203,224.6401 606.7203,224.6401 606.7203,224.6401 606.7203,224.6401 607.6803,224.6401 607.6803,224.6401 607.6803,224.6401 607.6803,225.6001 607.6803,225.6001 607.6803,225.6001 607.6803,225.6001 608.6403,225.6001 608.6403,225.6001 608.6403,225.6001 608.6403,225.6001 608.6403,225.6001 609.6003,225.6001 609.6003,225.6001 609.6003,225.6001 609.6003,225.6001 609.6003,225.6001 610.5603,226.5601 610.5603,225.6001 610.5603,225.6001 610.5603,226.5601 610.5603,226.5601 610.5603,226.5601 610.5603,226.5601 611.5203,226.5601 611.5203,226.5601 611.5203,226.5601 611.5203,226.5601 611.5203,226.5601 611.5203,226.5601 612.4803,226.5601 612.4803,226.5601 612.4803,226.5601 612.4803,226.5601 613.4403,226.5601 613.4403,226.5601 613.4403,226.5601 613.4403,225.6001 613.4403,225.6001 613.4403,225.6001 614.4003,225.6001 614.4003,226.5601 615.3603,227.5201 615.3603,227.5201 615.3603,227.5201 615.3603,227.5201 615.3603,227.5201 615.3603,227.5201 615.3603,227.5201 616.3203,227.5201 617.2803,227.5201 617.2803,227.5201 617.2803,227.5201 618.2403,227.5201 618.2403,227.5201 618.2403,227.5201 618.2403,227.5201 618.2403,226.5601 618.2403,226.5601 618.2403,226.5601 618.2403,226.5601 618.2403,226.5601 619.2003,226.5601 619.2003,226.5601 619.2003,226.5601 619.2003,226.5601 620.1603,226.5601 620.1603,226.5601 620.1603,227.5201 620.1603,227.5201 621.1203,227.5201 621.1203,227.5201 621.1203,227.5201 621.1203,227.5201 621.1203,227.5201 622.0803,228.4801 622.0803,228.4801 622.0803,228.4801 622.0803,228.4801 622.0803,228.4801 622.0803,228.4801 623.0403,228.4801 623.0403,228.4801 623.0403,228.4801 623.0403,229.4401 623.0403,229.4401 623.0403,229.4401 624.0003,229.4401 624.0003,229.4401 624.0003,229.4401 624.0003,229.4401 624.0003,229.4401 624.9603,229.4401 624.9603,229.4401 624.9603,229.4401 624.9603,229.4401 624.9603,229.4401 625.9203,229.4401 625.9203,229.4401 625.9203,229.4401 625.9203,229.4401 626.8803,229.4401 626.8803,229.4401 626.8803,229.4401 626.8803,229.4401 627.8403,229.4401 627.8403,229.4401 627.8403,229.4401 627.8403,229.4401 627.8403,230.4001 628.8003,230.4001 628.8003,230.4001 628.8003,230.4001 628.8003,230.4001 629.7603,230.4001 629.7603,230.4001 629.7603,230.4001 629.7603,230.4001 629.7603,230.4001 629.7603,229.4401 629.7603,229.4401 630.7203,229.4401 630.7203,229.4401 630.7203,229.4401 630.7203,228.4801 630.7203,228.4801 630.7203,228.4801 630.7203,228.4801 631.6803,229.4401 631.6803,229.4401 631.6803,229.4401 631.6803,229.4401 631.6803,229.4401 632.6403,229.4401 632.6403,230.4001 632.6403,230.4001 632.6403,230.4001 632.6403,230.4001 633.6003,230.4001 633.6003,230.4001 633.6003,230.4001 633.6003,230.4001 633.6003,230.4001 633.6003,230.4001 633.6003,231.3601 634.5603,231.3601 634.5603,231.3601 634.5603,231.3601 635.5203,231.3601 635.5203,231.3601 635.5203,231.3601 635.5203,231.3601 636.4803,231.3601 636.4803,232.3201 636.4803,232.3201 636.4803,232.3201 636.4803,232.3201 636.4803,232.3201 636.4803,232.3201 636.4803,233.2801 636.4803,233.2801 636.4803,233.2801 636.4803,233.2801 636.4803,233.2801 636.4803,234.2401 636.4803,234.2401 636.4803,234.2401 636.4803,234.2401 636.4803,234.2401 637.4403,234.2401 637.4403,235.2001 637.4403,235.2001 637.4403,235.2001 637.4403,235.2001 636.4803,236.1601 636.4803,236.1601 636.4803,236.1601 636.4803,236.1601 639.3603,234.2401 639.3603,234.2401 639.3603,235.2001 639.3603,235.2001 640.3203,235.2001 640.3203,235.2001 640.3203,235.2001 640.3203,235.2001 640.3203,235.2001 640.3203,235.2001 641.2803,235.2001 641.2803,235.2001 641.2803,236.1601 641.2803,235.2001 641.2803,236.1601 641.2803,236.1601 641.2803,236.1601 641.2803,236.1601 641.2803,236.1601 641.2803,236.1601 641.2803,237.1201 641.2803,237.1201 641.2803,237.1201 641.2803,237.1201 641.2803,238.0801 641.2803,238.0801 641.2803,238.0801 642.2403,238.0801 642.2403,238.0801 642.2403,239.0401 642.2403,239.0401 642.2403,239.0401 642.2403,239.0401 643.2003,239.0401 642.2403,239.0401 642.2403,239.0401 643.2003,239.0401 643.2003,239.0401 643.2003,240.0001 643.2003,240.0001 643.2003,240.0001 643.2003,240.9601 643.2003,240.9601 643.2003,240.0001 643.2003,240.0001 643.2003,240.9601 643.2003,242.8801 643.2003,242.8801 643.2003,242.8801 643.2003,242.8801 643.2003,242.8801 643.2003,242.8801 643.2003,243.8401 644.1603,243.8401 644.1603,244.8001 644.1603,244.8001 644.1603,245.7601 644.1603,245.7601 645.1203,245.7601 645.1203,245.7601 645.1203,245.7601 645.1203,245.7601 645.1203,245.7601 645.1203,245.7601 646.0803,245.7601 646.0803,245.7601 646.0803,246.7201 646.0803,246.7201 646.0803,246.7201 647.0403,246.7201 647.0403,246.7201 647.0403,246.7201 647.0403,247.6801 647.0403,247.6801 647.0403,247.6801 647.0403,247.6801 647.0403,247.6801 647.0403,247.6801 648.0003,247.6801 648.0003,247.6801 648.0003,247.6801 648.0003,247.6801 648.0003,247.6801 648.0003,247.6801 648.9604,248.6401 648.9604,248.6401 648.9604,248.6401 648.9604,248.6401 648.9604,249.6001 648.9604,249.6001 648.9604,249.6001 648.9604,249.6001 648.9604,249.6001 648.9604,250.5601 648.9604,250.5601 648.9604,250.5601 648.9604,250.5601 649.9204,251.5201 649.9204,251.5201 648.9604,251.5201 648.9604,251.5201 648.9604,251.5201 649.9204,251.5201 650.8804,253.4401 649.9204,253.4401 650.8804,253.4401 649.9204,253.4401 649.9204,253.4401 649.9204,254.4001 649.9204,254.4001 650.8804,254.4001 650.8804,254.4001 650.8804,254.4001 650.8804,254.4001 650.8804,255.3601 650.8804,255.3601 650.8804,255.3601 650.8804,255.3601 650.8804,255.3601 650.8804,255.3601 651.8404,257.2801 652.8004,257.2801 652.8004,258.2401 652.8004,258.2401 652.8004,258.2401 652.8004,258.2401 652.8004,260.1601 653.7604,260.1601 653.7604,260.1601 653.7604,260.1601 653.7604,260.1601 653.7604,261.1201 653.7604,261.1201 653.7604,261.1201 654.7204,261.1201 654.7204,261.1201 654.7204,261.1201 654.7204,261.1201 654.7204,262.0801 654.7204,262.0801 654.7204,262.0801 655.6804,262.0801 655.6804,262.0801 655.6804,262.0801 655.6804,263.0401 655.6804,263.0401 655.6804,263.0401 656.6404,263.0401 656.6404,264.0001 656.6404,264.0001 656.6404,264.0001 656.6404,264.0001 656.6404,264.0001 657.6004,264.9601 657.6004,264.9601 657.6004,264.9601 657.6004,264.9601 657.6004,264.9601 657.6004,264.9601 658.5604,265.9201 658.5604,265.9201 658.5604,265.9201 658.5604,265.9201 658.5604,265.9201 658.5604,265.9201 659.5204,266.8801 659.5204,266.8801 659.5204,266.8801 659.5204,266.8801 659.5204,266.8801 660.4804,266.8801 660.4804,266.8801 660.4804,267.8401 660.4804,267.8401 660.4804,267.8401 660.4804,267.8401 660.4804,267.8401 660.4804,268.8001 660.4804,268.8001 660.4804,268.8001 661.4404,268.8001 661.4404,268.8001 661.4404,268.8001 661.4404,268.8001 661.4404,269.7601 661.4404,269.7601 662.4004,269.7601 662.4004,269.7601 662.4004,269.7601 662.4004,269.7601 662.4004,269.7601 662.4004,270.7201 662.4004,270.7201 663.3604,270.7201 663.3604,270.7201 663.3604,271.6801 663.3604,271.6801 664.3204,271.6801 664.3204,271.6801 664.3204,271.6801 664.3204,271.6801 664.3204,272.6401 664.3204,272.6401 664.3204,272.6401 664.3204,272.6401 664.3204,272.6401 664.3204,272.6401 664.3204,273.6001 664.3204,273.6001 664.3204,273.6001 664.3204,273.6001 665.2804,274.5601 665.2804,274.5601 665.2804,274.5601 665.2804,274.5601 665.2804,274.5601 665.2804,275.5201 665.2804,275.5201 665.2804,275.5201 665.2804,275.5201 665.2804,275.5201 666.2404,276.4801 666.2404,276.4801 666.2404,276.4801 666.2404,276.4801 666.2404,277.4401 666.2404,277.4401 666.2404,277.4401 666.2404,277.4401 666.2404,277.4401 666.2404,278.4002 666.2404,278.4002 666.2404,278.4002 666.2404,278.4002 666.2404,278.4002 666.2404,279.3602 666.2404,279.3602 666.2404,279.3602 667.2004,279.3602 667.2004,279.3602 667.2004,280.3202 667.2004,280.3202 667.2004,280.3202 667.2004,280.3202 667.2004,281.2802 667.2004,281.2802 667.2004,281.2802 667.2004,281.2802 667.2004,281.2802 668.1604,282.2402 668.1604,282.2402 668.1604,282.2402 668.1604,282.2402 669.1204,282.2402 669.1204,282.2402 669.1204,282.2402 669.1204,282.2402 669.1204,282.2402 669.1204,283.2002 669.1204,283.2002 670.0804,283.2002 670.0804,283.2002 670.0804,283.2002 670.0804,284.1602 670.0804,284.1602 670.0804,284.1602 670.0804,284.1602 670.0804,284.1602 671.0404,285.1202 671.0404,285.1202 671.0404,285.1202 671.0404,285.1202 671.0404,285.1202 671.0404,285.1202 671.0404,285.1202 672.0004,286.0802 672.0004,285.1202 672.0004,285.1202 672.0004,285.1202 672.0004,286.0802 672.9604,286.0802 672.9604,286.0802 672.9604,286.0802 672.9604,286.0802 672.9604,286.0802 672.9604,286.0802 672.9604,287.0402 672.9604,287.0402 672.9604,287.0402 672.9604,287.0402 672.9604,288.0002 672.9604,288.0002 672.9604,288.0002 672.9604,288.0002 672.9604,288.9602 673.9204,288.9602 673.9204,288.9602 673.9204,288.9602 673.9204,288.9602 673.9204,288.9602 674.8804,288.9602 674.8804,288.9602 674.8804,289.9202 674.8804,289.9202 674.8804,289.9202 674.8804,289.9202 674.8804,289.9202 674.8804,290.8802 674.8804,290.8802 674.8804,290.8802 674.8804,290.8802 674.8804,290.8802 674.8804,291.8402 674.8804,291.8402 675.8404,291.8402 674.8804,291.8402 674.8804,291.8402 674.8804,292.8002 674.8804,292.8002 674.8804,292.8002 674.8804,292.8002 674.8804,292.8002 674.8804,293.7602 674.8804,293.7602 674.8804,293.7602 674.8804,293.7602 674.8804,293.7602 674.8804,294.7202 674.8804,294.7202 674.8804,294.7202 674.8804,294.7202 674.8804,294.7202 674.8804,294.7202 673.9204,295.6802 673.9204,295.6802 673.9204,295.6802 673.9204,295.6802 673.9204,296.6402 673.9204,296.6402 674.8804,296.6402 675.8404,296.6402 675.8404,297.6002 675.8404,297.6002 675.8404,297.6002 675.8404,297.6002 675.8404,297.6002 676.8004,297.6002 676.8004,297.6002 676.8004,297.6002 677.7604,298.5602 677.7604,298.5602 677.7604,298.5602 677.7604,298.5602 677.7604,299.5202 678.7204,299.5202 678.7204,299.5202 678.7204,299.5202 678.7204,299.5202 678.7204,299.5202 679.6804,299.5202 679.6804,299.5202 679.6804,299.5202 679.6804,299.5202 680.6404,299.5202 680.6404,299.5202 680.6404,299.5202 680.6404,299.5202 680.6404,300.4802 680.6404,300.4802 681.6004,300.4802 681.6004,300.4802 681.6004,300.4802 681.6004,300.4802 681.6004,300.4802 682.5604,300.4802 682.5604,301.4402 682.5604,301.4402 682.5604,301.4402 682.5604,301.4402 682.5604,301.4402 683.5204,300.4802 684.4804,300.4802 684.4804,300.4802 684.4804,300.4802 684.4804,300.4802 684.4804,301.4402 684.4804,301.4402 685.4404,301.4402 685.4404,301.4402 685.4404,301.4402 685.4404,301.4402 685.4404,301.4402 686.4004,301.4402 686.4004,302.4002 686.4004,302.4002 686.4004,302.4002 686.4004,302.4002 686.4004,302.4002 687.3604,302.4002 687.3604,302.4002 687.3604,302.4002 687.3604,302.4002 688.3204,302.4002 688.3204,302.4002 688.3204,302.4002 688.3204,302.4002 688.3204,302.4002 689.2804,302.4002 689.2804,302.4002 689.2804,302.4002 689.2804,302.4002 690.2404,302.4002 690.2404,302.4002 690.2404,302.4002 690.2404,302.4002 690.2404,302.4002 691.2004,303.3602 691.2004,303.3602 691.2004,303.3602 691.2004,303.3602 691.2004,303.3602 691.2004,303.3602 692.1604,303.3602 692.1604,303.3602 692.1604,303.3602 692.1604,303.3602 692.1604,303.3602 693.1204,303.3602 693.1204,303.3602 693.1204,303.3602 693.1204,303.3602 694.0804,303.3602 694.0804,303.3602 694.0804,303.3602 694.0804,303.3602 694.0804,303.3602 695.0404,303.3602 695.0404,303.3602 695.0404,302.4002 695.0404,302.4002 695.0404,302.4002 696.0004,302.4002 696.0004,302.4002 696.0004,302.4002 696.0004,302.4002 696.9604,303.3602 696.9604,302.4002 696.9604,302.4002 696.9604,303.3602 696.9604,303.3602 697.9204,303.3602 697.9204,303.3602 697.9204,303.3602 697.9204,304.3202 697.9204,304.3202 697.9204,304.3202 697.9204,304.3202 697.9204,304.3202 697.9204,304.3202 698.8804,305.2802 698.8804,305.2802 698.8804,305.2802 698.8804,305.2802 698.8804,305.2802 698.8804,305.2802 698.8804,306.2402 699.8404,306.2402 699.8404,306.2402 699.8404,306.2402 699.8404,306.2402 699.8404,306.2402 699.8404,306.2402 699.8404,306.2402 699.8404,306.2402 699.8404,306.2402 700.8004,306.2402 700.8004,307.2002 700.8004,307.2002 700.8004,307.2002 701.7604,306.2402 701.7604,306.2402 702.7204,306.2402 702.7204,306.2402 702.7204,307.2002 702.7204,307.2002 702.7204,307.2002 702.7204,307.2002 702.7204,307.2002 702.7204,307.2002 704.6404,308.1602 704.6404,308.1602 704.6404,308.1602 704.6404,308.1602 704.6404,308.1602 704.6404,308.1602 704.6404,308.1602 706.5604,309.1202 706.5604,309.1202 706.5604,309.1202 707.5204,309.1202 707.5204,308.1602 707.5204,308.1602 707.5204,308.1602 707.5204,308.1602 707.5204,308.1602 707.5204,308.1602 708.4804,308.1602 709.4404,309.1202 709.4404,309.1202 709.4404,309.1202 709.4404,309.1202 709.4404,309.1202 709.4404,309.1202 709.4404,310.0802 709.4404,309.1202 709.4404,310.0802 709.4404,310.0802 709.4404,310.0802 709.4404,310.0802 711.3604,310.0802 711.3604,310.0802 711.3604,310.0802 711.3604,310.0802 713.2804,311.0402 713.2804,311.0402 713.2804,311.0402 714.2404,311.0402 714.2404,310.0802 714.2404,310.0802 714.2404,310.0802 714.2404,310.0802 714.2404,310.0802 715.2004,310.0802 715.2004,310.0802 715.2004,310.0802 715.2004,310.0802 715.2004,310.0802 716.1604,311.0402 716.1604,311.0402 716.1604,311.0402 716.1604,311.0402 717.1204,311.0402 717.1204,311.0402 717.1204,311.0402 717.1204,311.0402 718.0804,311.0402 718.0804,311.0402 718.0804,311.0402 718.0804,311.0402 718.0804,311.0402 719.0404,311.0402 719.0404,311.0402 719.0404,311.0402 719.0404,311.0402 719.0404,311.0402 720.0004,311.0402 720.0004,311.0402 720.0004,311.0402 720.0004,312.0002 720.0004,312.0002 720.0004,312.0002 720.9604,312.0002 720.9604,312.0002 720.9604,312.0002 720.9604,312.0002 720.9604,312.0002 721.9204,312.0002 721.9204,312.0002 721.9204,312.0002 721.9204,312.0002 722.8804,312.0002 722.8804,312.0002 722.8804,312.0002 722.8804,312.0002 722.8804,312.0002 723.8404,312.0002 723.8404,312.0002 723.8404,312.0002 724.8004,311.0402 724.8004,311.0402 724.8004,311.0402 724.8004,311.0402 725.7604,311.0402 725.7604,311.0402 725.7604,311.0402 726.7204,311.0402 726.7204,311.0402 726.7204,311.0402 726.7204,311.0402 726.7204,311.0402 727.6804,311.0402 727.6804,311.0402 727.6804,310.0802 727.6804,310.0802 727.6804,310.0802 728.6404,310.0802 728.6404,310.0802 728.6404,310.0802 728.6404,310.0802 728.6404,310.0802 728.6404,310.0802 729.6004,310.0802 729.6004,309.1202 729.6004,309.1202 729.6004,309.1202 729.6004,309.1202 730.5604,309.1202 730.5604,308.1602 730.5604,308.1602 730.5604,308.1602 730.5604,308.1602 730.5604,308.1602 731.5204,308.1602 731.5204,307.2002 731.5204,307.2002 731.5204,307.2002 731.5204,307.2002 731.5204,307.2002 731.5204,308.1602 732.4804,308.1602 732.4804,308.1602 732.4804,308.1602 732.4804,308.1602 732.4804,308.1602 733.4404,309.1202 733.4404,309.1202 733.4404,309.1202 733.4404,309.1202 733.4404,309.1202 733.4404,309.1202 734.4004,309.1202 734.4004,310.0802 734.4004,310.0802 734.4004,310.0802 734.4004,310.0802 735.3604,310.0802 735.3604,310.0802 735.3604,311.0402 735.3604,311.0402 735.3604,311.0402 735.3604,311.0402 735.3604,311.0402 736.3204,311.0402 736.3204,312.0002 736.3204,312.0002 736.3204,312.0002 736.3204,312.0002 736.3204,312.0002 736.3204,312.0002 737.2804,312.9602 737.2804,312.9602 737.2804,312.9602 737.2804,312.9602 737.2804,312.9602 737.2804,313.9202 738.2404,313.9202 738.2404,312.9602 738.2404,313.9202 738.2404,313.9202 737.2804,310.0802 737.2804,310.0802 737.2804,310.0802 737.2804,309.1202 737.2804,309.1202 737.2804,309.1202 737.2804,309.1202 737.2804,309.1202 737.2804,309.1202 737.2804,309.1202 737.2804,309.1202 737.2804,307.2002 737.2804,307.2002 737.2804,307.2002 737.2804,307.2002 737.2804,308.1602 737.2804,308.1602 737.2804,308.1602 737.2804,307.2002 737.2804,307.2002 737.2804,307.2002 737.2804,307.2002 737.2804,307.2002 737.2804,306.2402 737.2804,305.2802 737.2804,304.3202 737.2804,304.3202 737.2804,304.3202 737.2804,304.3202 737.2804,304.3202 737.2804,303.3602 737.2804,303.3602 737.2804,303.3602 737.2804,303.3602 737.2804,302.4002 737.2804,302.4002 737.2804,302.4002 737.2804,302.4002 737.2804,302.4002 737.2804,302.4002 737.2804,301.4402 737.2804,301.4402 737.2804,301.4402 737.2804,301.4402 737.2804,301.4402 737.2804,301.4402 737.2804,300.4802 737.2804,300.4802 737.2804,300.4802 737.2804,300.4802 737.2804,299.5202 737.2804,299.5202 738.2404,299.5202 737.2804,299.5202 738.2404,299.5202 738.2404,299.5202 738.2404,298.5602 738.2404,298.5602 738.2404,298.5602 738.2404,298.5602 738.2404,297.6002 738.2404,297.6002 738.2404,297.6002 738.2404,297.6002 738.2404,296.6402 738.2404,296.6402 738.2404,296.6402 738.2404,296.6402 738.2404,295.6802 738.2404,295.6802 737.2804,295.6802 737.2804,295.6802 737.2804,295.6802 737.2804,295.6802 737.2804,294.7202 737.2804,294.7202 737.2804,294.7202 737.2804,294.7202 737.2804,294.7202 737.2804,293.7602 737.2804,293.7602 737.2804,293.7602 737.2804,292.8002 737.2804,292.8002 737.2804,292.8002 737.2804,292.8002 738.2404,292.8002 738.2404,292.8002 738.2404,291.8402 738.2404,291.8402 738.2404,291.8402 738.2404,291.8402 738.2404,291.8402 739.2004,290.8802 738.2404,291.8402 738.2404,291.8402 738.2404,291.8402 738.2404,291.8402 738.2404,290.8802 738.2404,290.8802 738.2404,290.8802 738.2404,290.8802 738.2404,289.9202 738.2404,289.9202 738.2404,289.9202 738.2404,289.9202 738.2404,289.9202 738.2404,288.9602 738.2404,288.9602 738.2404,288.9602 738.2404,288.9602 738.2404,288.9602 738.2404,288.0002 738.2404,288.0002 738.2404,288.0002 738.2404,288.0002 738.2404,288.0002 738.2404,287.0402 738.2404,287.0402 738.2404,287.0402 738.2404,287.0402 739.2004,287.0402 739.2004,287.0402 739.2004,287.0402 739.2004,287.0402 739.2004,287.0402 740.1604,285.1202 740.1604,285.1202 740.1604,285.1202 740.1604,285.1202 740.1604,285.1202 740.1604,285.1202 740.1604,285.1202 740.1604,285.1202 740.1604,284.1602 740.1604,284.1602 740.1604,284.1602 740.1604,284.1602 740.1604,283.2002 739.2004,283.2002 739.2004,283.2002 739.2004,283.2002 739.2004,283.2002 739.2004,282.2402 739.2004,282.2402 739.2004,282.2402 739.2004,282.2402 739.2004,282.2402 739.2004,281.2802 738.2404,281.2802 738.2404,281.2802 738.2404,281.2802 738.2404,281.2802 738.2404,281.2802 737.2804,281.2802 737.2804,280.3202 737.2804,280.3202 737.2804,280.3202 737.2804,280.3202 737.2804,279.3602 738.2404,279.3602 738.2404,279.3602 737.2804,279.3602 737.2804,279.3602 737.2804,279.3602 737.2804,278.4002 737.2804,278.4002 736.3204,278.4002 737.2804,278.4002 737.2804,278.4002 737.2804,277.4401 737.2804,277.4401 737.2804,277.4401 737.2804,277.4401 737.2804,276.4801 736.3204,276.4801 736.3204,276.4801 737.2804,276.4801 737.2804,275.5201 737.2804,275.5201 736.3204,275.5201 736.3204,275.5201 736.3204,274.5601 736.3204,274.5601 736.3204,274.5601 736.3204,274.5601 736.3204,273.6001 736.3204,273.6001 736.3204,273.6001 736.3204,272.6401 736.3204,272.6401 736.3204,272.6401 737.2804,272.6401 737.2804,272.6401 737.2804,272.6401 737.2804,271.6801 737.2804,271.6801 737.2804,271.6801 737.2804,271.6801 737.2804,270.7201 738.2404,270.7201 738.2404,270.7201 738.2404,270.7201 738.2404,270.7201 738.2404,269.7601 738.2404,269.7601 739.2004,269.7601 739.2004,269.7601 739.2004,269.7601 739.2004,269.7601 739.2004,268.8001 740.1604,268.8001 740.1604,268.8001 740.1604,268.8001 740.1604,268.8001 740.1604,267.8401 741.1204,267.8401 741.1204,267.8401 741.1204,267.8401 741.1204,266.8801 741.1204,266.8801 741.1204,266.8801 741.1204,266.8801 741.1204,265.9201 742.0804,265.9201 742.0804,265.9201 742.0804,265.9201 742.0804,265.9201 741.1204,264.9601 741.1204,264.9601 741.1204,264.9601 742.0804,264.9601 742.0804,264.0001 741.1204,264.0001 741.1204,264.0001 741.1204,264.0001 741.1204,264.0001 741.1204,264.0001 741.1204,263.0401 741.1204,263.0401 741.1204,263.0401 741.1204,263.0401 742.0804,263.0401 742.0804,263.0401 742.0804,263.0401 741.1204,263.0401 741.1204,263.0401 741.1204,263.0401 741.1204,263.0401 741.1204,263.0401 741.1204,263.0401 741.1204,262.0801 741.1204,262.0801 741.1204,262.0801 740.1604,261.1201 740.1604,261.1201 740.1604,260.1601 740.1604,260.1601 740.1604,260.1601 740.1604,260.1601 739.2004,260.1601 740.1604,259.2001 740.1604,259.2001 740.1604,259.2001 740.1604,259.2001 740.1604,259.2001 739.2004,258.2401 739.2004,258.2401 739.2004,258.2401 739.2004,258.2401 739.2004,258.2401 739.2004,257.2801 739.2004,257.2801 738.2404,257.2801 738.2404,257.2801 738.2404,257.2801 738.2404,257.2801 738.2404,256.3201 737.2804,256.3201 737.2804,256.3201 737.2804,256.3201 737.2804,256.3201 737.2804,255.3601 737.2804,255.3601 737.2804,255.3601 737.2804,255.3601 737.2804,255.3601 737.2804,255.3601 737.2804,254.4001 736.3204,254.4001 736.3204,254.4001 736.3204,254.4001 736.3204,255.3601 736.3204,255.3601 735.3604,255.3601 735.3604,255.3601 735.3604,255.3601 735.3604,255.3601 734.4004,255.3601 734.4004,254.4001 734.4004,254.4001 734.4004,254.4001 733.4404,254.4001 733.4404,254.4001 733.4404,254.4001 733.4404,254.4001 733.4404,253.4401 733.4404,253.4401 732.4804,253.4401 732.4804,253.4401 732.4804,253.4401 732.4804,252.4801 732.4804,252.4801 732.4804,252.4801 732.4804,252.4801 732.4804,252.4801 732.4804,251.5201 732.4804,251.5201 732.4804,251.5201 732.4804,251.5201 732.4804,250.5601 732.4804,250.5601 732.4804,250.5601 732.4804,250.5601 732.4804,249.6001 732.4804,249.6001 732.4804,249.6001 732.4804,249.6001 732.4804,248.6401 732.4804,248.6401 732.4804,248.6401 732.4804,248.6401 732.4804,248.6401 732.4804,247.6801 733.4404,247.6801 733.4404,247.6801 733.4404,247.6801 733.4404,247.6801 733.4404,247.6801 734.4004,247.6801 734.4004,246.7201 734.4004,246.7201 734.4004,246.7201 734.4004,246.7201 734.4004,246.7201 735.3604,246.7201 735.3604,246.7201 735.3604,246.7201 735.3604,246.7201 735.3604,245.7601 735.3604,245.7601 735.3604,245.7601 735.3604,245.7601 735.3604,245.7601 735.3604,244.8001 735.3604,244.8001 735.3604,244.8001 735.3604,244.8001 735.3604,243.8401 735.3604,243.8401 735.3604,243.8401 735.3604,243.8401 734.4004,243.8401 734.4004,242.8801 734.4004,242.8801 734.4004,242.8801 734.4004,242.8801 734.4004,242.8801 734.4004,241.9201 733.4404,241.9201 733.4404,241.9201 733.4404,241.9201 733.4404,241.9201 733.4404,241.9201 732.4804,241.9201 732.4804,240.9601 732.4804,240.9601 732.4804,240.9601 732.4804,240.9601 732.4804,240.9601 732.4804,240.9601 731.5204,240.0001 731.5204,240.0001 731.5204,240.0001 731.5204,240.0001 731.5204,240.0001 731.5204,240.0001 731.5204,239.0401 731.5204,239.0401 731.5204,239.0401 730.5604,239.0401 730.5604,239.0401 730.5604,238.0801 730.5604,238.0801 730.5604,238.0801 730.5604,238.0801 730.5604,238.0801 730.5604,237.1201 729.6004,237.1201 729.6004,237.1201 729.6004,237.1201 729.6004,236.1601 729.6004,236.1601 729.6004,236.1601 729.6004,236.1601 729.6004,236.1601 729.6004,235.2001 729.6004,235.2001 729.6004,235.2001 729.6004,235.2001 729.6004,234.2401 729.6004,234.2401 729.6004,234.2401 729.6004,234.2401 729.6004,234.2401 729.6004,233.2801 729.6004,233.2801 728.6404,233.2801 729.6004,233.2801 728.6404,232.3201 728.6404,232.3201 728.6404,232.3201 728.6404,232.3201 728.6404,232.3201 728.6404,231.3601 728.6404,231.3601 728.6404,231.3601 728.6404,231.3601 728.6404,231.3601 727.6804,231.3601 727.6804,231.3601 727.6804,230.4001 727.6804,230.4001 727.6804,230.4001 727.6804,230.4001 727.6804,229.4401 727.6804,229.4401 727.6804,229.4401 727.6804,229.4401 727.6804,229.4401 726.7204,228.4801 726.7204,228.4801 726.7204,229.4401 726.7204,229.4401 726.7204,229.4401 726.7204,229.4401 725.7604,228.4801 726.7204,230.4001 726.7204,229.4401 726.7204,229.4401 726.7204,229.4401 726.7204,229.4401 726.7204,228.4801 726.7204,229.4401 726.7204,229.4401 729.6004,224.6401 729.6004,223.6801 729.6004,223.6801 729.6004,223.6801 729.6004,223.6801 729.6004,223.6801 728.6404,222.7201 728.6404,222.7201 728.6404,222.7201 728.6404,222.7201 728.6404,222.7201 728.6404,221.7601 728.6404,221.7601 728.6404,221.7601 728.6404,221.7601 728.6404,221.7601 728.6404,220.8001 728.6404,220.8001 728.6404,220.8001 728.6404,220.8001 728.6404,219.8401 727.6804,219.8401 727.6804,219.8401 727.6804,219.8401 727.6804,219.8401 726.7204,219.8401 726.7204,218.8801 726.7204,218.8801 726.7204,218.8801 725.7604,218.8801 725.7604,218.8801 725.7604,218.8801 725.7604,218.8801 725.7604,217.9201 725.7604,217.9201 724.8004,217.9201 724.8004,217.9201 724.8004,217.9201 724.8004,217.9201 724.8004,216.9601 724.8004,216.9601 723.8404,216.9601 723.8404,216.9601 723.8404,216.9601 723.8404,216.9601 722.8804,216.9601 722.8804,216.9601 722.8804,216.9601 722.8804,216.0001 722.8804,216.0001 722.8804,216.0001 722.8804,216.0001 722.8804,215.0401 721.9204,215.0401 721.9204,216.0001 720.9604,216.0001 720.9604,215.0401 720.9604,215.0401 720.9604,215.0401 720.9604,215.0401 720.0004,215.0401 720.0004,215.0401 720.0004,214.0801 719.0404,214.0801 719.0404,214.0801 718.0804,213.1201 718.0804,213.1201 718.0804,213.1201 718.0804,213.1201 718.0804,213.1201 717.1204,213.1201 717.1204,213.1201 717.1204,212.1601 717.1204,212.1601 717.1204,212.1601 716.1604,212.1601 716.1604,212.1601 716.1604,212.1601 716.1604,212.1601 716.1604,211.2001 715.2004,211.2001 715.2004,211.2001 715.2004,211.2001 715.2004,211.2001 715.2004,211.2001 714.2404,210.2401 714.2404,210.2401 714.2404,210.2401 714.2404,210.2401 714.2404,209.2801 714.2404,209.2801 713.2804,208.3201 713.2804,208.3201 713.2804,208.3201 713.2804,208.3201 714.2404,208.3201 714.2404,207.3601 714.2404,207.3601 714.2404,207.3601 714.2404,207.3601 715.2004,207.3601 715.2004,206.4001 715.2004,206.4001 715.2004,206.4001 715.2004,206.4001 715.2004,205.4401 715.2004,205.4401 715.2004,205.4401 715.2004,205.4401 715.2004,204.4801 715.2004,204.4801 715.2004,204.4801 715.2004,203.5201 715.2004,203.5201 715.2004,203.5201 714.2404,203.5201 714.2404,203.5201 714.2404,203.5201 714.2404,202.5601 713.2804,202.5601 713.2804,202.5601 713.2804,202.5601 713.2804,201.6001 713.2804,201.6001 712.3204,201.6001 712.3204,201.6001 712.3204,201.6001 712.3204,200.6401 712.3204,200.6401 712.3204,200.6401 712.3204,200.6401 712.3204,199.6801 712.3204,199.6801 712.3204,199.6801 712.3204,199.6801 711.3604,198.7201 711.3604,198.7201 711.3604,197.7601 711.3604,197.7601 711.3604,197.7601 711.3604,197.7601 711.3604,196.8001 711.3604,196.8001 711.3604,196.8001 711.3604,196.8001 712.3204,195.8401 712.3204,195.8401 712.3204,195.8401 712.3204,195.8401 712.3204,195.8401 712.3204,195.8401 713.2804,195.8401 713.2804,194.8801 712.3204,194.8801 712.3204,194.8801 712.3204,194.8801 712.3204,194.8801 712.3204,194.8801 712.3204,193.9201 712.3204,193.9201 712.3204,193.9201 712.3204,193.9201 712.3204,192.9601 712.3204,192.9601 712.3204,192.9601 712.3204,192.9601 712.3204,192.9601 711.3604,192.0001 711.3604,192.0001 711.3604,192.0001 712.3204,192.0001 712.3204,191.0401 712.3204,191.0401 712.3204,191.0401 712.3204,191.0401 712.3204,191.0401 712.3204,191.0401 712.3204,191.0401 713.2804,191.0401 713.2804,191.0401 713.2804,191.0401 713.2804,190.0801 713.2804,190.0801 713.2804,190.0801 713.2804,190.0801 713.2804,189.1201 713.2804,189.1201 713.2804,189.1201 713.2804,189.1201 713.2804,189.1201 713.2804,188.1601 713.2804,188.1601 713.2804,188.1601 713.2804,188.1601 713.2804,187.2001 713.2804,187.2001 712.3204,187.2001 712.3204,187.2001 712.3204,187.2001 712.3204,187.2001 712.3204,187.2001 712.3204,187.2001 712.3204,186.2401 711.3604,186.2401 711.3604,186.2401 711.3604,186.2401 711.3604,186.2401 710.4004,186.2401 710.4004,186.2401 710.4004,186.2401 714.2404,185.2801 714.2404,185.2801 716.1604,186.2401 716.1604,186.2401 716.1604,186.2401 717.1204,186.2401 717.1204,186.2401 717.1204,186.2401 717.1204,186.2401 717.1204,186.2401 718.0804,186.2401 718.0804,186.2401 718.0804,186.2401 719.0404,186.2401 719.0404,187.2001 720.0004,188.1601 720.9604,188.1601 720.9604,188.1601 720.9604,188.1601 720.9604,188.1601 720.9604,188.1601 721.9204,188.1601 721.9204,188.1601 721.9204,188.1601 721.9204,188.1601 721.9204,188.1601 722.8804,188.1601 722.8804,188.1601 722.8804,188.1601 722.8804,188.1601 723.8404,188.1601 723.8404,188.1601 723.8404,188.1601 723.8404,188.1601 724.8004,188.1601 724.8004,188.1601 724.8004,189.1201 724.8004,189.1201 725.7604,189.1201 725.7604,189.1201 725.7604,189.1201 725.7604,189.1201 725.7604,189.1201 726.7204,189.1201 724.8004,186.2401 724.8004,186.2401 724.8004,186.2401 724.8004,186.2401 724.8004,186.2401 724.8004,185.2801 724.8004,185.2801 723.8404,185.2801 723.8404,185.2801 723.8404,185.2801 723.8404,184.3201 723.8404,184.3201 722.8804,184.3201 722.8804,184.3201 722.8804,184.3201 722.8804,184.3201 722.8804,184.3201 721.9204,183.3601 721.9204,183.3601 721.9204,183.3601 721.9204,183.3601 721.9204,183.3601 720.9604,183.3601 720.9604,182.4001 720.9604,182.4001 720.9604,182.4001 720.9604,182.4001 720.9604,182.4001 720.9604,181.4401 720.9604,181.4401 720.9604,181.4401 720.0004,181.4401 720.0004,181.4401 720.0004,180.4801 720.0004,180.4801 719.0404,180.4801 719.0404,180.4801 719.0404,180.4801 719.0404,180.4801 719.0404,179.5201 718.0804,179.5201 718.0804,179.5201 718.0804,179.5201 718.0804,179.5201 718.0804,179.5201 717.1204,179.5201 717.1204,178.5601 717.1204,178.5601 717.1204,178.5601 717.1204,178.5601 717.1204,177.6001 717.1204,177.6001 717.1204,177.6001 717.1204,177.6001 717.1204,177.6001 717.1204,176.6401 717.1204,176.6401 717.1204,176.6401 717.1204,176.6401 717.1204,175.6801 717.1204,175.6801 717.1204,175.6801 717.1204,175.6801 716.1604,175.6801 716.1604,174.7201 716.1604,174.7201 716.1604,174.7201 716.1604,174.7201 716.1604,173.7601 716.1604,173.7601 716.1604,173.7601 716.1604,173.7601 716.1604,173.7601 715.2004,173.7601 715.2004,173.7601 715.2004,172.8001 715.2004,172.8001 715.2004,172.8001 715.2004,172.8001 716.1604,172.8001 716.1604,171.8401 716.1604,171.8401 716.1604,171.8401 716.1604,171.8401 716.1604,171.8401 716.1604,170.8801 716.1604,170.8801 715.2004,170.8801 715.2004,170.8801 715.2004,169.9201 715.2004,169.9201 715.2004,169.9201 714.2404,169.9201 714.2404,170.8801 714.2404,169.9201 714.2404,169.9201 714.2404,169.9201 713.2804,169.9201 713.2804,169.9201 713.2804,169.9201 713.2804,169.9201 712.3204,169.9201 712.3204,168.9601 712.3204,168.9601 712.3204,168.9601 712.3204,168.9601 712.3204,168.0001 712.3204,168.0001 712.3204,168.0001 712.3204,168.0001 711.3604,168.0001 711.3604,168.0001 711.3604,167.0401 711.3604,167.0401 711.3604,167.0401 710.4004,167.0401 710.4004,167.0401 710.4004,167.0401 710.4004,167.0401 709.4404,167.0401 709.4404,167.0401 708.4804,166.0801 708.4804,166.0801 708.4804,166.0801 708.4804,166.0801 707.5204,166.0801 707.5204,166.0801 707.5204,165.1201 707.5204,165.1201 707.5204,165.1201 707.5204,165.1201 707.5204,164.1601 707.5204,164.1601 707.5204,164.1601 707.5204,164.1601 707.5204,163.2001 707.5204,163.2001 707.5204,163.2001 707.5204,162.2401 707.5204,162.2401 707.5204,162.2401 707.5204,162.2401 707.5204,161.2801 706.5604,161.2801 706.5604,161.2801 706.5604,161.2801 706.5604,160.3201 706.5604,160.3201 706.5604,160.3201 706.5604,160.3201 705.6004,160.3201 705.6004,159.3601 705.6004,159.3601 705.6004,159.3601 705.6004,159.3601 705.6004,158.4001 705.6004,158.4001 705.6004,158.4001 705.6004,158.4001 705.6004,158.4001 705.6004,157.4401 705.6004,157.4401 705.6004,157.4401 705.6004,156.4801 705.6004,156.4801 704.6404,156.4801 704.6404,156.4801 704.6404,155.5201 704.6404,155.5201 704.6404,155.5201 704.6404,155.5201 704.6404,154.5601 704.6404,154.5601 704.6404,154.5601 704.6404,154.5601 704.6404,153.6001 704.6404,153.6001 704.6404,153.6001 703.6804,153.6001 703.6804,152.6401 703.6804,152.6401 703.6804,152.6401 703.6804,152.6401 703.6804,151.6801 703.6804,151.6801 703.6804,151.6801 703.6804,151.6801 703.6804,150.7201 703.6804,150.7201 703.6804,150.7201 703.6804,150.7201 703.6804,149.7601 704.6404,149.7601 704.6404,149.7601 704.6404,149.7601 704.6404,149.7601 704.6404,149.7601 704.6404,148.8001 704.6404,148.8001 705.6004,148.8001 705.6004,148.8001 705.6004,147.8401 705.6004,147.8401 705.6004,147.8401 705.6004,147.8401 705.6004,147.8401 705.6004,146.8801 705.6004,146.8801 705.6004,146.8801 705.6004,145.9201 705.6004,145.9201 705.6004,145.9201 705.6004,145.9201 704.6404,145.9201 704.6404,144.9601 704.6404,144.9601 704.6404,144.9601 704.6404,144.9601 704.6404,144.9601 704.6404,144.0001 704.6404,144.0001 706.5604,143.0401 706.5604,143.0401 706.5604,142.0801 706.5604,142.0801 706.5604,142.0801 706.5604,142.0801 706.5604,142.0801 707.5204,142.0801 707.5204,142.0801 707.5204,142.0801 707.5204,142.0801 707.5204,142.0801 708.4804,142.0801 708.4804,143.0401 708.4804,143.0401 708.4804,143.0401 708.4804,143.0401 708.4804,144.0001 708.4804,144.0001 708.4804,144.0001 708.4804,144.0001 708.4804,144.0001 709.4404,144.9601 709.4404,144.9601 709.4404,144.9601 709.4404,144.9601 709.4404,144.9601 709.4404,144.9601 710.4004,145.9201 710.4004,145.9201 710.4004,145.9201 710.4004,145.9201 710.4004,145.9201 710.4004,145.9201 711.3604,145.9201 711.3604,145.9201 711.3604,145.9201 711.3604,145.9201 712.3204,145.9201 712.3204,144.9601 712.3204,144.9601 712.3204,144.9601 712.3204,144.9601 712.3204,144.0001 712.3204,144.0001 712.3204,144.0001 711.3604,144.0001 711.3604,143.0401 711.3604,143.0401 712.3204,143.0401 712.3204,143.0401 712.3204,143.0401 712.3204,143.0401 712.3204,143.0401 713.2804,142.0801 713.2804,142.0801 713.2804,142.0801 713.2804,142.0801 713.2804,142.0801 714.2404,142.0801 714.2404,142.0801 714.2404,142.0801 714.2404,142.0801 714.2404,142.0801 715.2004,142.0801 715.2004,142.0801 715.2004,142.0801 715.2004,142.0801 716.1604,142.0801 716.1604,142.0801 716.1604,143.0401 716.1604,143.0401 716.1604,143.0401 716.1604,143.0401 717.1204,143.0401 717.1204,144.0001 717.1204,144.0001 717.1204,144.0001 717.1204,144.0001 717.1204,144.9601 717.1204,144.9601 717.1204,144.9601 718.0804,144.9601 719.0404,144.9601 719.0404,144.9601 719.0404,144.9601 719.0404,144.9601 719.0404,144.9601 720.0004,144.9601 720.0004,145.9201 720.0004,145.9201 720.0004,145.9201 720.0004,145.9201 720.9604,145.9201 720.9604,145.9201 720.9604,145.9201 720.9604,145.9201 721.9204,145.9201 721.9204,146.8801 721.9204,146.8801 721.9204,146.8801 721.9204,146.8801 721.9204,146.8801 721.9204,147.8401 721.9204,147.8401 721.9204,147.8401 721.9204,147.8401 721.9204,148.8001 722.8804,148.8001 722.8804,148.8001 722.8804,148.8001 722.8804,148.8001 723.8404,148.8001 723.8404,148.8001 723.8404,148.8001 724.8004,150.7201 725.7604,150.7201 725.7604,151.6801 725.7604,151.6801 725.7604,151.6801 725.7604,151.6801 725.7604,152.6401 725.7604,152.6401 725.7604,152.6401 725.7604,152.6401 725.7604,153.6001 725.7604,153.6001 726.7204,153.6001 726.7204,153.6001 726.7204,154.5601 726.7204,154.5601 726.7204,154.5601 726.7204,154.5601 726.7204,154.5601 727.6804,155.5201 727.6804,155.5201 727.6804,155.5201 727.6804,155.5201 727.6804,156.4801 727.6804,156.4801 727.6804,156.4801 727.6804,156.4801 727.6804,157.4401 727.6804,157.4401 727.6804,157.4401 727.6804,157.4401 728.6404,157.4401 728.6404,157.4401 728.6404,157.4401 728.6404,158.4001 728.6404,158.4001 728.6404,158.4001 728.6404,159.3601 728.6404,159.3601 728.6404,159.3601 728.6404,159.3601 728.6404,159.3601 729.6004,160.3201 729.6004,160.3201 729.6004,160.3201 729.6004,160.3201 729.6004,160.3201 729.6004,160.3201 730.5604,160.3201 730.5604,161.2801 730.5604,161.2801 730.5604,161.2801 731.5204,161.2801 731.5204,161.2801 731.5204,161.2801 731.5204,161.2801 732.4804,161.2801 732.4804,161.2801 732.4804,161.2801 732.4804,161.2801 733.4404,161.2801 733.4404,161.2801 733.4404,161.2801 733.4404,162.2401 734.4004,162.2401 734.4004,162.2401 734.4004,162.2401 734.4004,162.2401 734.4004,162.2401 735.3604,162.2401 735.3604,162.2401 735.3604,162.2401 735.3604,162.2401 736.3204,162.2401 736.3204,162.2401 736.3204,163.2001 736.3204,163.2001 736.3204,163.2001 737.2804,163.2001 737.2804,163.2001 737.2804,164.1601 737.2804,164.1601 737.2804,164.1601 737.2804,164.1601 737.2804,165.1201 737.2804,165.1201 737.2804,165.1201 737.2804,165.1201 737.2804,166.0801 737.2804,166.0801 737.2804,166.0801 737.2804,166.0801 737.2804,167.0401 737.2804,167.0401 737.2804,167.0401 737.2804,167.0401 737.2804,168.0001 737.2804,168.0001 737.2804,168.0001 737.2804,168.0001 738.2404,168.0001 738.2404,168.9601 738.2404,168.9601 738.2404,168.9601 738.2404,169.9201 738.2404,169.9201 738.2404,169.9201 738.2404,169.9201 738.2404,170.8801 738.2404,170.8801 738.2404,170.8801 738.2404,170.8801 738.2404,171.8401 738.2404,171.8401 738.2404,171.8401 738.2404,171.8401 738.2404,172.8001 738.2404,172.8001 738.2404,172.8001 738.2404,172.8001 738.2404,172.8001 738.2404,173.7601 738.2404,173.7601 738.2404,173.7601 738.2404,173.7601 738.2404,174.7201 738.2404,174.7201 738.2404,174.7201 738.2404,174.7201 738.2404,174.7201 739.2004,175.6801 739.2004,175.6801 739.2004,175.6801 739.2004,175.6801 740.1604,175.6801 740.1604,175.6801 740.1604,175.6801 740.1604,175.6801 740.1604,176.6401 741.1204,176.6401 741.1204,176.6401 741.1204,176.6401 741.1204,176.6401 742.0804,176.6401 742.0804,176.6401 742.0804,176.6401 742.0804,177.6001 743.0404,177.6001 743.0404,177.6001 743.0404,177.6001 743.0404,177.6001 743.0404,177.6001 744.0004,177.6001 744.0004,177.6001 744.0004,177.6001 744.9604,177.6001 744.9604,177.6001 744.9604,177.6001 744.9604,178.5601 744.9604,178.5601 745.9204,178.5601 745.9204,178.5601 745.9204,178.5601 745.9204,178.5601 746.8804,178.5601 746.8804,178.5601 746.8804,178.5601 746.8804,179.5201 747.8404,179.5201 747.8404,179.5201 747.8404,179.5201 747.8404,179.5201 748.8004,179.5201 748.8004,179.5201 748.8004,179.5201 748.8004,179.5201 748.8004,178.5601 749.7604,178.5601 749.7604,178.5601 749.7604,178.5601 749.7604,179.5201 749.7604,179.5201 750.7204,179.5201 750.7204,179.5201 750.7204,179.5201 750.7204,179.5201 751.6804,178.5601 751.6804,178.5601 751.6804,178.5601 751.6804,178.5601 752.6404,178.5601 752.6404,178.5601 752.6404,178.5601 752.6404,178.5601 753.6004,178.5601 753.6004,178.5601 753.6004,178.5601 753.6004,178.5601 754.5604,178.5601 754.5604,177.6001 754.5604,177.6001 754.5604,177.6001 754.5604,177.6001 755.5204,177.6001 755.5204,177.6001 755.5204,177.6001 755.5204,177.6001 756.4804,177.6001 756.4804,177.6001 756.4804,177.6001 756.4804,177.6001 757.4404,177.6001 757.4404,177.6001 757.4404,177.6001 757.4404,177.6001 758.4004,177.6001 758.4004,177.6001 758.4004,177.6001 758.4004,177.6001 758.4004,177.6001 759.3604,177.6001 759.3604,177.6001 759.3604,177.6001 760.3204,177.6001 760.3204,177.6001 760.3204,177.6001 760.3204,177.6001 760.3204,177.6001 761.2804,177.6001 761.2804,177.6001 761.2804,176.6401 761.2804,176.6401 761.2804,176.6401 762.2404,176.6401 762.2404,176.6401 762.2404,176.6401 762.2404,176.6401 762.2404,175.6801 763.2004,175.6801 763.2004,175.6801 763.2004,175.6801 763.2004,175.6801 764.1604,175.6801 764.1604,175.6801 764.1604,174.7201 764.1604,174.7201 764.1604,174.7201 765.1204,174.7201 765.1204,174.7201 765.1204,174.7201 765.1204,174.7201 766.0804,174.7201 766.0804,174.7201 766.0804,174.7201 766.0804,174.7201 767.0404,174.7201 767.0404,174.7201 767.0404,174.7201 767.0404,174.7201 767.0404,174.7201 768.9604,174.7201 768.9604,174.7201 769.9204,173.7601 769.9204,173.7601 769.9204,173.7601 769.9204,173.7601 770.8804,173.7601 770.8804,173.7601 770.8804,173.7601 770.8804,174.7201 770.8804,174.7201 771.8404,174.7201 771.8404,174.7201 771.8404,174.7201 772.8004,174.7201 772.8004,174.7201 772.8004,174.7201 773.7604,174.7201 773.7604,174.7201 773.7604,175.6801 773.7604,175.6801 774.7204,175.6801 774.7204,175.6801 774.7204,175.6801 774.7204,175.6801 775.6804,175.6801 775.6804,175.6801 775.6804,175.6801 775.6804,175.6801 776.6404,175.6801 776.6404,175.6801 777.6004,175.6801 777.6004,175.6801 777.6004,175.6801 777.6004,175.6801 778.5604,176.6401 778.5604,176.6401 778.5604,176.6401 778.5604,176.6401 779.5204,175.6801 779.5204,175.6801 779.5204,175.6801 780.4804,175.6801 780.4804,175.6801 780.4804,175.6801 780.4804,175.6801 781.4404,175.6801 781.4404,175.6801 782.4004,175.6801 782.4004,175.6801 782.4004,175.6801 782.4004,175.6801 783.3604,175.6801 783.3604,175.6801 783.3604,175.6801 784.3204,175.6801 784.3204,175.6801 784.3204,175.6801 784.3204,175.6801 785.2804,175.6801 785.2804,175.6801 785.2804,175.6801 785.2804,176.6401 786.2404,175.6801 786.2404,175.6801 786.2404,175.6801 786.2404,175.6801 786.2404,175.6801 786.2404,174.7201 786.2404,174.7201 787.2004,174.7201 787.2004,174.7201 787.2004,174.7201 787.2004,173.7601 787.2004,173.7601 787.2004,173.7601 787.2004,172.8001 788.1604,172.8001 788.1604,172.8001 788.1604,172.8001 788.1604,172.8001 789.1204,172.8001 789.1204,171.8401 790.0804,171.8401 790.0804,171.8401 791.0404,171.8401 791.0404,171.8401 791.0404,171.8401 792.0004,171.8401 792.0004,171.8401 792.0004,170.8801 792.9604,170.8801 792.9604,170.8801 792.9604,170.8801 792.9604,171.8401 792.9604,171.8401 793.9204,171.8401 793.9204,171.8401 793.9204,171.8401 793.9204,171.8401 794.8804,171.8401 794.8804,171.8401 794.8804,172.8001 794.8804,172.8001 794.8804,172.8001 795.8404,172.8001 795.8404,172.8001 795.8404,172.8001 795.8404,172.8001 796.8004,172.8001 796.8004,172.8001 796.8004,172.8001 797.7604,173.7601 797.7604,173.7601 797.7604,173.7601 797.7604,172.8001 798.7204,172.8001 798.7204,172.8001 798.7204,172.8001 798.7204,172.8001 799.6804,171.8401 799.6804,171.8401 799.6804,171.8401 799.6804,171.8401 800.6404,171.8401 800.6404,171.8401 800.6404,171.8401 801.6004,172.8001 801.6004,172.8001 801.6004,172.8001 801.6004,172.8001 802.5604,172.8001 802.5604,172.8001 802.5604,172.8001 803.5204,172.8001 803.5204,172.8001 803.5204,171.8401 803.5204,171.8401 803.5204,170.8801 803.5204,170.8801 804.4804,170.8801 804.4804,170.8801 804.4804,170.8801 804.4804,170.8801 804.4804,170.8801 805.4404,170.8801 805.4404,170.8801 805.4404,171.8401 805.4404,171.8401 805.4404,171.8401 805.4404,172.8001 806.4004,172.8001 806.4004,172.8001 807.3604,172.8001 807.3604,172.8001 807.3604,172.8001 808.3204,172.8001 808.3204,171.8401 808.3204,171.8401 809.2804,171.8401 809.2804,171.8401 809.2804,171.8401 810.2404,171.8401 810.2404,171.8401 810.2404,171.8401 811.2004,171.8401 811.2004,171.8401 811.2004,171.8401 811.2004,171.8401 811.2004,171.8401 811.2004,170.8801 812.1604,170.8801 812.1604,170.8801 812.1604,170.8801 812.1604,169.9201 812.1604,169.9201 812.1604,169.9201 812.1604,169.9201 812.1604,168.9601 813.1204,168.9601 813.1204,168.9601 813.1204,168.0001 813.1204,168.0001 813.1204,168.0001 813.1204,167.0401 813.1204,167.0401 813.1204,167.0401 813.1204,166.0801 813.1204,166.0801 813.1204,166.0801 814.0804,165.1201 814.0804,165.1201 814.0804,165.1201 814.0804,165.1201 814.0804,165.1201 814.0804,164.1601 815.0404,164.1601 815.0404,164.1601 815.0404,164.1601 815.0404,164.1601 815.0404,164.1601 816.0004,163.2001 816.0004,163.2001 816.0004,163.2001 816.0004,163.2001 816.0004,163.2001 816.9604,162.2401 816.9604,162.2401 816.9604,162.2401 816.9604,162.2401 816.9604,162.2401 817.9204,162.2401 817.9204,161.2801 817.9204,161.2801 817.9204,161.2801 817.9204,161.2801 818.8804,161.2801 818.8804,160.3201 818.8804,160.3201 818.8804,160.3201 819.8404,160.3201 819.8404,160.3201 819.8404,160.3201 819.8404,160.3201 820.8004,160.3201 820.8004,160.3201 820.8004,160.3201 820.8004,160.3201 821.7604,160.3201 821.7604,160.3201 821.7604,160.3201 821.7604,160.3201 821.7604,160.3201 822.7204,160.3201 822.7204,160.3201 822.7204,160.3201 822.7204,159.3601 822.7204,159.3601 823.6804,159.3601 823.6804,159.3601 823.6804,159.3601 824.6404,159.3601 824.6404,159.3601 824.6404,160.3201 824.6404,160.3201 825.6004,160.3201 825.6004,160.3201 825.6004,161.2801 825.6004,161.2801 825.6004,161.2801 826.5604,161.2801 826.5604,161.2801 826.5604,161.2801 826.5604,161.2801 827.5204,161.2801 827.5204,161.2801 827.5204,161.2801 828.4804,161.2801 828.4804,161.2801 828.4804,161.2801 829.4404,161.2801 829.4404,161.2801 829.4404,161.2801 829.4404,161.2801 830.4004,161.2801 830.4004,162.2401 830.4004,162.2401 831.3604,162.2401 831.3604,162.2401 832.3204,162.2401 832.3204,162.2401 832.3204,162.2401 832.3204,163.2001 833.2804,163.2001 833.2804,163.2001 833.2804,163.2001 834.2405,163.2001 834.2405,163.2001 834.2405,163.2001 835.2005,163.2001 835.2005,163.2001 835.2005,163.2001 835.2005,163.2001 836.1605,163.2001 836.1605,164.1601 836.1605,164.1601 837.1205,164.1601 837.1205,164.1601 837.1205,164.1601 838.0805,164.1601 838.0805,164.1601 838.0805,164.1601 839.0405,164.1601 839.0405,164.1601 839.0405,164.1601 840.0005,164.1601 840.0005,164.1601 840.0005,164.1601 840.0005,164.1601 840.9605,164.1601 840.9605,164.1601 840.9605,164.1601 841.9205,164.1601 841.9205,164.1601 841.9205,164.1601 842.8805,164.1601 842.8805,164.1601 842.8805,164.1601 843.8405,164.1601 843.8405,164.1601 843.8405,165.1201 843.8405,165.1201 844.8005,165.1201 844.8005,165.1201 844.8005,165.1201 845.7605,165.1201 845.7605,165.1201 845.7605,165.1201 846.7205,165.1201 846.7205,166.0801 846.7205,166.0801 846.7205,166.0801 847.6805,166.0801 847.6805,166.0801 847.6805,166.0801 848.6405,166.0801 848.6405,166.0801 849.6005,166.0801 849.6005,166.0801 849.6005,166.0801 850.5605,166.0801 850.5605,166.0801 850.5605,166.0801 851.5205,166.0801 851.5205,166.0801 851.5205,166.0801 851.5205,166.0801 852.4805,166.0801 852.4805,166.0801 852.4805,166.0801 853.4405,166.0801 853.4405,167.0401 854.4005,167.0401 854.4005,167.0401 854.4005,167.0401 855.3605,168.0001 855.3605,168.0001 855.3605,168.0001 855.3605,168.0001 856.3205,168.0001 856.3205,168.0001 856.3205,168.0001 857.2805,168.9601 857.2805,168.9601 857.2805,168.9601 858.2405,168.9601 858.2405,169.9201 858.2405,169.9201 858.2405,169.9201 859.2005,170.8801 859.2005,170.8801 859.2005,170.8801 859.2005,170.8801 859.2005,171.8401 860.1605,171.8401 860.1605,171.8401 860.1605,171.8401 861.1205,171.8401 861.1205,171.8401 861.1205,171.8401 862.0805,171.8401 862.0805,171.8401 862.0805,171.8401 862.0805,172.8001 863.0405,172.8001 863.0405,172.8001 863.0405,172.8001 863.0405,172.8001 864.0005,172.8001 864.0005,172.8001 864.9605,172.8001 864.9605,173.7601 864.9605,173.7601 864.9605,173.7601 865.9205,173.7601 865.9205,174.7201 865.9205,174.7201 865.9205,174.7201 866.8805,174.7201 866.8805,174.7201 866.8805,174.7201 867.8405,175.6801 867.8405,175.6801 867.8405,175.6801 868.8005,175.6801 868.8005,175.6801 868.8005,175.6801 868.8005,175.6801 869.7605,175.6801 869.7605,175.6801 870.7205,175.6801 870.7205,175.6801 870.7205,176.6401 870.7205,176.6401 871.6805,176.6401 871.6805,176.6401 871.6805,175.6801 872.6405,175.6801 872.6405,175.6801 872.6405,175.6801 872.6405,175.6801 873.6005,175.6801 873.6005,175.6801 873.6005,175.6801 873.6005,175.6801 874.5605,175.6801 874.5605,175.6801 874.5605,174.7201 875.5205,174.7201 875.5205,174.7201 876.4805,174.7201 876.4805,174.7201 876.4805,174.7201 877.4405,174.7201 877.4405,174.7201 877.4405,174.7201 877.4405,174.7201 878.4005,174.7201 878.4005,174.7201 879.3605,174.7201 879.3605,174.7201 880.3205,174.7201 880.3205,174.7201 880.3205,174.7201 881.2805,173.7601 881.2805,173.7601 881.2805,173.7601 881.2805,173.7601 882.2405,173.7601 882.2405,173.7601 882.2405,173.7601 883.2005,173.7601 883.2005,173.7601 883.2005,173.7601 883.2005,172.8001 884.1605,172.8001 884.1605,172.8001 885.1205,172.8001 885.1205,172.8001 885.1205,172.8001 885.1205,172.8001 886.0805,172.8001 886.0805,172.8001 886.0805,172.8001 887.0405,172.8001 887.0405,172.8001 887.0405,172.8001 887.0405,172.8001 888.0005,171.8401 888.0005,171.8401 888.0005,171.8401 888.9605,171.8401 888.9605,171.8401 888.9605,171.8401 889.9205,171.8401 889.9205,171.8401 889.9205,171.8401 890.8805,171.8401 890.8805,171.8401 891.8405,170.8801 891.8405,170.8801 891.8405,170.8801 891.8405,170.8801 892.8005,170.8801 892.8005,170.8801 892.8005,170.8801 892.8005,170.8801 893.7605,170.8801 893.7605,170.8801 893.7605,169.9201 894.7205,169.9201 894.7205,169.9201 894.7205,169.9201 895.6805,169.9201 895.6805,168.9601 895.6805,168.9601 895.6805,168.9601 896.6405,168.9601 896.6405,168.9601 897.6005,168.0001 897.6005,168.0001 897.6005,168.0001 897.6005,168.0001 898.5605,168.0001 898.5605,167.0401 899.5205,167.0401 899.5205,167.0401 899.5205,167.0401 899.5205,167.0401 900.4805,167.0401 900.4805,166.0801 900.4805,167.0401 900.4805,166.0801 900.4805,166.0801 901.4405,166.0801 901.4405,165.1201 901.4405,165.1201 901.4405,165.1201 901.4405,165.1201 902.4005,165.1201 902.4005,165.1201 902.4005,164.1601 902.4005,164.1601 902.4005,164.1601 903.3605,164.1601 903.3605,164.1601 903.3605,164.1601 904.3205,164.1601 904.3205,164.1601 904.3205,163.2001 905.2805,163.2001 905.2805,163.2001 906.2405,163.2001 906.2405,163.2001 907.2005,163.2001 907.2005,163.2001 907.2005,162.2401 908.1605,162.2401 908.1605,162.2401 908.1605,162.2401 908.1605,162.2401 908.1605,162.2401 909.1205,161.2801 909.1205,161.2801 909.1205,161.2801 910.0805,161.2801 910.0805,161.2801 911.0405,161.2801 911.0405,161.2801 911.0405,161.2801 912.0005,161.2801 912.0005,161.2801 912.9605,162.2401 912.9605,162.2401 912.9605,162.2401 913.9205,162.2401 913.9205,162.2401 913.9205,162.2401 914.8805,162.2401 914.8805,162.2401 914.8805,161.2801 915.8405,161.2801 915.8405,161.2801 915.8405,161.2801 916.8005,161.2801 916.8005,160.3201 916.8005,160.3201 916.8005,160.3201 917.7605,160.3201 917.7605,160.3201 917.7605,160.3201 918.7205,160.3201 918.7205,160.3201 918.7205,160.3201 918.7205,160.3201 919.6805,160.3201 919.6805,160.3201 919.6805,159.3601 919.6805,159.3601 920.6405,159.3601 921.6005,159.3601 921.6005,159.3601 922.5605,159.3601 922.5605,159.3601 922.5605,159.3601 923.5205,159.3601 923.5205,159.3601 924.4805,159.3601 924.4805,159.3601 925.4405,158.4001 925.4405,158.4001 925.4405,158.4001 925.4405,158.4001 926.4005,158.4001 926.4005,158.4001 926.4005,158.4001 926.4005,158.4001 927.3605,158.4001 927.3605,157.4401 927.3605,157.4401 928.3205,157.4401 928.3205,157.4401 928.3205,157.4401 929.2805,157.4401 929.2805,158.4001 929.2805,157.4401 930.2405,157.4401 930.2405,157.4401 930.2405,157.4401 931.2005,157.4401 931.2005,157.4401 931.2005,157.4401 932.1605,157.4401 932.1605,157.4401 932.1605,157.4401 933.1205,157.4401 933.1205,157.4401 934.0805,157.4401 934.0805,157.4401 934.0805,157.4401 935.0405,156.4801 935.0405,156.4801 935.0405,156.4801 936.0005,156.4801 936.0005,156.4801 936.0005,155.5201 936.0005,155.5201 936.0005,155.5201 936.9605,154.5601 936.9605,154.5601 937.9205,154.5601 937.9205,154.5601 937.9205,154.5601 937.9205,154.5601 938.8805,154.5601 938.8805,154.5601 939.8405,154.5601 939.8405,154.5601 939.8405,154.5601 940.8005,154.5601 940.8005,153.6001 940.8005,153.6001 940.8005,153.6001 941.7605,153.6001 941.7605,153.6001 942.7205,153.6001 942.7205,153.6001 942.7205,152.6401 943.6805,152.6401 943.6805,152.6401 943.6805,152.6401 943.6805,152.6401 944.6405,152.6401 944.6405,152.6401 944.6405,151.6801 944.6405,151.6801 944.6405,151.6801 945.6005,151.6801 945.6005,151.6801 945.6005,151.6801 946.5605,151.6801 946.5605,151.6801 946.5605,150.7201 946.5605,150.7201 947.5205,150.7201 947.5205,150.7201 947.5205,150.7201 947.5205,150.7201 947.5205,149.7601 948.4805,149.7601 948.4805,149.7601 948.4805,148.8001 948.4805,148.8001 948.4805,148.8001 948.4805,148.8001 948.4805,148.8001 948.4805,147.8401 948.4805,147.8401 948.4805,147.8401 948.4805,147.8401 948.4805,146.8801 948.4805,146.8801 949.4405,146.8801 949.4405,146.8801 949.4405,146.8801 949.4405,145.9201 949.4405,145.9201 949.4405,145.9201 949.4405,144.9601 949.4405,144.9601 950.4005,144.0001 950.4005,144.0001 950.4005,144.0001 950.4005,144.0001 950.4005,143.0401 950.4005,143.0401 950.4005,143.0401 950.4005,143.0401 950.4005,142.0801 950.4005,142.0801 950.4005,142.0801 951.3605,142.0801 951.3605,142.0801 951.3605,142.0801 952.3205,142.0801 952.3205,142.0801 952.3205,142.0801 953.2805,142.0801 953.2805,142.0801 953.2805,141.1201 953.2805,141.1201 953.2805,141.1201 953.2805,141.1201 954.2405,140.1601 954.2405,140.1601 954.2405,140.1601 954.2405,139.2001 954.2405,139.2001 954.2405,139.2001 955.2005,139.2001 955.2005,138.2401 955.2005,138.2401 955.2005,138.2401 955.2005,138.2401 955.2005,137.2801 955.2005,137.2801 955.2005,137.2801 955.2005,137.2801 955.2005,136.3201 955.2005,136.3201 955.2005,136.3201 956.1605,136.3201 956.1605,136.3201 956.1605,136.3201 956.1605,136.3201 957.1205,136.3201 957.1205,135.3601 957.1205,135.3601 957.1205,135.3601 958.0805,135.3601 958.0805,135.3601 958.0805,135.3601 958.0805,135.3601 959.0405,134.4001 959.0405,134.4001 959.0405,134.4001 960.0005,133.4401 960.0005,133.4401 960.0005,133.4401 960.0005,133.4401 960.0005,133.4401 960.0005,132.4801 960.0005,132.4801 960.9605,132.4801 960.9605,132.4801 960.9605,132.4801 960.9605,132.4801 961.9205,132.4801 961.9205,132.4801 961.9205,132.4801 961.9205,132.4801 962.8805,131.5201 962.8805,131.5201 962.8805,131.5201 962.8805,131.5201 963.8405,132.4801 963.8405,132.4801 963.8405,132.4801 964.8005,132.4801 964.8005,132.4801 964.8005,132.4801 964.8005,132.4801 965.7605,132.4801 965.7605,132.4801 965.7605,132.4801 966.7205,132.4801 966.7205,132.4801 966.7205,132.4801 966.7205,132.4801 967.6805,131.5201 967.6805,131.5201 967.6805,131.5201 967.6805,131.5201 968.6405,131.5201 968.6405,131.5201 968.6405,131.5201 968.6405,131.5201 969.6005,130.5601 969.6005,129.6001 970.5605,129.6001 970.5605,129.6001 971.5205,129.6001 971.5205,129.6001 972.4805,129.6001 972.4805,129.6001 972.4805,129.6001 973.4405,129.6001 973.4405,129.6001 973.4405,129.6001 973.4405,129.6001 974.4005,129.6001 974.4005,129.6001 975.3605,129.6001 975.3605,129.6001 975.3605,129.6001 976.3205,129.6001 976.3205,129.6001 976.3205,129.6001 976.3205,129.6001 977.2805,130.5601 977.2805,130.5601 977.2805,130.5601 977.2805,130.5601 978.2405,130.5601 978.2405,131.5201 978.2405,131.5201 979.2005,131.5201 979.2005,131.5201 979.2005,131.5201 980.1605,131.5201 980.1605,132.4801 980.1605,132.4801 980.1605,133.4401 980.1605,133.4401 980.1605,133.4401 980.1605,134.4001 980.1605,134.4001 981.1205,134.4001 981.1205,135.3601 981.1205,135.3601 981.1205,135.3601 981.1205,135.3601 981.1205,136.3201 982.0805,136.3201 982.0805,136.3201 982.0805,136.3201 983.0405,137.2801 983.0405,137.2801 983.0405,137.2801 983.0405,137.2801 984.0005,137.2801 984.0005,137.2801 984.0005,137.2801 984.0005,137.2801 984.9605,137.2801 984.9605,137.2801 985.9205,137.2801 985.9205,137.2801 985.9205,137.2801 986.8805,138.2401 986.8805,138.2401 986.8805,138.2401 986.8805,138.2401 987.8405,138.2401 987.8405,138.2401 987.8405,138.2401 987.8405,138.2401 988.8005,138.2401 988.8005,137.2801 988.8005,137.2801 989.7605,136.3201 989.7605,136.3201 989.7605,136.3201 989.7605,136.3201 990.7205,136.3201 990.7205,135.3601 990.7205,135.3601 990.7205,135.3601 990.7205,134.4001 990.7205,134.4001 991.6805,134.4001 991.6805,133.4401 991.6805,133.4401 991.6805,133.4401 991.6805,133.4401 991.6805,133.4401 992.6405,132.4801 992.6405,132.4801 991.6805,132.4801 991.6805,132.4801 991.6805,131.5201 991.6805,131.5201 991.6805,131.5201 991.6805,130.5601 991.6805,130.5601 991.6805,130.5601 991.6805,130.5601 991.6805,130.5601 991.6805,129.6001 991.6805,129.6001 991.6805,129.6001 991.6805,129.6001 991.6805,128.6401 991.6805,128.6401 992.6405,128.6401 992.6405,128.6401 992.6405,128.6401 992.6405,128.6401 993.6005,128.6401 993.6005,128.6401 994.5605,128.6401 994.5605,128.6401 994.5605,128.6401 994.5605,128.6401 995.5205,128.6401 995.5205,127.6801 995.5205,127.6801 996.4805,127.6801 996.4805,127.6801 996.4805,127.6801 997.4405,127.6801 997.4405,127.6801 997.4405,127.6801 998.4005,127.6801 998.4005,128.6401 998.4005,128.6401 998.4005,127.6801 999.3605,127.6801 999.3605,127.6801 999.3605,127.6801 999.3605,127.6801 1000.3205,127.6801 1000.3205,127.6801 1000.3205,126.7201 1001.2805,126.7201 1001.2805,126.7201 1001.2805,126.7201 1002.2405,126.7201 1002.2405,126.7201 1002.2405,126.7201 1002.2405,126.7201 1003.2005,126.7201 1003.2005,126.7201 1003.2005,126.7201 1003.2005,126.7201 1004.1605,126.7201 1004.1605,126.7201 1004.1605,126.7201 1004.1605,125.7601 1005.1205,125.7601 1005.1205,125.7601 1005.1205,125.7601 1006.0805,126.7201 1006.0805,126.7201 1006.0805,126.7201 1006.0805,126.7201 1007.0405,126.7201 1007.0405,126.7201 1007.0405,126.7201 1007.0405,126.7201 1008.0005,126.7201 1008.0005,127.6801 1008.0005,127.6801 1008.0005,127.6801 1008.9605,126.7201 1008.9605,126.7201 1008.9605,126.7201 1008.9605,126.7201 1009.9205,126.7201 1009.9205,126.7201 1009.9205,125.7601 1009.9205,125.7601 1009.9205,125.7601 1009.9205,125.7601 1010.8805,125.7601 1010.8805,125.7601 1010.8805,124.8001 1010.8805,124.8001 1010.8805,124.8001 1011.8405,124.8001 1011.8405,124.8001 1011.8405,124.8001 1012.8005,124.8001 1012.8005,124.8001 1012.8005,124.8001 1012.8005,124.8001 1013.7605,124.8001 1013.7605,124.8001 1013.7605,124.8001 1014.7205,124.8001 1014.7205,124.8001 1015.6805,125.7601 1015.6805,125.7601 1016.6405,124.8001 1016.6405,124.8001 1016.6405,125.7601 1017.6005,124.8001 1017.6005,125.7601 1017.6005,125.7601 1017.6005,125.7601 1018.5605,125.7601 1019.5206,125.7601 1019.5206,125.7601 1019.5206,125.7601 1020.4806,125.7601 1020.4806,125.7601 1020.4806,125.7601 1020.4806,125.7601 1021.4406,125.7601 1021.4406,125.7601 1021.4406,125.7601 1022.4006,125.7601 1022.4006,125.7601 1022.4006,125.7601 1023.3606,125.7601 1023.3606,125.7601 1023.3606,125.7601 1023.3606,125.7601 1024.3206,125.7601 1024.3206,125.7601 1024.3206,125.7601 1024.3206,125.7601 1025.2806,126.7201 1025.2806,125.7601 1025.2806,125.7601 1025.2806,125.7601"/>
    <polyline points="504.0003,233.2801 504.0003,234.2401 503.0403,234.2401 503.0403,234.2401 503.0403,234.2401 502.0803,234.2401 502.0803,235.2001 501.1203,235.2001 501.1203,235.2001 501.1203,235.2001 501.1203,236.1601 501.1203,236.1601 500.1603,236.1601 500.1603,236.1601 500.1603,237.1201 499.2003,237.1201 499.2003,237.1201 498.2403,237.1201 497.2803,238.0801 497.2803,238.0801 497.2803,238.0801 496.3203,239.0401 496.3203,239.0401 496.3203,239.0401 496.3203,239.0401 496.3203,239.0401 495.3603,240.0001 495.3603,240.0001 495.3603,240.0001 494.4003,240.9601 494.4003,240.9601 494.4003,240.9601 494.4003,240.9601 494.4003,240.9601 494.4003,240.9601 493.4403,240.9601 493.4403,240.9601 492.4803,240.9601 492.4803,241.9201 492.4803,241.9201 492.4803,241.9201 492.4803,241.9201 491.5203,241.9201 491.5203,242.8801 491.5203,242.8801 491.5203,242.8801 491.5203,242.8801 491.5203,242.8801 491.5203,242.8801 491.5203,242.8801 490.5603,243.8401 490.5603,243.8401 490.5603,243.8401 490.5603,243.8401 490.5603,243.8401 490.5603,244.8001 490.5603,244.8001 490.5603,244.8001 490.5603,244.8001 490.5603,244.8001 490.5603,244.8001 490.5603,244.8001 490.5603,245.7601 490.5603,245.7601 490.5603,245.7601 489.6003,246.7201 489.6003,246.7201 489.6003,246.7201 489.6003,246.7201 488.6403,246.7201 488.6403,246.7201 488.6403,246.7201 488.6403,246.7201 487.6803,246.7201 486.7203,246.7201 485.7603,247.6801 485.7603,247.6801 485.7603,247.6801 485.7603,247.6801 484.8003,247.6801 484.8003,247.6801 484.8003,247.6801 484.8003,247.6801 484.8003,247.6801 483.8403,247.6801 483.8403,247.6801 483.8403,247.6801 483.8403,247.6801 483.8403,248.6401 483.8403,248.6401 483.8403,248.6401 483.8403,248.6401 483.8403,248.6401 483.8403,249.6001 482.8803,249.6001 482.8803,249.6001 482.8803,249.6001 482.8803,249.6001 482.8803,249.6001 481.9203,250.5601 481.9203,250.5601 481.9203,250.5601 481.9203,250.5601 480.9603,250.5601 480.9603,250.5601 480.9603,250.5601 480.0003,250.5601 480.0003,249.6001 480.0003,249.6001 479.0403,249.6001 479.0403,249.6001 479.0403,249.6001 479.0403,249.6001 478.0803,249.6001 478.0803,249.6001 478.0803,249.6001 478.0803,250.5601 478.0803,250.5601 478.0803,250.5601 478.0803,250.5601 478.0803,250.5601 477.1203,250.5601 477.1203,251.5201 477.1203,251.5201 476.1603,251.5201 476.1603,251.5201 476.1603,252.4801 476.1603,252.4801 476.1603,252.4801 476.1603,252.4801 477.1203,252.4801 477.1203,253.4401 477.1203,253.4401 477.1203,253.4401 477.1203,253.4401 477.1203,253.4401 477.1203,253.4401 477.1203,254.4001 478.0803,254.4001 477.1203,254.4001 478.0803,255.3601 478.0803,255.3601 478.0803,255.3601 478.0803,255.3601 478.0803,255.3601 478.0803,255.3601 478.0803,255.3601 478.0803,255.3601 477.1203,256.3201 477.1203,256.3201 477.1203,256.3201 477.1203,257.2801 477.1203,257.2801 477.1203,257.2801 477.1203,257.2801 478.0803,257.2801 478.0803,256.3201 478.0803,256.3201 479.0403,256.3201 479.0403,256.3201 479.0403,256.3201 479.0403,256.3201 479.0403,256.3201 479.0403,256.3201 479.0403,256.3201 479.0403,256.3201 479.0403,256.3201 479.0403,256.3201 479.0403,256.3201 479.0403,256.3201 479.0403,257.2801 479.0403,257.2801 479.0403,257.2801 478.0803,258.2401 478.0803,258.2401 478.0803,258.2401 478.0803,258.2401 478.0803,258.2401 478.0803,258.2401 478.0803,259.2001 477.1203,259.2001 477.1203,259.2001 477.1203,259.2001 477.1203,259.2001 477.1203,260.1601 477.1203,260.1601 477.1203,260.1601 477.1203,260.1601 476.1603,260.1601 476.1603,260.1601 476.1603,260.1601 476.1603,260.1601 476.1603,260.1601 476.1603,261.1201 476.1603,261.1201 475.2003,261.1201 475.2003,261.1201 475.2003,261.1201 475.2003,261.1201 475.2003,261.1201 474.2403,261.1201 474.2403,262.0801 474.2403,262.0801 474.2403,262.0801 474.2403,262.0801 473.2803,262.0801 473.2803,262.0801 473.2803,263.0401 473.2803,263.0401 473.2803,263.0401 472.3203,263.0401 472.3203,263.0401 472.3203,263.0401 472.3203,263.0401 473.2803,263.0401 473.2803,263.0401 473.2803,264.0001 473.2803,264.0001 473.2803,264.0001 473.2803,264.0001 473.2803,264.0001 473.2803,264.0001 473.2803,264.9601 473.2803,265.9201 473.2803,265.9201 473.2803,265.9201 472.3203,266.8801 472.3203,266.8801 472.3203,266.8801 472.3203,266.8801 471.3603,266.8801 471.3603,266.8801 471.3603,266.8801 471.3603,266.8801 470.4003,266.8801 470.4003,266.8801 469.4403,266.8801 469.4403,266.8801 468.4803,266.8801 468.4803,266.8801 467.5203,266.8801 467.5203,266.8801 467.5203,266.8801 467.5203,266.8801 467.5203,266.8801 466.5603,266.8801 466.5603,266.8801 465.6003,266.8801 465.6003,266.8801 465.6003,266.8801 464.6403,266.8801 464.6403,266.8801 463.6803,266.8801 463.6803,266.8801 463.6803,266.8801 462.7202,266.8801 462.7202,267.8401 461.7602,267.8401 461.7602,267.8401 460.8002,267.8401 460.8002,267.8401 459.8402,267.8401 459.8402,267.8401 459.8402,268.8001 459.8402,268.8001 458.8802,268.8001 458.8802,268.8001 458.8802,268.8001 457.9202,267.8401 457.9202,267.8401 457.9202,267.8401 456.9602,267.8401 456.9602,267.8401 456.0002,268.8001 456.0002,268.8001 456.0002,268.8001 455.0402,268.8001 455.0402,268.8001 454.0802,268.8001 454.0802,268.8001 454.0802,268.8001 453.1202,268.8001 453.1202,268.8001 453.1202,268.8001 453.1202,268.8001 452.1602,268.8001 452.1602,268.8001 452.1602,269.7601 452.1602,269.7601 451.2002,269.7601 451.2002,269.7601 451.2002,269.7601 451.2002,269.7601 450.2402,269.7601 450.2402,269.7601 449.2802,269.7601 449.2802,269.7601 448.3202,268.8001 447.3602,268.8001 446.4002,268.8001 445.4402,268.8001 445.4402,268.8001 445.4402,268.8001 444.4802,267.8401 444.4802,267.8401 443.5202,266.8801 443.5202,266.8801 442.5602,266.8801 442.5602,266.8801 442.5602,266.8801 442.5602,266.8801 441.6002,266.8801 441.6002,266.8801 440.6402,266.8801 440.6402,266.8801 440.6402,266.8801 440.6402,266.8801 440.6402,266.8801 440.6402,266.8801 439.6802,266.8801 439.6802,266.8801 439.6802,266.8801 438.7202,266.8801 438.7202,266.8801 438.7202,266.8801 438.7202,266.8801 437.7602,266.8801 437.7602,266.8801 437.7602,266.8801 436.8002,267.8401 436.8002,267.8401 435.8402,267.8401 435.8402,267.8401 435.8402,268.8001 434.8802,268.8001 434.8802,268.8001 433.9202,268.8001 433.9202,268.8001 432.9602,268.8001 432.9602,268.8001 432.9602,268.8001 432.0002,269.7601 432.0002,269.7601 432.0002,269.7601 431.0402,269.7601 431.0402,269.7601 431.0402,270.7201 431.0402,270.7201 431.0402,270.7201 431.0402,270.7201 431.0402,270.7201 431.0402,270.7201 431.0402,270.7201 430.0802,271.6801 430.0802,271.6801 430.0802,271.6801 429.1202,272.6401 429.1202,272.6401 428.1602,272.6401 428.1602,272.6401 428.1602,272.6401 428.1602,272.6401 427.2002,272.6401 427.2002,273.6001 426.2402,273.6001 426.2402,273.6001 425.2802,273.6001 425.2802,273.6001 425.2802,273.6001 424.3202,273.6001 424.3202,273.6001 423.3602,273.6001 423.3602,273.6001 422.4002,273.6001 422.4002,273.6001 422.4002,272.6401 420.4802,272.6401 420.4802,272.6401 419.5202,272.6401 419.5202,272.6401 418.5602,272.6401 418.5602,272.6401 417.6002,271.6801 417.6002,271.6801 416.6402,271.6801 416.6402,271.6801 416.6402,270.7201 415.6802,270.7201 415.6802,270.7201 414.7202,270.7201 414.7202,270.7201 414.7202,270.7201 413.7602,269.7601 412.8002,269.7601 412.8002,269.7601 412.8002,269.7601 411.8402,269.7601 411.8402,269.7601 411.8402,269.7601 410.8802,269.7601 408.9602,269.7601 408.9602,269.7601 408.9602,269.7601 408.0002,269.7601 408.0002,269.7601 408.0002,269.7601 408.0002,269.7601 408.0002,269.7601 407.0402,268.8001 407.0402,267.8401 406.0802,267.8401 406.0802,266.8801 406.0802,266.8801 405.1202,266.8801 405.1202,265.9201 404.1602,265.9201 403.2002,264.9601 403.2002,264.9601 402.2402,264.0001 401.2802,264.0001 401.2802,264.0001 400.3202,263.0401 399.3602,263.0401 399.3602,263.0401 398.4002,262.0801 397.4402,262.0801 396.4802,261.1201 395.5202,261.1201 392.6402,260.1601 391.6802,260.1601 391.6802,260.1601 390.7202,260.1601 390.7202,260.1601 389.7602,259.2001 389.7602,259.2001 388.8002,259.2001 388.8002,259.2001 388.8002,259.2001 387.8402,259.2001 386.8802,259.2001 385.9202,259.2001 385.9202,259.2001 384.9602,258.2401 384.9602,258.2401 384.0002,258.2401 383.0402,258.2401 383.0402,257.2801 382.0802,257.2801 382.0802,257.2801 380.1602,257.2801 378.2402,256.3201 378.2402,257.2801 377.2802,257.2801 377.2802,257.2801 376.3202,257.2801 376.3202,257.2801 376.3202,257.2801 375.3602,257.2801 375.3602,257.2801 375.3602,257.2801 374.4002,257.2801 372.4802,258.2401 372.4802,258.2401 372.4802,258.2401 371.5202,258.2401 371.5202,258.2401 370.5602,258.2401 370.5602,258.2401 370.5602,258.2401 369.6002,258.2401 369.6002,258.2401 368.6402,257.2801 367.6802,257.2801 367.6802,257.2801 366.7202,257.2801 365.7602,257.2801 364.8002,257.2801 363.8402,257.2801 363.8402,257.2801 362.8802,257.2801 362.8802,256.3201 362.8802,256.3201 362.8802,256.3201 361.9202,256.3201 361.9202,257.2801 361.9202,257.2801 360.9602,257.2801 360.9602,257.2801 360.9602,257.2801 360.9602,256.3201 360.9602,256.3201 360.0002,256.3201 359.0402,256.3201 358.0802,256.3201 358.0802,256.3201 357.1202,256.3201 357.1202,255.3601 357.1202,255.3601 356.1602,255.3601 356.1602,254.4001 355.2002,254.4001 355.2002,254.4001 354.2402,254.4001 354.2402,254.4001 354.2402,255.3601 353.2802,255.3601 353.2802,255.3601 352.3202,255.3601 352.3202,255.3601 350.4002,255.3601 349.4402,255.3601 349.4402,255.3601 349.4402,255.3601 348.4802,255.3601 347.5202,254.4001 346.5602,254.4001 346.5602,254.4001 345.6002,254.4001 345.6002,253.4401 345.6002,253.4401 344.6402,252.4801 344.6402,252.4801 344.6402,252.4801 344.6402,251.5201 344.6402,251.5201 343.6802,251.5201 343.6802,251.5201 342.7202,250.5601 342.7202,250.5601 341.7602,249.6001 340.8002,249.6001 340.8002,248.6401 339.8402,248.6401 339.8402,248.6401 338.8802,248.6401 338.8802,248.6401 338.8802,247.6801 337.9202,247.6801 336.9602,247.6801 336.9602,247.6801 336.0002,246.7201 336.0002,246.7201 335.0402,246.7201 335.0402,246.7201 335.0402,246.7201 334.0802,245.7601 333.1202,246.7201 333.1202,246.7201 332.1602,246.7201 332.1602,246.7201 331.2002,246.7201 331.2002,246.7201 330.2402,246.7201 330.2402,246.7201 329.2802,247.6801 329.2802,247.6801 328.3202,247.6801 327.3602,247.6801 327.3602,247.6801 326.4002,248.6401 326.4002,248.6401 326.4002,248.6401 326.4002,248.6401 325.4402,248.6401 324.4802,249.6001 324.4802,249.6001 324.4802,249.6001 324.4802,249.6001 323.5202,249.6001 323.5202,249.6001 322.5602,250.5601 321.6002,249.6001 321.6002,249.6001 320.6402,249.6001 319.6802,248.6401 319.6802,248.6401 319.6802,248.6401 319.6802,248.6401 318.7202,248.6401 318.7202,248.6401 317.7602,248.6401 316.8002,248.6401 316.8002,248.6401 315.8402,248.6401 315.8402,248.6401 315.8402,248.6401 315.8402,248.6401 314.8802,248.6401 314.8802,247.6801 314.8802,247.6801 313.9202,247.6801 312.9602,247.6801 312.9602,247.6801 312.9602,247.6801 312.0002,246.7201 311.0402,246.7201 311.0402,246.7201 311.0402,245.7601 309.1202,245.7601 308.1602,244.8001 307.2002,244.8001 307.2002,244.8001 306.2402,244.8001 306.2402,244.8001 305.2802,243.8401 305.2802,243.8401 304.3202,242.8801 304.3202,242.8801 302.4002,241.9201 302.4002,241.9201 301.4402,240.9601 300.4802,240.9601 300.4802,240.9601 300.4802,240.0001 299.5202,240.0001 298.5602,239.0401 298.5602,239.0401 296.6402,238.0801 296.6402,237.1201 295.6802,237.1201 295.6802,237.1201 294.7202,237.1201 293.7602,238.0801 293.7602,238.0801 292.8002,238.0801 291.8402,238.0801 291.8402,238.0801 291.8402,237.1201 290.8802,237.1201 290.8802,237.1201 290.8802,236.1601 289.9202,236.1601 289.9202,236.1601 289.9202,236.1601 288.9602,236.1601 288.9602,236.1601 288.0002,236.1601 288.0002,236.1601 287.0402,236.1601 286.0802,236.1601 286.0802,237.1201 286.0802,237.1201 284.1602,236.1601 283.2002,237.1201 283.2002,237.1201 282.2402,237.1201 282.2402,237.1201 282.2402,237.1201 282.2402,238.0801 281.2802,238.0801 281.2802,238.0801 279.3602,239.0401 279.3602,240.0001 278.4002,240.0001 278.4002,240.0001 277.4401,240.9601 277.4401,240.9601 277.4401,240.9601 276.4801,240.9601 276.4801,240.9601 275.5201,240.9601 274.5601,240.9601 274.5601,240.9601 273.6001,240.9601 273.6001,240.9601 272.6401,240.9601 272.6401,240.9601 271.6801,240.9601 271.6801,240.9601 269.7601,240.9601 269.7601,240.0001 268.8001,240.0001 267.8401,239.0401 267.8401,238.0801 266.8801,237.1201 265.9201,236.1601 265.9201,236.1601 265.9201,236.1601 264.9601,235.2001 264.9601,235.2001 264.0001,235.2001 264.0001,234.2401 264.0001,234.2401 264.0001,233.2801 263.0401,232.3201 263.0401,232.3201 263.0401,232.3201 262.0801,231.3601 261.1201,231.3601 261.1201,231.3601 260.1601,231.3601 260.1601,231.3601 259.2001,232.3201 258.2401,232.3201 258.2401,232.3201 258.2401,232.3201 258.2401,232.3201 257.2801,232.3201 256.3201,232.3201 256.3201,232.3201 255.3601,231.3601 255.3601,231.3601 254.4001,230.4001 254.4001,230.4001 253.4401,229.4401 253.4401,229.4401 253.4401,229.4401 252.4801,229.4401 252.4801,229.4401 252.4801,229.4401 252.4801,229.4401 252.4801,228.4801 251.5201,228.4801 251.5201,228.4801 251.5201,228.4801 250.5601,227.5201 250.5601,227.5201 250.5601,226.5601 250.5601,226.5601 249.6001,226.5601 249.6001,226.5601 248.6401,225.6001 248.6401,225.6001 248.6401,225.6001 247.6801,224.6401 247.6801,224.6401 247.6801,224.6401 246.7201,223.6801 246.7201,223.6801 245.7601,223.6801 244.8001,222.7201 244.8001,222.7201 243.8401,222.7201 243.8401,222.7201 243.8401,222.7201 243.8401,221.7601 243.8401,222.7201 242.8801,222.7201 242.8801,222.7201 242.8801,222.7201 242.8801,222.7201 242.8801,221.7601 241.9201,221.7601 241.9201,221.7601 241.9201,221.7601 241.9201,221.7601 240.9601,221.7601 240.9601,221.7601 240.9601,221.7601 240.9601,221.7601 240.0001,221.7601 240.0001,221.7601 240.0001,221.7601 240.0001,221.7601 240.0001,221.7601 239.0401,221.7601 239.0401,221.7601 238.0801,222.7201 238.0801,222.7201 238.0801,222.7201 238.0801,222.7201 236.1601,222.7201 236.1601,222.7201 236.1601,222.7201 234.2401,222.7201 234.2401,221.7601 234.2401,222.7201 233.2801,222.7201 233.2801,222.7201 233.2801,222.7201 232.3201,223.6801 232.3201,223.6801 231.3601,224.6401 230.4001,225.6001 230.4001,225.6001 228.4801,226.5601 228.4801,227.5201 227.5201,227.5201 227.5201,227.5201 227.5201,227.5201 226.5601,228.4801 225.6001,230.4001 225.6001,231.3601 224.6401,232.3201 222.7201,233.2801 221.7601,235.2001 221.7601,235.2001 220.8001,236.1601 220.8001,236.1601 219.8401,236.1601 219.8401,237.1201 219.8401,237.1201 218.8801,238.0801 218.8801,238.0801 218.8801,238.0801 218.8801,238.0801 217.9201,238.0801 216.9601,238.0801 216.0001,238.0801 216.0001,239.0401 215.0401,239.0401 215.0401,238.0801 214.0801,238.0801 214.0801,238.0801 214.0801,238.0801 213.1201,238.0801 213.1201,238.0801 212.1601,238.0801 212.1601,238.0801 211.2001,239.0401 211.2001,239.0401 210.2401,239.0401 209.2801,240.0001 208.3201,240.0001 207.3601,240.0001 207.3601,240.0001 205.4401,240.0001 205.4401,240.0001 204.4801,240.0001 204.4801,240.0001 203.5201,239.0401 203.5201,239.0401 203.5201,239.0401 202.5601,238.0801 202.5601,238.0801 201.6001,237.1201 200.6401,237.1201 200.6401,237.1201 199.6801,237.1201 199.6801,236.1601 198.7201,237.1201 198.7201,236.1601 198.7201,236.1601 196.8001,236.1601 195.8401,236.1601 194.8801,237.1201 194.8801,237.1201 193.9201,237.1201 193.9201,237.1201 192.9601,236.1601 192.0001,236.1601 192.0001,236.1601 192.0001,236.1601 191.0401,236.1601 190.0801,235.2001 190.0801,235.2001 189.1201,234.2401 189.1201,234.2401 188.1601,234.2401 188.1601,233.2801 187.2001,233.2801 187.2001,233.2801 186.2401,233.2801 186.2401,233.2801 185.2801,233.2801 185.2801,233.2801 184.3201,234.2401 184.3201,234.2401 183.3601,234.2401 182.4001,234.2401 182.4001,234.2401 181.4401,234.2401 180.4801,235.2001 180.4801,235.2001 179.5201,235.2001 178.5601,235.2001 178.5601,235.2001 177.6001,235.2001 176.6401,235.2001 175.6801,235.2001 175.6801,235.2001 174.7201,235.2001 172.8001,235.2001 171.8401,235.2001 170.8801,235.2001 169.9201,235.2001 168.0001,235.2001 167.0401,235.2001 165.1201,235.2001 165.1201,235.2001 164.1601,235.2001 163.2001,235.2001 163.2001,235.2001 162.2401,235.2001 161.2801,235.2001 160.3201,235.2001 159.3601,235.2001 158.4001,235.2001 156.4801,235.2001 156.4801,235.2001 154.5601,236.1601 153.6001,236.1601 153.6001,237.1201 152.6401,238.0801 152.6401,241.9201 151.6801,242.8801 151.6801,243.8401 150.7201,244.8001 150.7201,245.7601 149.7601,245.7601 148.8001,246.7201 147.8401,247.6801 147.8401,247.6801 144.9601,248.6401 144.0001,249.6001 143.0401,249.6001 142.0801,250.5601 142.0801,250.5601 141.1201,250.5601 141.1201,251.5201 141.1201,252.4801 141.1201,252.4801 141.1201,253.4401 140.1601,256.3201 140.1601,257.2801 140.1601,258.2401 139.2001,260.1601 139.2001,261.1201 139.2001,261.1201 139.2001,262.0801 140.1601,264.0001 140.1601,264.9601 140.1601,265.9201 140.1601,266.8801 140.1601,267.8401 140.1601,268.8001 140.1601,268.8001 139.2001,270.7201 139.2001,270.7201 139.2001,271.6801 139.2001,272.6401 140.1601,272.6401 140.1601,273.6001 140.1601,274.5601 141.1201,277.4401 141.1201,277.4401 142.0801,278.4002 142.0801,278.4002 143.0401,279.3602 143.0401,279.3602 144.0001,280.3202 144.9601,280.3202 144.9601,280.3202 145.9201,281.2802 145.9201,282.2402 145.9201,282.2402 146.8801,284.1602 146.8801,284.1602 147.8401,286.0802 148.8001,287.0402 149.7601,287.0402 149.7601,287.0402 151.6801,288.0002 151.6801,288.9602 153.6001,289.9202 156.4801,290.8802 159.3601,292.8002 161.2801,294.7202 162.2401,295.6802 163.2001,296.6402 164.1601,297.6002 165.1201,297.6002 165.1201,298.5602 167.0401,300.4802 167.0401,300.4802 168.0001,301.4402 169.9201,302.4002 173.7601,304.3202 173.7601,304.3202 174.7201,305.2802 175.6801,306.2402 177.6001,307.2002 177.6001,308.1602 178.5601,309.1202 178.5601,310.0802 179.5201,310.0802 182.4001,315.8402 182.4001,316.8002 183.3601,316.8002 183.3601,317.7602 183.3601,318.7202 183.3601,319.6802 183.3601,320.6402 183.3601,321.6002 183.3601,321.6002 183.3601,323.5202 183.3601,324.4802 182.4001,324.4802 182.4001,325.4402 181.4401,327.3602 180.4801,330.2402 180.4801,332.1602 179.5201,334.0802 179.5201,335.0402 179.5201,336.9602 179.5201,336.9602 178.5601,337.9202 178.5601,338.8802 177.6001,338.8802 176.6401,339.8402 175.6801,339.8402 174.7201,339.8402 174.7201,340.8002 173.7601,340.8002 172.8001,341.7602 172.8001,341.7602 171.8401,342.7202 168.9601,346.5602 168.0001,347.5202 168.0001,347.5202 168.0001,348.4802 168.0001,349.4402 168.0001,350.4002 168.9601,350.4002 168.9601,351.3602 169.9201,351.3602 169.9201,351.3602 170.8801,351.3602 171.8401,351.3602 172.8001,351.3602 173.7601,351.3602 173.7601,351.3602 174.7201,351.3602 175.6801,351.3602 177.6001,351.3602 178.5601,351.3602 179.5201,351.3602 180.4801,351.3602 181.4401,352.3202 182.4001,353.2802 183.3601,355.2002 183.3601,356.1602 183.3601,357.1202 184.3201,358.0802 185.2801,358.0802 186.2401,359.0402 187.2001,360.0002 188.1601,360.0002 190.0801,360.9602 191.0401,360.9602 192.0001,360.9602 192.9601,360.9602 193.9201,360.9602 194.8801,360.9602 196.8001,359.0402 198.7201,359.0402 198.7201,359.0402 199.6801,359.0402 205.4401,360.0002 206.4001,360.0002 207.3601,360.9602 208.3201,360.9602 209.2801,361.9202 210.2401,361.9202 211.2001,362.8802 212.1601,363.8402 212.1601,363.8402 213.1201,364.8002 213.1201,364.8002 213.1201,365.7602 214.0801,365.7602 214.0801,367.6802 213.1201,368.6402 213.1201,369.6002 213.1201,370.5602 212.1601,370.5602 211.2001,371.5202 209.2801,374.4002 208.3201,375.3602 207.3601,375.3602 206.4001,377.2802 206.4001,378.2402 206.4001,379.2002 206.4001,380.1602 206.4001,381.1202 206.4001,381.1202 207.3601,382.0802 207.3601,382.0802 208.3201,383.0402 208.3201,384.0002 209.2801,384.0002 210.2401,386.8802 211.2001,386.8802 211.2001,387.8402 212.1601,387.8402 212.1601,388.8002 213.1201,388.8002 214.0801,388.8002 215.0401,389.7602 216.0001,389.7602 217.9201,389.7602 218.8801,388.8002 220.8001,388.8002 220.8001,387.8402 222.7201,386.8802 223.6801,385.9202 223.6801,385.9202 225.6001,384.9602 227.5201,384.0002 227.5201,384.0002 228.4801,384.0002 229.4401,383.0402 230.4001,383.0402 230.4001,383.0402 231.3601,384.0002 232.3201,384.0002 233.2801,384.0002 233.2801,384.0002 233.2801,384.0002"/>
    <polygon points="0.0,0.0 0.0,576.0 1152.0,576.0 1152.0,0.0"/>
  </g>
</svg>
