<?xml version="1.0" encoding="utf-8"?>
<svg viewBox="6.247 12.796 83.505 70.41" width="83.505" height="70.41" xmlns="http://www.w3.org/2000/svg">
  <path d="M73.275,59.194c-1.012,0-2.046,0.137-3.073,0.409c-2.183,0.577-4.075,1.687-5.327,3.125  c-1.182,1.357-1.639,2.837-1.288,4.167c0.551,2.083,3.074,3.483,6.279,3.483c1.012,0,2.046-0.138,3.073-0.409  c2.184-0.577,4.075-1.686,5.328-3.125c1.182-1.356,1.639-2.837,1.288-4.167C79.005,60.594,76.481,59.194,73.275,59.194z"/>
  <path d="M7.018,49.049c0.152-0.046,0.311-0.096,0.467-0.144C7.63,48.86,7.771,48.816,7.92,48.77c0.162-0.051,0.33-0.105,0.496-0.159  c0.151-0.048,0.299-0.095,0.453-0.145c0.185-0.06,0.376-0.125,0.565-0.188c0.142-0.047,0.281-0.092,0.425-0.141  c0.282-0.095,0.571-0.195,0.862-0.296c0.057-0.02,0.111-0.038,0.168-0.058c0.349-0.123,0.704-0.249,1.063-0.38  c0.133-0.049,0.27-0.101,0.404-0.15c0.227-0.084,0.454-0.167,0.685-0.254c0.172-0.065,0.347-0.134,0.521-0.201  c0.199-0.077,0.398-0.153,0.6-0.232c0.177-0.07,0.356-0.143,0.535-0.215c0.202-0.081,0.403-0.161,0.607-0.245  c0.181-0.074,0.363-0.152,0.545-0.229c0.204-0.085,0.407-0.17,0.611-0.258c0.184-0.079,0.368-0.161,0.553-0.242  c0.205-0.09,0.41-0.18,0.615-0.272c0.187-0.084,0.375-0.171,0.562-0.258c0.203-0.093,0.406-0.187,0.61-0.282  c0.19-0.089,0.38-0.182,0.57-0.274c0.202-0.097,0.403-0.194,0.604-0.293c0.192-0.095,0.383-0.192,0.574-0.29  c0.2-0.102,0.399-0.203,0.598-0.306c0.191-0.1,0.381-0.201,0.57-0.303c0.199-0.106,0.397-0.213,0.595-0.321  c0.189-0.104,0.377-0.209,0.564-0.315c0.197-0.111,0.393-0.223,0.588-0.336c0.187-0.108,0.372-0.219,0.557-0.329  c0.193-0.116,0.385-0.232,0.576-0.35c0.185-0.114,0.368-0.229,0.55-0.345c0.188-0.12,0.376-0.241,0.563-0.363  c0.181-0.119,0.36-0.238,0.539-0.359c0.184-0.125,0.367-0.251,0.548-0.378c0.175-0.123,0.349-0.247,0.522-0.372  c0.18-0.13,0.357-0.262,0.534-0.395c0.169-0.127,0.337-0.255,0.504-0.384c0.174-0.136,0.346-0.273,0.517-0.412  c0.162-0.131,0.323-0.262,0.481-0.395c0.168-0.142,0.333-0.286,0.499-0.43c0.154-0.135,0.308-0.271,0.458-0.408  c0.161-0.147,0.317-0.296,0.474-0.445c0.147-0.14,0.294-0.28,0.437-0.422c0.153-0.153,0.301-0.309,0.449-0.464  c0.137-0.143,0.274-0.286,0.406-0.431c0.146-0.16,0.285-0.324,0.426-0.487c0.125-0.146,0.253-0.291,0.374-0.439  c0.137-0.167,0.267-0.339,0.397-0.51c0.114-0.148,0.231-0.296,0.34-0.446c0.128-0.176,0.247-0.356,0.368-0.535  c0.102-0.15,0.207-0.3,0.304-0.452c0.119-0.187,0.227-0.377,0.337-0.566c0.088-0.15,0.18-0.298,0.263-0.451  c0.111-0.203,0.209-0.41,0.312-0.616c0.07-0.144,0.147-0.285,0.213-0.431c0.106-0.234,0.199-0.473,0.294-0.711  c0.049-0.123,0.104-0.243,0.15-0.368c0.134-0.365,0.255-0.734,0.359-1.109c0.203-0.727,0.438-1.447,0.699-2.162  c0.086-0.236,0.19-0.468,0.283-0.703c0.187-0.476,0.375-0.952,0.589-1.422c0.126-0.279,0.27-0.554,0.405-0.831  c0.206-0.421,0.412-0.842,0.639-1.258c0.159-0.292,0.332-0.581,0.501-0.871c0.231-0.396,0.465-0.791,0.715-1.182  c0.188-0.295,0.388-0.587,0.587-0.879c0.259-0.38,0.524-0.76,0.802-1.136c0.215-0.292,0.438-0.582,0.664-0.871  c0.291-0.371,0.59-0.74,0.899-1.106c0.24-0.285,0.483-0.569,0.733-0.852c0.324-0.365,0.661-0.727,1.003-1.087  c0.262-0.275,0.523-0.551,0.795-0.824c0.112-0.112,0.214-0.228,0.328-0.34H33.913c-0.176,0.187-0.344,0.376-0.513,0.565  c-0.174,0.194-0.353,0.388-0.521,0.584c-0.196,0.23-0.38,0.463-0.566,0.696c-0.16,0.198-0.324,0.395-0.477,0.595  c-0.18,0.236-0.346,0.474-0.517,0.712c-0.143,0.2-0.292,0.399-0.429,0.601c-0.164,0.243-0.314,0.49-0.469,0.735  c-0.126,0.2-0.259,0.399-0.378,0.601c-0.149,0.251-0.282,0.505-0.421,0.758c-0.109,0.199-0.225,0.397-0.328,0.598  c-0.138,0.27-0.26,0.543-0.386,0.816c-0.086,0.186-0.18,0.37-0.261,0.557c-0.133,0.309-0.25,0.621-0.368,0.933  c-0.059,0.154-0.126,0.307-0.181,0.461c-0.166,0.468-0.315,0.938-0.447,1.411c-0.147,0.528-0.328,1.042-0.538,1.545  c-0.071,0.172-0.165,0.334-0.244,0.502c-0.151,0.326-0.297,0.654-0.474,0.969c-0.109,0.195-0.24,0.38-0.357,0.571  c-0.171,0.277-0.335,0.558-0.524,0.826c-0.14,0.199-0.299,0.387-0.449,0.582c-0.191,0.249-0.375,0.502-0.582,0.744  c-0.167,0.196-0.352,0.382-0.528,0.574c-0.21,0.228-0.414,0.46-0.636,0.681c-0.191,0.19-0.397,0.371-0.597,0.556  c-0.228,0.211-0.45,0.426-0.688,0.631c-0.211,0.182-0.436,0.355-0.654,0.532c-0.243,0.196-0.481,0.396-0.733,0.586  c-0.23,0.174-0.471,0.34-0.708,0.509c-0.255,0.182-0.506,0.367-0.768,0.543c-0.246,0.166-0.5,0.323-0.752,0.483  c-0.265,0.169-0.527,0.34-0.797,0.503c-0.259,0.156-0.523,0.305-0.787,0.456c-0.273,0.157-0.544,0.316-0.821,0.467  c-0.269,0.146-0.541,0.286-0.813,0.428c-0.28,0.146-0.558,0.293-0.84,0.434c-0.275,0.137-0.552,0.267-0.829,0.399  c-0.283,0.135-0.565,0.271-0.85,0.401c-0.279,0.127-0.56,0.249-0.84,0.371c-0.285,0.125-0.568,0.25-0.854,0.37  c-0.28,0.117-0.559,0.229-0.838,0.342c-0.286,0.115-0.571,0.231-0.855,0.342c-0.276,0.107-0.549,0.209-0.823,0.312  c-0.286,0.106-0.57,0.213-0.853,0.315c-0.27,0.097-0.535,0.189-0.801,0.282c-0.19,0.066-0.383,0.137-0.571,0.201v9.402  c0.118-0.035,0.241-0.072,0.363-0.108C6.747,49.13,6.879,49.091,7.018,49.049z"/>
  <path d="M7.041,61.253c0.167-0.047,0.329-0.092,0.5-0.141c0.237-0.067,0.483-0.139,0.729-0.21c0.19-0.055,0.378-0.109,0.574-0.167  c0.24-0.071,0.488-0.146,0.734-0.22c0.212-0.064,0.422-0.127,0.639-0.193c0.245-0.075,0.498-0.154,0.749-0.232  c0.229-0.072,0.458-0.143,0.693-0.218c0.246-0.078,0.497-0.16,0.748-0.241c0.249-0.081,0.498-0.162,0.752-0.246  c0.249-0.083,0.502-0.168,0.755-0.253c0.264-0.089,0.528-0.179,0.796-0.271c0.252-0.087,0.508-0.177,0.764-0.267  c0.274-0.096,0.549-0.193,0.827-0.293c0.259-0.093,0.521-0.189,0.783-0.285c0.281-0.103,0.563-0.207,0.846-0.313  c0.264-0.099,0.529-0.2,0.794-0.302c0.287-0.11,0.575-0.221,0.865-0.334c0.267-0.105,0.536-0.212,0.805-0.32  c0.293-0.117,0.586-0.236,0.881-0.357c0.269-0.11,0.539-0.223,0.809-0.336c0.295-0.124,0.591-0.249,0.887-0.376  c0.273-0.118,0.547-0.237,0.821-0.358c0.296-0.13,0.593-0.262,0.89-0.396c0.273-0.123,0.546-0.249,0.82-0.375  c0.298-0.138,0.596-0.278,0.895-0.419c0.272-0.129,0.544-0.26,0.816-0.393c0.299-0.146,0.597-0.293,0.895-0.443  c0.27-0.135,0.539-0.271,0.808-0.41c0.298-0.153,0.595-0.309,0.891-0.466c0.267-0.141,0.533-0.284,0.798-0.428  c0.295-0.161,0.589-0.325,0.883-0.489c0.263-0.147,0.526-0.296,0.787-0.446c0.291-0.168,0.58-0.339,0.868-0.511  c0.258-0.154,0.517-0.309,0.773-0.466c0.286-0.176,0.569-0.355,0.852-0.535c0.252-0.161,0.504-0.321,0.753-0.484  c0.28-0.184,0.557-0.372,0.833-0.56c0.245-0.166,0.49-0.333,0.731-0.502c0.273-0.192,0.541-0.388,0.809-0.584  c0.236-0.173,0.474-0.345,0.707-0.521c0.264-0.2,0.522-0.404,0.781-0.608c0.227-0.179,0.455-0.357,0.678-0.539  c0.255-0.209,0.504-0.424,0.753-0.637c0.215-0.184,0.432-0.367,0.643-0.554c0.245-0.218,0.481-0.441,0.719-0.664  c0.204-0.19,0.41-0.379,0.608-0.573c0.232-0.227,0.455-0.458,0.68-0.689c0.191-0.197,0.386-0.392,0.571-0.591  c0.219-0.236,0.427-0.479,0.638-0.719c0.177-0.202,0.358-0.401,0.528-0.606c0.207-0.249,0.401-0.503,0.599-0.756  c0.159-0.205,0.324-0.406,0.477-0.614c0.193-0.261,0.371-0.529,0.553-0.795c0.142-0.208,0.291-0.412,0.426-0.623  c0.179-0.276,0.34-0.561,0.507-0.843c0.122-0.207,0.252-0.41,0.368-0.62c0.165-0.299,0.312-0.605,0.462-0.91  c0.1-0.2,0.208-0.397,0.301-0.6c0.158-0.343,0.294-0.694,0.434-1.044c0.069-0.171,0.147-0.339,0.211-0.512  c0.194-0.527,0.369-1.062,0.52-1.604c0.243-0.869,0.519-1.732,0.823-2.59c0.099-0.279,0.218-0.554,0.323-0.832  c0.219-0.576,0.437-1.152,0.684-1.723c0.144-0.332,0.307-0.66,0.46-0.991c0.236-0.511,0.471-1.022,0.73-1.529  c0.179-0.35,0.375-0.697,0.565-1.045c0.262-0.481,0.524-0.961,0.807-1.438c0.211-0.356,0.438-0.71,0.661-1.064  c0.291-0.461,0.583-0.922,0.893-1.38c0.242-0.357,0.496-0.711,0.75-1.065c0.32-0.448,0.646-0.895,0.985-1.337  c0.271-0.354,0.551-0.707,0.834-1.059c0.351-0.437,0.71-0.871,1.08-1.302c0.299-0.349,0.604-0.696,0.914-1.042  c0.176-0.196,0.338-0.396,0.519-0.591H48.046c-0.325,0.299-0.63,0.603-0.941,0.905c-0.294,0.286-0.599,0.568-0.88,0.856  c-0.329,0.337-0.632,0.681-0.945,1.022c-0.269,0.294-0.55,0.585-0.807,0.882c-0.298,0.346-0.571,0.698-0.853,1.048  c-0.241,0.3-0.495,0.596-0.724,0.898c-0.269,0.355-0.51,0.717-0.762,1.076c-0.213,0.305-0.44,0.606-0.641,0.913  c-0.241,0.369-0.454,0.744-0.677,1.116c-0.182,0.304-0.378,0.604-0.548,0.91c-0.216,0.39-0.403,0.786-0.601,1.18  c-0.148,0.295-0.311,0.587-0.448,0.885c-0.201,0.437-0.371,0.879-0.548,1.32c-0.105,0.261-0.226,0.518-0.322,0.78  c-0.26,0.706-0.491,1.417-0.691,2.134c-0.108,0.387-0.23,0.769-0.366,1.145c-0.044,0.122-0.097,0.24-0.144,0.361  c-0.097,0.252-0.192,0.504-0.301,0.751c-0.064,0.146-0.139,0.287-0.207,0.43c-0.103,0.218-0.203,0.437-0.315,0.65  c-0.079,0.15-0.167,0.296-0.25,0.445c-0.113,0.202-0.223,0.406-0.343,0.604c-0.092,0.152-0.194,0.299-0.29,0.449  c-0.123,0.19-0.242,0.381-0.371,0.568c-0.105,0.152-0.219,0.3-0.329,0.45c-0.131,0.179-0.259,0.36-0.396,0.536  c-0.117,0.15-0.242,0.297-0.363,0.445c-0.14,0.171-0.277,0.343-0.422,0.512c-0.125,0.145-0.258,0.286-0.387,0.429  c-0.151,0.166-0.299,0.334-0.455,0.497c-0.135,0.142-0.276,0.279-0.414,0.418c-0.159,0.16-0.315,0.32-0.479,0.477  c-0.144,0.138-0.293,0.272-0.44,0.408c-0.167,0.153-0.331,0.308-0.502,0.458c-0.152,0.134-0.309,0.265-0.464,0.396  c-0.173,0.147-0.344,0.294-0.521,0.439c-0.161,0.131-0.327,0.259-0.491,0.389c-0.178,0.14-0.354,0.28-0.535,0.418  c-0.168,0.127-0.341,0.252-0.512,0.378c-0.183,0.134-0.364,0.268-0.549,0.399c-0.176,0.125-0.355,0.246-0.533,0.368  c-0.186,0.127-0.372,0.256-0.561,0.381c-0.182,0.121-0.367,0.239-0.551,0.357c-0.19,0.122-0.379,0.245-0.572,0.364  c-0.187,0.116-0.376,0.23-0.565,0.344c-0.194,0.117-0.387,0.234-0.583,0.349c-0.191,0.112-0.385,0.222-0.578,0.333  c-0.196,0.112-0.392,0.224-0.589,0.333c-0.196,0.108-0.394,0.215-0.592,0.321c-0.197,0.106-0.394,0.213-0.593,0.317  c-0.198,0.104-0.397,0.206-0.597,0.308c-0.201,0.103-0.401,0.205-0.603,0.305c-0.2,0.1-0.4,0.197-0.601,0.294  c-0.201,0.098-0.401,0.195-0.603,0.29c-0.203,0.096-0.406,0.19-0.608,0.284c-0.201,0.093-0.402,0.186-0.603,0.276  c-0.206,0.093-0.411,0.184-0.617,0.274c-0.196,0.086-0.392,0.172-0.588,0.256c-0.209,0.09-0.419,0.179-0.628,0.267  c-0.195,0.082-0.389,0.163-0.583,0.243c-0.206,0.084-0.411,0.167-0.616,0.25c-0.196,0.079-0.392,0.157-0.587,0.234  c-0.207,0.081-0.412,0.161-0.618,0.24c-0.188,0.072-0.376,0.144-0.563,0.215c-0.208,0.078-0.416,0.155-0.623,0.231  c-0.186,0.068-0.372,0.136-0.556,0.203c-0.205,0.074-0.407,0.146-0.609,0.217c-0.182,0.064-0.363,0.127-0.543,0.19  c-0.203,0.07-0.405,0.14-0.606,0.208c-0.177,0.06-0.352,0.119-0.526,0.177c-0.2,0.067-0.399,0.132-0.596,0.196  c-0.169,0.055-0.337,0.11-0.504,0.163c-0.2,0.064-0.398,0.127-0.595,0.188c-0.159,0.05-0.317,0.099-0.474,0.147  c-0.198,0.061-0.394,0.121-0.588,0.18c-0.153,0.046-0.304,0.091-0.454,0.136c-0.189,0.057-0.377,0.112-0.563,0.166  c-0.064,0.019-0.131,0.039-0.194,0.057v10.631c0.024-0.006,0.046-0.012,0.07-0.019C6.553,61.39,6.798,61.321,7.041,61.253z"/>
  <path d="M74.508,54.609c-1.791,0-3.619,0.243-5.434,0.723c-3.865,1.021-7.221,2.992-9.449,5.552  c-2.158,2.478-2.987,5.204-2.334,7.675c1.013,3.831,5.571,6.405,11.343,6.405c1.791,0,3.619-0.244,5.435-0.723  c3.865-1.021,7.22-2.992,9.449-5.551c2.158-2.478,2.987-5.204,2.334-7.675C84.84,57.184,80.281,54.609,74.508,54.609z M79.399,67.83  c-1.448,1.662-3.605,2.937-6.076,3.589c-0.288,0.076-0.577,0.143-0.865,0.2c-0.867,0.172-1.735,0.259-2.591,0.259c0,0,0,0,0,0  c-3.957,0-6.991-1.806-7.729-4.6c-0.482-1.826,0.088-3.792,1.606-5.536c1.448-1.663,3.605-2.938,6.076-3.59  c1.152-0.304,2.315-0.458,3.456-0.458c3.958,0,6.992,1.806,7.73,4.6C81.488,64.12,80.917,66.086,79.399,67.83z"/>
  <path d="M88.3,80.7c-0.809,0.485-1.646,0.939-2.5,1.373c-0.135,0.068-0.267,0.139-0.403,0.206c-0.65,0.321-1.308,0.633-1.982,0.924  h6.335v-3.415c-0.435,0.288-0.88,0.564-1.329,0.836C88.38,80.648,88.341,80.675,88.3,80.7z"/>
  <path d="M88.067,16.242c-0.454,0.074-0.907,0.154-1.361,0.235c-0.25,0.044-0.5,0.087-0.751,0.133  c-0.53,0.098-1.063,0.201-1.598,0.305c-0.177,0.035-0.352,0.067-0.53,0.103c-0.712,0.141-1.429,0.285-2.157,0.432  c-2.142,0.432-4.355,0.879-6.757,1.291c-2.027,0.348-3.885,1.376-5.631,2.81c-1.048,0.86-2.056,1.867-3.036,2.958  c-1.568,1.747-3.066,3.714-4.545,5.656c-2.102,2.76-4.087,5.366-6.18,7.208c-0.679,0.597-1.438,1.269-2.256,1.995  c-2.456,2.179-5.445,4.852-8.396,7.489c-1.106,0.989-2.195,1.961-3.247,2.901c-2.925,2.612-5.548,4.948-7.317,6.499  c-0.344,0.301-0.655,0.573-0.931,0.812c-1.188,1.027-1.958,1.957-2.774,2.941c-1.928,2.325-4.114,4.961-12.335,9.827  c-0.377,0.223-0.734,0.456-1.076,0.695c-0.116,0.081-0.219,0.167-0.331,0.25c-0.219,0.163-0.439,0.325-0.645,0.493  c-0.123,0.102-0.235,0.208-0.353,0.312c-0.178,0.156-0.357,0.312-0.524,0.473c-0.118,0.114-0.226,0.231-0.338,0.348  c-0.151,0.157-0.305,0.313-0.446,0.474c-0.108,0.123-0.209,0.248-0.312,0.373c-0.131,0.159-0.263,0.317-0.385,0.479  c-0.098,0.129-0.188,0.26-0.281,0.391c-0.114,0.162-0.228,0.324-0.333,0.488c-0.086,0.133-0.167,0.268-0.248,0.402  c-0.099,0.165-0.196,0.33-0.288,0.496c-0.075,0.137-0.146,0.274-0.216,0.412c-0.085,0.167-0.167,0.334-0.246,0.503  c-0.064,0.138-0.125,0.277-0.185,0.416c-0.072,0.169-0.142,0.339-0.208,0.509c-0.054,0.139-0.106,0.278-0.156,0.417  c-0.061,0.171-0.118,0.342-0.172,0.513c-0.044,0.138-0.088,0.275-0.128,0.413c-0.051,0.173-0.097,0.345-0.141,0.518  c-0.035,0.135-0.071,0.271-0.102,0.405c-0.041,0.173-0.077,0.346-0.111,0.518c-0.027,0.133-0.056,0.265-0.079,0.397  c-0.032,0.174-0.059,0.347-0.085,0.519c-0.02,0.126-0.041,0.253-0.057,0.378c-0.024,0.18-0.043,0.357-0.062,0.535  c-0.012,0.113-0.026,0.229-0.037,0.341c-0.017,0.19-0.029,0.376-0.041,0.563c-0.006,0.097-0.015,0.195-0.02,0.291  c-0.001,0.016-0.001,0.031-0.002,0.047h21.463c-0.008-0.022-0.016-0.046-0.025-0.068c-0.065-0.174-0.128-0.353-0.192-0.53  c-0.081-0.222-0.162-0.443-0.239-0.669c-0.062-0.181-0.12-0.366-0.18-0.549c-0.075-0.228-0.149-0.455-0.22-0.687  c-0.057-0.188-0.11-0.376-0.165-0.565c-0.067-0.232-0.133-0.464-0.195-0.699c-0.051-0.193-0.098-0.387-0.146-0.582  c-0.058-0.234-0.114-0.468-0.166-0.703c-0.043-0.197-0.083-0.395-0.122-0.593c-0.047-0.236-0.092-0.472-0.132-0.708  c-0.034-0.199-0.064-0.398-0.094-0.598c-0.035-0.236-0.066-0.473-0.094-0.709c-0.023-0.2-0.043-0.4-0.062-0.6  c-0.021-0.236-0.038-0.471-0.051-0.707c-0.011-0.2-0.02-0.4-0.025-0.599c-0.006-0.234-0.006-0.466-0.003-0.699  c0.002-0.199,0.006-0.397,0.015-0.594c0.011-0.232,0.029-0.461,0.05-0.691c0.017-0.194,0.034-0.389,0.059-0.582  c0.029-0.229,0.068-0.455,0.108-0.682c0.033-0.188,0.064-0.377,0.105-0.564c0.05-0.228,0.112-0.45,0.174-0.674  c0.05-0.18,0.096-0.36,0.153-0.537c0.074-0.226,0.163-0.446,0.25-0.668c0.066-0.167,0.126-0.337,0.2-0.502  c0.103-0.228,0.224-0.447,0.342-0.668c0.081-0.151,0.152-0.305,0.241-0.453c0.144-0.241,0.31-0.472,0.475-0.705  c0.084-0.119,0.157-0.243,0.248-0.36c0.266-0.344,0.555-0.679,0.872-1c3.278-3.325,5.547-6.646,7.743-9.857  c2.921-4.274,5.7-8.34,10.466-11.82c0.681-0.498,1.403-0.983,2.171-1.455c7.96-4.892,22.445-8.582,33.691-8.582  c0.729,0,1.429,0.022,2.112,0.056c0.087,0.004,0.182,0.002,0.268,0.007V15.99c-0.278,0.039-0.557,0.078-0.834,0.121  C88.633,16.154,88.35,16.195,88.067,16.242z"/>
  <path d="M88.746,46.094c-0.241-0.088-0.487-0.172-0.733-0.254c-0.181-0.061-0.361-0.122-0.545-0.18  c-0.264-0.083-0.533-0.159-0.802-0.234c-0.174-0.049-0.347-0.099-0.523-0.145c-0.285-0.074-0.574-0.142-0.864-0.209  c-0.168-0.039-0.335-0.079-0.504-0.115c-0.303-0.064-0.609-0.122-0.917-0.178c-0.164-0.03-0.327-0.062-0.492-0.09  c-0.316-0.053-0.636-0.098-0.957-0.143c-0.162-0.022-0.323-0.047-0.486-0.068c-0.326-0.041-0.655-0.073-0.985-0.105  c-0.164-0.016-0.326-0.034-0.491-0.048c-0.332-0.027-0.666-0.047-1.001-0.065c-0.167-0.009-0.333-0.021-0.5-0.029  c-0.333-0.014-0.67-0.02-1.007-0.026c-0.173-0.003-0.344-0.009-0.518-0.01c-0.333-0.001-0.669,0.006-1.004,0.014  c-0.179,0.003-0.357,0.004-0.536,0.01c-0.33,0.012-0.662,0.032-0.993,0.051c-0.188,0.011-0.375,0.018-0.563,0.032  c-0.32,0.023-0.642,0.056-0.963,0.086c-0.201,0.019-0.4,0.034-0.602,0.056c-0.313,0.034-0.626,0.078-0.94,0.12  c-0.209,0.028-0.418,0.051-0.627,0.082c-0.31,0.046-0.619,0.101-0.928,0.154c-0.214,0.036-0.428,0.068-0.641,0.107  c-0.333,0.062-0.666,0.134-0.999,0.205c-0.188,0.04-0.375,0.074-0.563,0.116c-0.52,0.117-1.039,0.243-1.557,0.38  C50.728,49.776,40.164,61.77,42.957,72.345c0.078,0.296,0.167,0.59,0.265,0.879c0.026,0.076,0.058,0.149,0.085,0.225  c0.077,0.212,0.153,0.424,0.24,0.633c0.04,0.096,0.087,0.188,0.13,0.283c0.082,0.184,0.162,0.369,0.252,0.55  c0.054,0.108,0.116,0.212,0.173,0.319c0.088,0.165,0.173,0.331,0.268,0.493c0.061,0.104,0.13,0.205,0.194,0.309  c0.1,0.16,0.196,0.321,0.302,0.478c0.071,0.105,0.15,0.208,0.225,0.312c0.107,0.15,0.212,0.301,0.326,0.448  c0.082,0.106,0.172,0.208,0.257,0.313c0.115,0.141,0.227,0.283,0.348,0.42c0.091,0.104,0.189,0.203,0.283,0.305  c0.124,0.134,0.245,0.27,0.375,0.401c0.1,0.101,0.206,0.197,0.309,0.296c0.133,0.127,0.263,0.256,0.401,0.381  c0.108,0.097,0.223,0.19,0.334,0.285c0.142,0.121,0.28,0.244,0.427,0.361c0.118,0.095,0.242,0.185,0.363,0.277  c0.148,0.113,0.294,0.228,0.447,0.338c0.127,0.091,0.26,0.178,0.391,0.267c0.156,0.106,0.309,0.214,0.47,0.317  c0.133,0.085,0.273,0.167,0.409,0.25c0.166,0.101,0.329,0.204,0.499,0.301c0.14,0.081,0.287,0.156,0.43,0.234  c0.174,0.095,0.346,0.191,0.525,0.283c0.147,0.075,0.301,0.146,0.452,0.219c0.182,0.088,0.362,0.178,0.548,0.262  c0.153,0.069,0.313,0.134,0.468,0.201c0.17,0.073,0.34,0.147,0.514,0.217h25.512c0.977-0.321,1.934-0.67,2.867-1.051  c0.079-0.032,0.151-0.071,0.229-0.104c0.867-0.36,1.717-0.741,2.543-1.152c0.308-0.153,0.597-0.328,0.899-0.488  c0.581-0.308,1.164-0.612,1.722-0.945c0.348-0.208,0.674-0.437,1.013-0.653c0.437-0.28,0.877-0.557,1.299-0.854V46.492  c-0.144-0.06-0.288-0.119-0.435-0.177C89.126,46.24,88.938,46.165,88.746,46.094z M84.649,69.675  c-2.424,2.783-6.045,4.92-10.197,6.016c-1.94,0.513-3.897,0.773-5.816,0.773c0,0,0,0-0.001,0c-4.226,0-7.808-1.227-10.148-3.319  c-0.334-0.299-0.644-0.616-0.925-0.949c-0.81-0.957-1.401-2.047-1.72-3.254c-0.784-2.967,0.158-6.179,2.653-9.043  c2.424-2.783,6.045-4.92,10.198-6.017c1.94-0.513,3.897-0.772,5.816-0.772c6.565,0,11.587,2.953,12.794,7.522  C88.086,63.599,87.144,66.81,84.649,69.675z"/>
  <path d="M62.114,13.924c-0.322,0.352-0.657,0.7-0.967,1.054c-0.365,0.418-0.703,0.843-1.05,1.265  c-0.294,0.358-0.602,0.713-0.883,1.074c-0.334,0.428-0.64,0.863-0.956,1.296c-0.265,0.362-0.543,0.722-0.795,1.087  c-0.304,0.441-0.579,0.888-0.864,1.333c-0.233,0.364-0.481,0.725-0.702,1.091c-0.277,0.459-0.523,0.924-0.78,1.388  c-0.199,0.358-0.413,0.714-0.601,1.075c-0.254,0.49-0.477,0.987-0.709,1.482c-0.16,0.34-0.335,0.676-0.484,1.018  c-0.24,0.548-0.445,1.103-0.658,1.657c-0.113,0.293-0.243,0.584-0.348,0.879c-0.303,0.851-0.576,1.707-0.816,2.568  c-0.159,0.568-0.34,1.128-0.543,1.679c-0.069,0.188-0.154,0.369-0.228,0.555c-0.144,0.36-0.283,0.722-0.444,1.075  c-0.098,0.213-0.211,0.42-0.315,0.631c-0.157,0.317-0.307,0.637-0.478,0.948c-0.123,0.224-0.261,0.44-0.39,0.661  c-0.17,0.29-0.334,0.583-0.517,0.867c-0.145,0.226-0.303,0.444-0.455,0.667c-0.185,0.271-0.364,0.546-0.559,0.813  c-0.163,0.223-0.34,0.439-0.51,0.659c-0.2,0.258-0.395,0.519-0.604,0.772c-0.181,0.219-0.374,0.432-0.562,0.647  c-0.214,0.246-0.423,0.494-0.645,0.735c-0.197,0.214-0.405,0.421-0.608,0.632c-0.227,0.234-0.45,0.472-0.684,0.702  c-0.212,0.209-0.435,0.412-0.653,0.617c-0.238,0.224-0.473,0.45-0.717,0.669c-0.226,0.203-0.459,0.399-0.69,0.598  c-0.25,0.215-0.496,0.432-0.751,0.643c-0.237,0.195-0.481,0.385-0.722,0.577c-0.26,0.206-0.518,0.414-0.783,0.616  c-0.248,0.189-0.502,0.372-0.754,0.558c-0.269,0.197-0.535,0.396-0.809,0.59c-0.257,0.182-0.52,0.359-0.781,0.538  c-0.276,0.188-0.55,0.379-0.83,0.563c-0.267,0.176-0.538,0.347-0.808,0.52c-0.282,0.18-0.562,0.361-0.847,0.537  c-0.274,0.169-0.551,0.333-0.827,0.499c-0.287,0.172-0.573,0.345-0.862,0.513c-0.279,0.163-0.561,0.32-0.843,0.479  c-0.292,0.164-0.582,0.33-0.875,0.49c-0.283,0.155-0.568,0.306-0.853,0.457c-0.295,0.157-0.589,0.314-0.885,0.467  c-0.287,0.148-0.575,0.292-0.863,0.438c-0.296,0.149-0.592,0.298-0.889,0.444c-0.289,0.141-0.578,0.278-0.867,0.416  c-0.297,0.142-0.595,0.284-0.892,0.422c-0.291,0.135-0.58,0.265-0.87,0.396c-0.296,0.134-0.593,0.269-0.889,0.399  c-0.287,0.127-0.573,0.25-0.859,0.373c-0.299,0.129-0.597,0.257-0.894,0.382c-0.285,0.12-0.569,0.236-0.853,0.353  c-0.294,0.121-0.587,0.241-0.88,0.358c-0.285,0.114-0.567,0.225-0.85,0.336c-0.288,0.113-0.576,0.226-0.862,0.335  c-0.28,0.107-0.558,0.212-0.835,0.316c-0.285,0.107-0.568,0.213-0.85,0.316c-0.275,0.101-0.547,0.199-0.82,0.297  c-0.276,0.099-0.552,0.198-0.825,0.294c-0.27,0.095-0.535,0.187-0.801,0.278c-0.271,0.093-0.54,0.186-0.806,0.275  c-0.258,0.087-0.512,0.171-0.766,0.255c-0.267,0.088-0.532,0.176-0.794,0.26c-0.245,0.079-0.485,0.156-0.724,0.232  c-0.261,0.083-0.52,0.165-0.775,0.244c-0.232,0.072-0.459,0.142-0.687,0.211c-0.251,0.077-0.499,0.152-0.744,0.226  c-0.221,0.066-0.438,0.13-0.653,0.193c-0.24,0.071-0.477,0.14-0.71,0.208c-0.204,0.059-0.403,0.116-0.602,0.172  c-0.229,0.065-0.455,0.128-0.677,0.19c-0.19,0.053-0.375,0.104-0.559,0.154C6.469,62.967,6.354,63,6.25,63.028v20.175h2.902  c0.001-0.027,0.004-0.055,0.005-0.082c0.007-0.143,0.018-0.288,0.027-0.432c0.011-0.166,0.022-0.331,0.037-0.5  c0.013-0.146,0.03-0.293,0.046-0.441c0.019-0.172,0.038-0.343,0.061-0.518c0.02-0.148,0.044-0.299,0.067-0.449  c0.027-0.177,0.055-0.354,0.087-0.532c0.027-0.152,0.059-0.304,0.09-0.458c0.037-0.179,0.075-0.357,0.117-0.538  c0.037-0.155,0.076-0.311,0.117-0.466c0.046-0.18,0.096-0.36,0.148-0.541c0.046-0.157,0.094-0.314,0.145-0.471  c0.058-0.18,0.119-0.359,0.183-0.539c0.056-0.158,0.115-0.315,0.176-0.473c0.07-0.18,0.145-0.359,0.221-0.539  c0.067-0.157,0.136-0.313,0.208-0.469c0.083-0.179,0.172-0.356,0.263-0.534c0.079-0.155,0.158-0.31,0.243-0.464  c0.098-0.177,0.202-0.353,0.308-0.528c0.091-0.152,0.182-0.303,0.279-0.454c0.114-0.176,0.236-0.349,0.359-0.522  c0.103-0.146,0.205-0.293,0.314-0.438c0.132-0.174,0.274-0.344,0.416-0.515c0.116-0.14,0.228-0.28,0.35-0.417  c0.153-0.172,0.318-0.34,0.481-0.509c0.126-0.13,0.248-0.262,0.38-0.39c0.18-0.173,0.375-0.341,0.567-0.51  c0.132-0.116,0.258-0.235,0.396-0.349c0.223-0.183,0.462-0.359,0.701-0.535c0.125-0.093,0.241-0.189,0.371-0.28  c0.375-0.263,0.769-0.519,1.183-0.764c7.997-4.732,10.094-7.262,11.944-9.493c0.856-1.033,1.666-2.009,2.947-3.118  c2.196-1.899,6.705-5.929,11.477-10.195c3.938-3.52,7.944-7.101,10.661-9.492c1.981-1.744,3.923-4.293,5.978-6.991  c4.12-5.411,8.381-11.005,14.152-11.995c2.38-0.408,4.583-0.853,6.714-1.282c0.728-0.147,1.446-0.292,2.158-0.432  c0.276-0.055,0.55-0.105,0.825-0.159c0.455-0.088,0.911-0.177,1.363-0.261c0.299-0.055,0.599-0.105,0.897-0.158  c0.423-0.075,0.847-0.15,1.271-0.219c0.313-0.051,0.627-0.096,0.94-0.144c0.308-0.046,0.614-0.098,0.923-0.141v-1.668H63.157  C62.797,13.17,62.459,13.548,62.114,13.924z"/>
  <path d="M7.305,28.89c0.298-0.188,0.588-0.377,0.867-0.569c0.217-0.149,0.429-0.299,0.634-0.45c0.263-0.193,0.516-0.389,0.76-0.585  c0.192-0.154,0.381-0.308,0.562-0.464c0.231-0.201,0.449-0.404,0.662-0.607c0.163-0.157,0.329-0.313,0.481-0.472  c0.202-0.21,0.386-0.424,0.569-0.638c0.134-0.157,0.273-0.313,0.396-0.471c0.175-0.225,0.328-0.454,0.481-0.683  c0.102-0.152,0.214-0.303,0.307-0.457c0.152-0.252,0.278-0.509,0.405-0.766c0.066-0.134,0.146-0.266,0.205-0.401  c0.161-0.368,0.293-0.741,0.402-1.117c0.007-0.025,0.02-0.05,0.027-0.076c0.112-0.401,0.242-0.8,0.382-1.196  c0.044-0.125,0.096-0.25,0.143-0.374c0.102-0.269,0.208-0.537,0.322-0.803c0.064-0.149,0.134-0.297,0.203-0.445  c0.112-0.242,0.228-0.483,0.351-0.723c0.078-0.152,0.159-0.304,0.241-0.456c0.129-0.237,0.265-0.473,0.405-0.708  c0.086-0.146,0.172-0.292,0.263-0.436c0.159-0.252,0.327-0.502,0.498-0.751c0.083-0.122,0.163-0.244,0.25-0.365  c0.261-0.366,0.534-0.729,0.823-1.088c0.002-0.003,0.005-0.006,0.008-0.01c0.266-0.33,0.542-0.657,0.831-0.98H6.25v16.724  c0.116-0.067,0.24-0.133,0.354-0.201C6.844,29.179,7.076,29.035,7.305,28.89z"/>
  <path d="M7.052,38.002c0.248-0.089,0.495-0.179,0.75-0.274c0.219-0.082,0.444-0.169,0.667-0.256  c0.262-0.101,0.525-0.203,0.793-0.311c0.231-0.093,0.465-0.19,0.7-0.287c0.27-0.112,0.54-0.225,0.813-0.343  c0.239-0.103,0.479-0.21,0.721-0.318c0.276-0.124,0.553-0.249,0.831-0.379c0.242-0.113,0.485-0.229,0.728-0.347  c0.279-0.135,0.557-0.273,0.836-0.414c0.244-0.124,0.487-0.25,0.73-0.378c0.277-0.146,0.554-0.297,0.829-0.45  c0.241-0.134,0.481-0.27,0.721-0.408c0.274-0.159,0.545-0.323,0.816-0.489c0.235-0.144,0.469-0.288,0.7-0.437  c0.268-0.172,0.53-0.349,0.792-0.528c0.225-0.153,0.451-0.307,0.671-0.465c0.257-0.185,0.506-0.376,0.755-0.567  c0.213-0.164,0.427-0.327,0.634-0.496c0.243-0.198,0.476-0.404,0.71-0.609c0.196-0.173,0.395-0.343,0.584-0.521  c0.228-0.214,0.442-0.437,0.658-0.659c0.176-0.18,0.356-0.357,0.522-0.541c0.211-0.233,0.403-0.476,0.6-0.717  c0.15-0.185,0.308-0.365,0.448-0.554c0.193-0.258,0.362-0.527,0.536-0.794c0.119-0.183,0.249-0.36,0.359-0.547  c0.178-0.303,0.328-0.618,0.479-0.931c0.079-0.162,0.172-0.317,0.243-0.482c0.209-0.483,0.389-0.978,0.53-1.485  c0.134-0.481,0.288-0.958,0.454-1.434c0.054-0.153,0.117-0.305,0.174-0.458c0.12-0.32,0.242-0.641,0.377-0.958  c0.077-0.18,0.16-0.358,0.241-0.537c0.131-0.29,0.265-0.579,0.409-0.866c0.093-0.186,0.191-0.372,0.289-0.557  c0.147-0.277,0.3-0.554,0.458-0.829c0.107-0.186,0.216-0.372,0.329-0.556c0.167-0.274,0.342-0.547,0.521-0.818  c0.118-0.179,0.235-0.359,0.358-0.537c0.194-0.281,0.399-0.56,0.606-0.837c0.122-0.164,0.239-0.329,0.365-0.491  c0.25-0.322,0.512-0.64,0.779-0.958c0.096-0.114,0.185-0.229,0.283-0.343c0.011-0.013,0.021-0.026,0.033-0.04H20.848  c-0.144,0.146-0.282,0.293-0.421,0.44c-0.153,0.163-0.311,0.325-0.458,0.489c-0.171,0.19-0.33,0.383-0.492,0.575  c-0.136,0.161-0.275,0.32-0.405,0.482c-0.158,0.198-0.305,0.398-0.454,0.599c-0.12,0.16-0.245,0.32-0.358,0.481  c-0.145,0.205-0.277,0.412-0.412,0.619c-0.104,0.161-0.215,0.319-0.314,0.48c-0.131,0.213-0.249,0.428-0.37,0.643  c-0.089,0.159-0.185,0.316-0.27,0.476c-0.118,0.225-0.223,0.452-0.33,0.678c-0.073,0.152-0.152,0.304-0.221,0.457  c-0.11,0.25-0.205,0.501-0.303,0.753c-0.052,0.133-0.111,0.265-0.159,0.399c-0.139,0.386-0.264,0.775-0.373,1.167  c-0.129,0.464-0.293,0.921-0.49,1.372c-0.065,0.149-0.155,0.294-0.227,0.442c-0.146,0.299-0.287,0.599-0.463,0.892  c-0.104,0.173-0.234,0.341-0.349,0.512c-0.175,0.261-0.342,0.524-0.541,0.781c-0.141,0.181-0.307,0.356-0.459,0.535  c-0.205,0.24-0.401,0.481-0.628,0.717c-0.175,0.182-0.376,0.359-0.565,0.538c-0.235,0.225-0.463,0.452-0.72,0.672  c-0.21,0.181-0.444,0.356-0.668,0.534c-0.267,0.212-0.526,0.425-0.812,0.633c-0.244,0.178-0.512,0.35-0.771,0.524  c-0.297,0.201-0.588,0.403-0.905,0.599c-0.277,0.173-0.578,0.34-0.87,0.509c-0.266,0.154-0.514,0.312-0.792,0.463v7.029  c0.055-0.02,0.107-0.036,0.163-0.056C6.621,38.159,6.837,38.08,7.052,38.002z"/>
  <path d="M88.797,34.07c-0.466-0.015-0.94-0.025-1.427-0.025c-10.825,0-25.279,3.672-32.906,8.36  c-5.874,3.61-8.938,8.095-12.184,12.844c-2.232,3.266-4.541,6.643-7.913,10.063c-0.286,0.29-0.547,0.593-0.785,0.906  c-0.082,0.108-0.147,0.224-0.224,0.334c-0.146,0.21-0.295,0.418-0.421,0.636c-0.08,0.138-0.143,0.283-0.215,0.424  c-0.103,0.201-0.211,0.398-0.3,0.604c-0.066,0.154-0.116,0.314-0.175,0.471c-0.075,0.202-0.155,0.401-0.218,0.607  c-0.05,0.167-0.086,0.338-0.129,0.507c-0.052,0.204-0.108,0.407-0.149,0.614c-0.035,0.176-0.057,0.355-0.083,0.534  c-0.032,0.208-0.067,0.413-0.089,0.624c-0.019,0.183-0.027,0.369-0.039,0.554c-0.014,0.209-0.031,0.418-0.036,0.629  c-0.005,0.188,0,0.379,0.002,0.569c0.002,0.212,0.002,0.423,0.012,0.637c0.009,0.191,0.026,0.383,0.04,0.575  c0.017,0.214,0.031,0.429,0.055,0.644c0.021,0.193,0.048,0.387,0.075,0.581c0.029,0.214,0.057,0.428,0.092,0.643  c0.032,0.194,0.069,0.388,0.105,0.582c0.041,0.214,0.08,0.428,0.125,0.642c0.041,0.191,0.086,0.382,0.131,0.573  c0.051,0.214,0.101,0.429,0.156,0.642c0.049,0.189,0.101,0.376,0.153,0.563c0.059,0.212,0.118,0.424,0.181,0.634  c0.055,0.185,0.113,0.368,0.171,0.55c0.066,0.208,0.132,0.417,0.202,0.622c0.061,0.18,0.123,0.357,0.185,0.535  c0.072,0.205,0.145,0.409,0.219,0.61c0.063,0.171,0.127,0.339,0.192,0.507c0.043,0.114,0.088,0.225,0.132,0.337h16.452  c-0.024-0.014-0.045-0.029-0.069-0.042c-0.488-0.276-0.957-0.567-1.41-0.869c-0.096-0.063-0.189-0.127-0.283-0.192  c-0.45-0.31-0.885-0.628-1.297-0.963c-0.042-0.034-0.082-0.071-0.124-0.105c-0.385-0.318-0.751-0.649-1.102-0.988  c-0.067-0.064-0.136-0.127-0.201-0.193c-0.358-0.357-0.696-0.727-1.016-1.105c-0.068-0.082-0.134-0.164-0.201-0.246  c-0.318-0.392-0.622-0.792-0.899-1.205c-0.019-0.027-0.034-0.056-0.053-0.084c-0.263-0.398-0.502-0.807-0.726-1.224  c-0.045-0.084-0.092-0.167-0.136-0.252c-0.219-0.427-0.417-0.863-0.594-1.308c-0.036-0.092-0.069-0.185-0.104-0.277  c-0.174-0.463-0.333-0.933-0.46-1.414c0-0.002-0.001-0.004-0.002-0.006c-0.375-1.422-0.532-2.866-0.485-4.314  c0.164-5.066,2.813-10.173,7.234-14.492c0.632-0.617,1.299-1.218,2.001-1.8c0.702-0.582,1.438-1.146,2.206-1.689  c3.84-2.715,8.48-4.908,13.661-6.276c0.531-0.14,1.063-0.27,1.597-0.39c0.171-0.039,0.344-0.07,0.516-0.107  c0.363-0.077,0.727-0.155,1.091-0.223c0.194-0.037,0.389-0.066,0.583-0.1c0.343-0.059,0.687-0.119,1.03-0.17  c0.195-0.029,0.39-0.052,0.585-0.078c0.344-0.046,0.689-0.093,1.033-0.131c0.188-0.021,0.374-0.037,0.561-0.055  c0.352-0.035,0.704-0.068,1.055-0.094c0.177-0.013,0.353-0.022,0.529-0.033c0.362-0.022,0.723-0.042,1.083-0.055  c0.165-0.006,0.328-0.008,0.492-0.012c0.37-0.009,0.739-0.015,1.107-0.014c0.155,0,0.309,0.003,0.463,0.005  c0.375,0.005,0.75,0.015,1.122,0.03c0.145,0.006,0.289,0.014,0.433,0.021c0.379,0.02,0.755,0.045,1.13,0.076  c0.137,0.011,0.274,0.023,0.41,0.036c0.378,0.035,0.754,0.076,1.127,0.122c0.131,0.016,0.261,0.032,0.391,0.05  c0.375,0.05,0.745,0.106,1.113,0.168c0.127,0.021,0.255,0.042,0.381,0.064c0.364,0.065,0.725,0.136,1.083,0.212  c0.128,0.027,0.257,0.053,0.384,0.082c0.349,0.078,0.693,0.164,1.036,0.252c0.132,0.034,0.265,0.067,0.396,0.103  c0.328,0.089,0.651,0.187,0.973,0.286c0.14,0.043,0.281,0.084,0.42,0.129c0.299,0.098,0.593,0.203,0.885,0.309  c0.154,0.056,0.311,0.109,0.463,0.167c0.051,0.02,0.104,0.036,0.154,0.056V34.118c-0.176-0.01-0.349-0.021-0.529-0.029  C89.08,34.082,88.94,34.075,88.797,34.07z"/>
</svg>