<?xml version='1.0' encoding='ASCII' standalone='yes'?>
<svg xmlns="http://www.w3.org/2000/svg" xmlns:cc="http://creativecommons.org/ns" xmlns:dc="http://purl.org/dc/elements/1.1/" xmlns:ev="http://www.w3.org/2001/xml-events" xmlns:inkscape="http://www.inkscape.org/namespaces/inkscape" xmlns:rdf="http://www.w3.org/1999/02/22-rdf-syntax-ns" xmlns:sodipodi="http://sodipodi.sourceforge.net/DTD/sodipodi-0.dtd" xmlns:xlink="http://www.w3.org/1999/xlink" baseProfile="tiny" height="6.0in" version="1.2" viewBox="0 0 1152.0 576.0" width="12in">
  <metadata>
    <rdf:RDF>
      <cc:Work>
        <dc:format>image/svg+xml</dc:format>
        <dc:source>vpype lambda-touchterrain.handler
</dc:source>
        <dc:date>2023-05-26T00:56:54.384373</dc:date>
      </cc:Work>
    </rdf:RDF>
  </metadata>
  <defs/>
  <g fill="none" id="layer1" inkscape:groupmode="layer" inkscape:label="1" stroke="#000000" stroke-width="1.0" style="display:inline">
    <polyline points="512.6403,368.6402 512.6403,368.6402 512.6403,368.6402 511.6803,368.6402 511.6803,368.6402 510.7203,368.6402 510.7203,367.6802 509.7603,367.6802 509.7603,367.6802 509.7603,366.7202 509.7603,366.7202 509.7603,366.7202 509.7603,365.7602 509.7603,365.7602 509.7603,365.7602 509.7603,364.8002 509.7603,364.8002 510.7203,362.8802 510.7203,362.8802 510.7203,362.8802 510.7203,362.8802 510.7203,362.8802 510.7203,361.9202 510.7203,361.9202 510.7203,360.9602 511.6803,360.9602 511.6803,360.0002 512.6403,360.0002 513.6003,360.0002 513.6003,360.0002 513.6003,360.0002 513.6003,360.0002 513.6003,360.0002 514.5603,360.0002 514.5603,360.0002 514.5603,360.0002 515.5203,360.0002 515.5203,360.0002 515.5203,360.0002 516.4803,360.0002 516.4803,359.0402 516.4803,360.0002 516.4803,359.0402 516.4803,359.0402 516.4803,359.0402 516.4803,359.0402 517.4403,359.0402 517.4403,359.0402 517.4403,359.0402 517.4403,359.0402 517.4403,359.0402 517.4403,359.0402 518.4003,359.0402 518.4003,359.0402 518.4003,359.0402 518.4003,359.0402 518.4003,359.0402 519.3603,359.0402 519.3603,359.0402 519.3603,359.0402 519.3603,359.0402 519.3603,359.0402 520.3203,359.0402 520.3203,359.0402 520.3203,359.0402 520.3203,359.0402 520.3203,359.0402 521.2803,359.0402 521.2803,359.0402 521.2803,359.0402 521.2803,359.0402 522.2403,359.0402 522.2403,359.0402 522.2403,359.0402 522.2403,359.0402 522.2403,359.0402 522.2403,359.0402 522.2403,359.0402 523.2003,359.0402 523.2003,359.0402 523.2003,359.0402 523.2003,359.0402 523.2003,359.0402 524.1603,359.0402 524.1603,359.0402 524.1603,359.0402 524.1603,359.0402 524.1603,359.0402 524.1603,359.0402 524.1603,360.0002 525.1203,359.0402 525.1203,359.0402 525.1203,359.0402 525.1203,359.0402 525.1203,359.0402 526.0803,359.0402 526.0803,359.0402 526.0803,359.0402 526.0803,359.0402 526.0803,358.0802 526.0803,358.0802 527.0403,358.0802 527.0403,358.0802 527.0403,358.0802 527.0403,358.0802 527.0403,357.1202 528.0003,357.1202 528.0003,357.1202 528.0003,357.1202 528.0003,357.1202 528.0003,357.1202 528.0003,357.1202 528.0003,357.1202 528.0003,357.1202 528.0003,356.1602 528.9603,356.1602 528.9603,356.1602 528.9603,356.1602 528.9603,356.1602 528.9603,355.2002 528.9603,355.2002 528.9603,355.2002 528.9603,355.2002 528.9603,355.2002 528.9603,354.2402 528.9603,354.2402 528.9603,354.2402 528.9603,354.2402 528.0003,354.2402 528.0003,353.2802 528.0003,353.2802 528.0003,353.2802 528.0003,353.2802 528.0003,352.3202 528.0003,352.3202 528.9603,352.3202 528.9603,352.3202 528.9603,352.3202 528.9603,352.3202 528.9603,352.3202 528.9603,351.3602 528.9603,351.3602 528.0003,351.3602 528.9603,350.4002 528.9603,350.4002 528.9603,350.4002 528.9603,350.4002 528.9603,350.4002 528.9603,350.4002 528.9603,349.4402 529.9203,349.4402 529.9203,349.4402 529.9203,349.4402 529.9203,349.4402 529.9203,349.4402 529.9203,349.4402 529.9203,349.4402 528.9603,348.4802 528.9603,348.4802 528.9603,347.5202 528.9603,347.5202 528.9603,347.5202 528.9603,347.5202 528.9603,347.5202 528.9603,347.5202 528.9603,347.5202 528.9603,346.5602 528.9603,346.5602 528.9603,346.5602 528.9603,346.5602 528.9603,346.5602 528.9603,345.6002 528.0003,345.6002 528.0003,345.6002 528.0003,345.6002 528.0003,345.6002 528.0003,345.6002 528.0003,344.6402 528.0003,344.6402 527.0403,344.6402 527.0403,344.6402 527.0403,344.6402 527.0403,343.6802 527.0403,343.6802 527.0403,343.6802 527.0403,343.6802 527.0403,343.6802 527.0403,342.7202 526.0803,342.7202 526.0803,342.7202 526.0803,342.7202 526.0803,342.7202 526.0803,342.7202 526.0803,342.7202 525.1203,341.7602 525.1203,341.7602 525.1203,341.7602 525.1203,341.7602 525.1203,341.7602 525.1203,340.8002 525.1203,340.8002 525.1203,340.8002 525.1203,340.8002 525.1203,339.8402 525.1203,339.8402 525.1203,339.8402 525.1203,339.8402 525.1203,338.8802 525.1203,338.8802 525.1203,338.8802 525.1203,338.8802 525.1203,337.9202 525.1203,337.9202 525.1203,337.9202 525.1203,337.9202 525.1203,336.9602 525.1203,336.9602 525.1203,336.9602 525.1203,336.9602 525.1203,336.9602 525.1203,336.9602 525.1203,336.0002 525.1203,336.0002 525.1203,336.0002 525.1203,336.0002 525.1203,335.0402 525.1203,335.0402 525.1203,335.0402 525.1203,335.0402 525.1203,334.0802 525.1203,334.0802 525.1203,334.0802 525.1203,335.0402 526.0803,334.0802 526.0803,334.0802 526.0803,333.1202 526.0803,333.1202 526.0803,333.1202 526.0803,332.1602 527.0403,332.1602 527.0403,332.1602 527.0403,332.1602 527.0403,332.1602 527.0403,332.1602 527.0403,331.2002 527.0403,331.2002 527.0403,331.2002 527.0403,331.2002 528.0003,331.2002 528.0003,331.2002 528.0003,330.2402 528.0003,330.2402 528.0003,330.2402 528.0003,330.2402 528.0003,330.2402 528.9603,330.2402 528.9603,330.2402 528.9603,329.2802 528.9603,329.2802 528.9603,329.2802 528.9603,329.2802 528.9603,329.2802 528.9603,328.3202 528.9603,328.3202 528.9603,328.3202 528.9603,328.3202 528.9603,327.3602 528.9603,327.3602 528.9603,327.3602 528.0003,327.3602 528.0003,327.3602 528.0003,327.3602 528.9603,326.4002 528.9603,326.4002 528.9603,326.4002 528.9603,326.4002 528.9603,325.4402 528.9603,325.4402 528.9603,325.4402 528.9603,325.4402 528.9603,325.4402 528.9603,325.4402 528.9603,325.4402 528.0003,324.4802 527.0403,323.5202 527.0403,323.5202 527.0403,323.5202 527.0403,323.5202 527.0403,323.5202 527.0403,323.5202 526.0803,323.5202 526.0803,323.5202 526.0803,323.5202 526.0803,323.5202 526.0803,323.5202 525.1203,323.5202 525.1203,323.5202 525.1203,323.5202 525.1203,322.5602 525.1203,322.5602 525.1203,322.5602 525.1203,322.5602 525.1203,322.5602 525.1203,321.6002 524.1603,321.6002 524.1603,321.6002 524.1603,321.6002 524.1603,321.6002 524.1603,321.6002 524.1603,321.6002 523.2003,320.6402 523.2003,320.6402 523.2003,320.6402 523.2003,320.6402 523.2003,320.6402 523.2003,319.6802 523.2003,319.6802 524.1603,319.6802 524.1603,319.6802 524.1603,319.6802 524.1603,318.7202 524.1603,318.7202 524.1603,318.7202 524.1603,318.7202 524.1603,318.7202 524.1603,318.7202 525.1203,317.7602 525.1203,317.7602 525.1203,317.7602 525.1203,317.7602 525.1203,317.7602 525.1203,317.7602 525.1203,316.8002 525.1203,316.8002 525.1203,316.8002 525.1203,316.8002 525.1203,316.8002 526.0803,315.8402 526.0803,315.8402 525.1203,315.8402 525.1203,315.8402 525.1203,315.8402 525.1203,314.8802 525.1203,314.8802 525.1203,314.8802 525.1203,314.8802 525.1203,314.8802 524.1603,313.9202 524.1603,313.9202 524.1603,313.9202 524.1603,313.9202 524.1603,313.9202 524.1603,313.9202 524.1603,312.9602 524.1603,312.9602 524.1603,312.9602 524.1603,312.9602 524.1603,312.0002 524.1603,312.0002 525.1203,312.0002 525.1203,312.0002 525.1203,311.0402 524.1603,311.0402 524.1603,311.0402 525.1203,311.0402 525.1203,311.0402 525.1203,311.0402 525.1203,311.0402 525.1203,310.0802 525.1203,310.0802 525.1203,310.0802 525.1203,310.0802 525.1203,310.0802 525.1203,309.1202 525.1203,309.1202 525.1203,309.1202 525.1203,309.1202 525.1203,309.1202 526.0803,309.1202 525.1203,309.1202 525.1203,308.1602 526.0803,308.1602 526.0803,307.2002 526.0803,307.2002 526.0803,307.2002 526.0803,307.2002 526.0803,306.2402 526.0803,306.2402 526.0803,306.2402 526.0803,306.2402 526.0803,305.2802 526.0803,305.2802 526.0803,305.2802 526.0803,305.2802 526.0803,305.2802 526.0803,304.3202 526.0803,304.3202 526.0803,304.3202 526.0803,304.3202 526.0803,304.3202 526.0803,303.3602 526.0803,303.3602 526.0803,303.3602 526.0803,303.3602 526.0803,303.3602 526.0803,302.4002 526.0803,302.4002 526.0803,302.4002 526.0803,302.4002 526.0803,302.4002 526.0803,302.4002 526.0803,301.4402 526.0803,301.4402 526.0803,301.4402 526.0803,301.4402 526.0803,301.4402 526.0803,301.4402 526.0803,300.4802 526.0803,300.4802 526.0803,300.4802 526.0803,299.5202 526.0803,299.5202 526.0803,299.5202 526.0803,299.5202 526.0803,299.5202 526.0803,299.5202 526.0803,299.5202 527.0403,297.6002 527.0403,297.6002 527.0403,297.6002 528.0003,297.6002 528.0003,297.6002 528.0003,296.6402 528.0003,296.6402 528.0003,296.6402 528.0003,296.6402 528.0003,296.6402 528.0003,295.6802 528.0003,295.6802 528.0003,295.6802 528.0003,295.6802 528.9603,295.6802 528.9603,294.7202 528.9603,294.7202 528.9603,294.7202 528.9603,294.7202 529.9203,294.7202 529.9203,294.7202 529.9203,293.7602 529.9203,293.7602 529.9203,293.7602 529.9203,293.7602 529.9203,292.8002 529.9203,292.8002 530.8803,292.8002 530.8803,292.8002 530.8803,292.8002 530.8803,291.8402 530.8803,291.8402 530.8803,291.8402 530.8803,291.8402 530.8803,290.8802 530.8803,290.8802 530.8803,290.8802 530.8803,290.8802 530.8803,289.9202 530.8803,289.9202 530.8803,289.9202 530.8803,289.9202 530.8803,288.9602 530.8803,288.9602 530.8803,288.9602 530.8803,288.9602 531.8403,288.0002 531.8403,288.0002 531.8403,288.0002 531.8403,287.0402 531.8403,287.0402 531.8403,287.0402 531.8403,287.0402 531.8403,287.0402 531.8403,286.0802 531.8403,286.0802 531.8403,286.0802 531.8403,286.0802 532.8003,286.0802 532.8003,285.1202 532.8003,285.1202 532.8003,285.1202 532.8003,284.1602 532.8003,284.1602 532.8003,284.1602 532.8003,284.1602 532.8003,284.1602 532.8003,283.2002 532.8003,283.2002 533.7603,283.2002 533.7603,283.2002 533.7603,282.2402 533.7603,282.2402 533.7603,282.2402 533.7603,282.2402 533.7603,282.2402 533.7603,282.2402 533.7603,282.2402 533.7603,282.2402 533.7603,282.2402 534.7203,282.2402 534.7203,282.2402 534.7203,282.2402 534.7203,282.2402 535.6803,282.2402 535.6803,282.2402 535.6803,282.2402 535.6803,282.2402 536.6403,282.2402 536.6403,282.2402 536.6403,282.2402 536.6403,282.2402 536.6403,282.2402 537.6003,282.2402 537.6003,282.2402 537.6003,282.2402 537.6003,283.2002 538.5603,283.2002 538.5603,283.2002 538.5603,283.2002 538.5603,283.2002 539.5203,283.2002 539.5203,283.2002 539.5203,283.2002 539.5203,283.2002 539.5203,283.2002 539.5203,283.2002 540.4803,283.2002 540.4803,283.2002 540.4803,283.2002 540.4803,283.2002 541.4403,283.2002 541.4403,283.2002 541.4403,283.2002 541.4403,283.2002 541.4403,283.2002 543.3603,283.2002 543.3603,283.2002 543.3603,283.2002 543.3603,283.2002 543.3603,283.2002 544.3203,283.2002 544.3203,283.2002 544.3203,283.2002 544.3203,282.2402 545.2803,283.2002 545.2803,283.2002 545.2803,283.2002 545.2803,283.2002 545.2803,283.2002 546.2403,283.2002 546.2403,283.2002 546.2403,283.2002 546.2403,283.2002 546.2403,283.2002 547.2003,283.2002 547.2003,283.2002 547.2003,283.2002 547.2003,283.2002 548.1603,283.2002 548.1603,283.2002 548.1603,282.2402 548.1603,283.2002 549.1203,282.2402 549.1203,282.2402 549.1203,282.2402 549.1203,282.2402 550.0803,282.2402 550.0803,282.2402 550.0803,283.2002 550.0803,283.2002 550.0803,283.2002 551.0403,282.2402 551.0403,282.2402 551.0403,282.2402 551.0403,282.2402 551.0403,282.2402 551.0403,282.2402 551.0403,282.2402 552.0003,281.2802 552.0003,281.2802 552.0003,281.2802 552.9603,281.2802 552.9603,281.2802 552.9603,281.2802 552.9603,281.2802 553.9203,281.2802 553.9203,281.2802 553.9203,281.2802 553.9203,281.2802 554.8803,281.2802 554.8803,281.2802 554.8803,281.2802 554.8803,281.2802 555.8403,281.2802 555.8403,281.2802 555.8403,280.3202 555.8403,280.3202 555.8403,280.3202 555.8403,280.3202 556.8003,280.3202 556.8003,280.3202 556.8003,280.3202 556.8003,280.3202 557.7603,280.3202 557.7603,280.3202 557.7603,281.2802 557.7603,281.2802 558.7203,280.3202 558.7203,280.3202 558.7203,280.3202 558.7203,280.3202 558.7203,281.2802 559.6803,281.2802 559.6803,281.2802 559.6803,281.2802 559.6803,281.2802 559.6803,281.2802 560.6403,281.2802 560.6403,281.2802 560.6403,281.2802 560.6403,281.2802 560.6403,281.2802 561.6003,281.2802 561.6003,281.2802 561.6003,281.2802 561.6003,281.2802 562.5603,281.2802 562.5603,281.2802 562.5603,281.2802 562.5603,281.2802 563.5203,281.2802 563.5203,282.2402 563.5203,282.2402 563.5203,281.2802 563.5203,281.2802 564.4803,281.2802 564.4803,281.2802 564.4803,281.2802 564.4803,281.2802 565.4403,281.2802 565.4403,281.2802 565.4403,281.2802 565.4403,281.2802 566.4003,281.2802 566.4003,281.2802 566.4003,281.2802 566.4003,281.2802 567.3603,281.2802 567.3603,281.2802 567.3603,281.2802 567.3603,281.2802 568.3203,281.2802 568.3203,281.2802 568.3203,281.2802 568.3203,281.2802 569.2803,281.2802 569.2803,280.3202 569.2803,280.3202 569.2803,280.3202 569.2803,280.3202 570.2403,280.3202 570.2403,280.3202 570.2403,280.3202 570.2403,280.3202 571.2003,280.3202 571.2003,280.3202 571.2003,280.3202 571.2003,280.3202 572.1603,280.3202 572.1603,280.3202 572.1603,280.3202 572.1603,280.3202 572.1603,280.3202 573.1203,280.3202 573.1203,280.3202 573.1203,280.3202 573.1203,280.3202 574.0803,280.3202 574.0803,280.3202 574.0803,280.3202 574.0803,280.3202 574.0803,280.3202 575.0403,280.3202 575.0403,281.2802 575.0403,281.2802 575.0403,281.2802 575.0403,281.2802 576.0003,281.2802 576.0003,281.2802 576.0003,281.2802 576.0003,281.2802 576.9603,282.2402 576.9603,282.2402 576.9603,282.2402 576.9603,282.2402 576.9603,282.2402 577.9203,282.2402 577.9203,282.2402 577.9203,282.2402 577.9203,282.2402 577.9203,282.2402 578.8803,282.2402 578.8803,283.2002 578.8803,283.2002 578.8803,283.2002 578.8803,283.2002 579.8403,283.2002 579.8403,283.2002 579.8403,284.1602 579.8403,284.1602 579.8403,284.1602 580.8003,284.1602 580.8003,284.1602 580.8003,284.1602 580.8003,284.1602 580.8003,284.1602 580.8003,284.1602 580.8003,284.1602 581.7603,285.1202 581.7603,285.1202 581.7603,285.1202 581.7603,285.1202 581.7603,285.1202 581.7603,285.1202 581.7603,285.1202 581.7603,285.1202 582.7203,285.1202 582.7203,286.0802 582.7203,286.0802 582.7203,285.1202 582.7203,286.0802 583.6803,286.0802 583.6803,286.0802 583.6803,286.0802 583.6803,286.0802 583.6803,286.0802 584.6403,286.0802 584.6403,286.0802 584.6403,287.0402 584.6403,286.0802 584.6403,286.0802 585.6003,286.0802 585.6003,286.0802 585.6003,286.0802 585.6003,287.0402 585.6003,286.0802 587.5203,286.0802 587.5203,286.0802 587.5203,286.0802 587.5203,286.0802 587.5203,286.0802 587.5203,287.0402 587.5203,287.0402 587.5203,287.0402 587.5203,287.0402 587.5203,287.0402 587.5203,288.0002 587.5203,288.0002 587.5203,288.0002 587.5203,288.0002 587.5203,288.0002 587.5203,288.0002 588.4803,288.9602 588.4803,288.9602 588.4803,288.9602 588.4803,288.9602 588.4803,288.9602 589.4403,288.9602 589.4403,288.9602 589.4403,288.9602 589.4403,288.9602 589.4403,288.9602 589.4403,289.9202 590.4003,289.9202 590.4003,289.9202 590.4003,289.9202 590.4003,289.9202 590.4003,289.9202 591.3603,289.9202 591.3603,289.9202 591.3603,289.9202 591.3603,290.8802 591.3603,290.8802 591.3603,290.8802 591.3603,290.8802 591.3603,290.8802 593.2803,291.8402 593.2803,291.8402 593.2803,291.8402 593.2803,291.8402 593.2803,291.8402 593.2803,292.8002 594.2403,292.8002 594.2403,292.8002 594.2403,292.8002 594.2403,292.8002 594.2403,292.8002 595.2003,292.8002 595.2003,292.8002 595.2003,293.7602 595.2003,293.7602 595.2003,293.7602 595.2003,293.7602 596.1603,293.7602 596.1603,293.7602 596.1603,293.7602 596.1603,293.7602 596.1603,293.7602 597.1203,293.7602 596.1603,293.7602 597.1203,293.7602 598.0803,293.7602 598.0803,293.7602 598.0803,293.7602 598.0803,293.7602 599.0403,292.8002 599.0403,292.8002 599.0403,292.8002 599.0403,292.8002 599.0403,292.8002 599.0403,292.8002 599.0403,292.8002 600.0003,292.8002 600.0003,292.8002 600.0003,291.8402 600.0003,291.8402 600.0003,291.8402 600.9603,291.8402 600.9603,291.8402 600.9603,291.8402 600.9603,291.8402 600.9603,291.8402 601.9203,291.8402 601.9203,291.8402 601.9203,290.8802 601.9203,291.8402 602.8803,291.8402 602.8803,290.8802 602.8803,290.8802 602.8803,290.8802 603.8403,290.8802 603.8403,290.8802 603.8403,290.8802 603.8403,290.8802 603.8403,290.8802 604.8003,290.8802 604.8003,290.8802 604.8003,290.8802 604.8003,290.8802 605.7603,290.8802 605.7603,290.8802 605.7603,290.8802 605.7603,290.8802 605.7603,291.8402 605.7603,290.8802 605.7603,291.8402 606.7203,291.8402 606.7203,291.8402 606.7203,291.8402 606.7203,291.8402 606.7203,290.8802 607.6803,290.8802 607.6803,290.8802 607.6803,290.8802 607.6803,290.8802 607.6803,290.8802 608.6403,290.8802 608.6403,290.8802 608.6403,290.8802 608.6403,290.8802 608.6403,290.8802 609.6003,290.8802 609.6003,290.8802 609.6003,289.9202 609.6003,289.9202 609.6003,289.9202 609.6003,289.9202 609.6003,289.9202 609.6003,289.9202 609.6003,289.9202 610.5603,288.9602 610.5603,288.9602 610.5603,288.9602 611.5203,288.9602 611.5203,288.9602 611.5203,288.9602 611.5203,288.9602 611.5203,288.9602 612.4803,288.9602 612.4803,288.9602 612.4803,288.9602 612.4803,288.9602 612.4803,288.9602 613.4403,288.9602 613.4403,288.9602 613.4403,289.9202 613.4403,289.9202 614.4003,289.9202 614.4003,289.9202 614.4003,289.9202 614.4003,289.9202 614.4003,289.9202 615.3603,290.8802 615.3603,290.8802 615.3603,290.8802 615.3603,290.8802 615.3603,290.8802 615.3603,290.8802 615.3603,290.8802 616.3203,290.8802 616.3203,289.9202 616.3203,289.9202 616.3203,289.9202 616.3203,289.9202 616.3203,289.9202 617.2803,289.9202 617.2803,289.9202 617.2803,289.9202 617.2803,289.9202 617.2803,289.9202 618.2403,289.9202 618.2403,289.9202 618.2403,289.9202 618.2403,289.9202 618.2403,289.9202 619.2003,289.9202 619.2003,289.9202 619.2003,289.9202 619.2003,289.9202 620.1603,289.9202 620.1603,289.9202 620.1603,289.9202 620.1603,289.9202 620.1603,289.9202 622.0803,289.9202 622.0803,289.9202 622.0803,290.8802 622.0803,290.8802 622.0803,290.8802 622.0803,290.8802 622.0803,290.8802 623.0403,290.8802 623.0403,290.8802 623.0403,290.8802 623.0403,290.8802 623.0403,290.8802 623.0403,290.8802 624.0003,291.8402 624.0003,291.8402 624.0003,291.8402 624.0003,291.8402 624.0003,291.8402 624.0003,291.8402 624.9603,291.8402 624.0003,291.8402 624.9603,291.8402 624.9603,291.8402 625.9203,292.8002 625.9203,291.8402 624.9603,291.8402 625.9203,291.8402 625.9203,291.8402 625.9203,292.8002 625.9203,292.8002 625.9203,292.8002 625.9203,292.8002 625.9203,292.8002 626.8803,292.8002 626.8803,292.8002 626.8803,292.8002 626.8803,292.8002 627.8403,292.8002 627.8403,292.8002 627.8403,292.8002 627.8403,291.8402 627.8403,291.8402 627.8403,291.8402 628.8003,291.8402 628.8003,291.8402 628.8003,291.8402 628.8003,291.8402 628.8003,291.8402 629.7603,292.8002 629.7603,293.7602 629.7603,293.7602 629.7603,293.7602 630.7203,293.7602 630.7203,293.7602 630.7203,293.7602 630.7203,293.7602 631.6803,293.7602 631.6803,293.7602 632.6403,293.7602 632.6403,293.7602 632.6403,293.7602 632.6403,293.7602 632.6403,292.8002 632.6403,292.8002 632.6403,292.8002 632.6403,292.8002 632.6403,292.8002 632.6403,291.8402 633.6003,292.8002 633.6003,292.8002 633.6003,292.8002 633.6003,292.8002 634.5603,292.8002 634.5603,292.8002 634.5603,292.8002 634.5603,292.8002 634.5603,293.7602 635.5203,293.7602 635.5203,293.7602 635.5203,293.7602 635.5203,293.7602 635.5203,293.7602 636.4803,293.7602 636.4803,293.7602 636.4803,293.7602 636.4803,294.7202 636.4803,294.7202 636.4803,294.7202 637.4403,294.7202 637.4403,294.7202 637.4403,294.7202 637.4403,294.7202 637.4403,294.7202 637.4403,294.7202 637.4403,294.7202 638.4003,294.7202 638.4003,295.6802 638.4003,295.6802 638.4003,295.6802 638.4003,295.6802 639.3603,295.6802 639.3603,295.6802 639.3603,295.6802 639.3603,295.6802 640.3203,295.6802 640.3203,294.7202 640.3203,295.6802 640.3203,295.6802 640.3203,295.6802 641.2803,295.6802 641.2803,295.6802 641.2803,295.6802 641.2803,295.6802 642.2403,295.6802 642.2403,295.6802 642.2403,295.6802 642.2403,295.6802 642.2403,295.6802 642.2403,295.6802 642.2403,295.6802 643.2003,295.6802 643.2003,295.6802 643.2003,295.6802 643.2003,295.6802 644.1603,295.6802 644.1603,295.6802 644.1603,295.6802 644.1603,295.6802 644.1603,294.7202 644.1603,294.7202 644.1603,294.7202 644.1603,294.7202 644.1603,294.7202 645.1203,294.7202 645.1203,294.7202 645.1203,294.7202 645.1203,294.7202 645.1203,295.6802 646.0803,295.6802 646.0803,295.6802 646.0803,295.6802 646.0803,295.6802 646.0803,295.6802 646.0803,296.6402 647.0403,296.6402 647.0403,296.6402 647.0403,296.6402 647.0403,296.6402 647.0403,296.6402 647.0403,296.6402 648.0003,296.6402 648.0003,296.6402 648.0003,296.6402 648.0003,296.6402 648.9604,296.6402 648.9604,296.6402 648.9604,296.6402 648.9604,297.6002 648.9604,297.6002 648.9604,297.6002 648.9604,297.6002 648.9604,297.6002 649.9204,297.6002 648.9604,298.5602 649.9204,298.5602 649.9204,298.5602 649.9204,298.5602 649.9204,298.5602 649.9204,299.5202 649.9204,299.5202 649.9204,299.5202 649.9204,299.5202 649.9204,299.5202 649.9204,299.5202 649.9204,299.5202 649.9204,299.5202 650.8804,300.4802 650.8804,300.4802 650.8804,300.4802 649.9204,300.4802 649.9204,301.4402 649.9204,301.4402 649.9204,301.4402 649.9204,301.4402 651.8404,299.5202 652.8004,300.4802 652.8004,300.4802 652.8004,300.4802 652.8004,300.4802 652.8004,300.4802 653.7604,300.4802 653.7604,300.4802 653.7604,300.4802 653.7604,300.4802 653.7604,300.4802 653.7604,300.4802 654.7204,301.4402 654.7204,301.4402 654.7204,301.4402 654.7204,301.4402 654.7204,301.4402 654.7204,301.4402 654.7204,301.4402 654.7204,302.4002 654.7204,302.4002 654.7204,302.4002 654.7204,302.4002 654.7204,302.4002 654.7204,303.3602 654.7204,303.3602 654.7204,303.3602 654.7204,303.3602 654.7204,303.3602 654.7204,304.3202 655.6804,304.3202 655.6804,304.3202 655.6804,304.3202 655.6804,304.3202 655.6804,304.3202 655.6804,304.3202 655.6804,304.3202 655.6804,304.3202 656.6404,305.2802 656.6404,305.2802 656.6404,305.2802 656.6404,305.2802 656.6404,305.2802 656.6404,305.2802 656.6404,305.2802 656.6404,305.2802 656.6404,307.2002 656.6404,308.1602 656.6404,308.1602 656.6404,308.1602 656.6404,308.1602 656.6404,308.1602 656.6404,308.1602 656.6404,308.1602 656.6404,310.0802 656.6404,310.0802 657.6004,310.0802 657.6004,310.0802 657.6004,310.0802 657.6004,311.0402 657.6004,311.0402 657.6004,311.0402 657.6004,311.0402 658.5604,311.0402 658.5604,311.0402 658.5604,311.0402 658.5604,311.0402 658.5604,311.0402 659.5204,311.0402 659.5204,311.0402 659.5204,311.0402 659.5204,311.0402 659.5204,312.0002 659.5204,312.0002 659.5204,312.0002 659.5204,312.0002 659.5204,312.0002 659.5204,312.0002 660.4804,312.0002 660.4804,312.0002 660.4804,312.0002 660.4804,312.0002 660.4804,312.9602 660.4804,312.9602 661.4404,312.9602 661.4404,312.9602 661.4404,312.9602 661.4404,313.9202 661.4404,313.9202 661.4404,313.9202 661.4404,313.9202 661.4404,313.9202 661.4404,314.8802 661.4404,314.8802 661.4404,314.8802 661.4404,314.8802 661.4404,314.8802 661.4404,315.8402 662.4004,315.8402 661.4404,315.8402 661.4404,315.8402 661.4404,315.8402 661.4404,315.8402 662.4004,317.7602 662.4004,317.7602 662.4004,317.7602 662.4004,317.7602 662.4004,317.7602 662.4004,317.7602 662.4004,318.7202 662.4004,318.7202 662.4004,318.7202 663.3604,318.7202 663.3604,318.7202 663.3604,319.6802 663.3604,319.6802 663.3604,319.6802 663.3604,319.6802 663.3604,319.6802 663.3604,319.6802 664.3204,321.6002 664.3204,321.6002 665.2804,321.6002 664.3204,321.6002 665.2804,321.6002 665.2804,321.6002 665.2804,323.5202 665.2804,323.5202 665.2804,323.5202 665.2804,324.4802 666.2404,324.4802 666.2404,324.4802 666.2404,324.4802 666.2404,324.4802 666.2404,324.4802 666.2404,325.4402 666.2404,325.4402 667.2004,325.4402 667.2004,325.4402 667.2004,325.4402 667.2004,325.4402 667.2004,325.4402 667.2004,326.4002 667.2004,326.4002 667.2004,326.4002 668.1604,326.4002 668.1604,327.3602 668.1604,327.3602 668.1604,327.3602 668.1604,327.3602 669.1204,327.3602 669.1204,327.3602 669.1204,328.3202 669.1204,328.3202 669.1204,328.3202 669.1204,328.3202 670.0804,328.3202 670.0804,328.3202 670.0804,328.3202 670.0804,329.2802 670.0804,329.2802 670.0804,329.2802 670.0804,329.2802 671.0404,329.2802 671.0404,329.2802 671.0404,330.2402 671.0404,330.2402 671.0404,330.2402 671.0404,330.2402 672.0004,330.2402 672.0004,330.2402 672.0004,330.2402 672.0004,331.2002 672.0004,331.2002 672.0004,331.2002 672.0004,331.2002 672.0004,331.2002 672.0004,331.2002 672.0004,332.1602 672.0004,332.1602 672.9604,332.1602 672.9604,332.1602 672.9604,332.1602 672.9604,332.1602 672.9604,332.1602 673.9204,333.1202 673.9204,333.1202 673.9204,333.1202 673.9204,333.1202 673.9204,333.1202 673.9204,333.1202 673.9204,333.1202 673.9204,333.1202 674.8804,334.0802 674.8804,334.0802 674.8804,334.0802 674.8804,334.0802 675.8404,334.0802 675.8404,335.0402 675.8404,335.0402 675.8404,335.0402 675.8404,335.0402 675.8404,335.0402 675.8404,336.0002 675.8404,336.0002 675.8404,336.0002 675.8404,336.0002 675.8404,336.0002 675.8404,336.0002 675.8404,336.9602 675.8404,336.9602 675.8404,336.9602 676.8004,336.9602 676.8004,336.9602 676.8004,337.9202 676.8004,337.9202 676.8004,337.9202 676.8004,337.9202 676.8004,337.9202 676.8004,338.8802 676.8004,338.8802 676.8004,338.8802 676.8004,338.8802 676.8004,338.8802 676.8004,339.8402 677.7604,339.8402 677.7604,339.8402 677.7604,339.8402 677.7604,339.8402 677.7604,340.8002 677.7604,340.8002 677.7604,340.8002 677.7604,340.8002 677.7604,340.8002 677.7604,341.7602 677.7604,341.7602 677.7604,341.7602 677.7604,341.7602 677.7604,341.7602 678.7204,341.7602 678.7204,342.7202 678.7204,342.7202 678.7204,342.7202 678.7204,342.7202 678.7204,343.6802 678.7204,343.6802 678.7204,343.6802 678.7204,343.6802 678.7204,343.6802 678.7204,344.6402 679.6804,343.6802 679.6804,343.6802 679.6804,343.6802 679.6804,344.6402 679.6804,344.6402 679.6804,344.6402 680.6404,344.6402 680.6404,344.6402 680.6404,345.6002 680.6404,345.6002 680.6404,345.6002 680.6404,345.6002 680.6404,345.6002 681.6004,345.6002 681.6004,345.6002 681.6004,346.5602 681.6004,346.5602 681.6004,346.5602 681.6004,346.5602 681.6004,346.5602 681.6004,347.5202 681.6004,347.5202 681.6004,347.5202 682.5604,347.5202 682.5604,347.5202 682.5604,347.5202 682.5604,347.5202 682.5604,347.5202 683.5204,347.5202 683.5204,347.5202 683.5204,347.5202 683.5204,347.5202 684.4804,347.5202 684.4804,348.4802 684.4804,348.4802 684.4804,348.4802 684.4804,348.4802 684.4804,348.4802 684.4804,349.4402 684.4804,349.4402 684.4804,349.4402 684.4804,349.4402 684.4804,350.4002 684.4804,350.4002 684.4804,350.4002 684.4804,350.4002 684.4804,350.4002 684.4804,350.4002 684.4804,351.3602 685.4404,351.3602 685.4404,351.3602 685.4404,351.3602 685.4404,351.3602 685.4404,351.3602 685.4404,351.3602 685.4404,351.3602 685.4404,352.3202 685.4404,352.3202 685.4404,352.3202 685.4404,352.3202 685.4404,352.3202 685.4404,353.2802 685.4404,353.2802 686.4004,353.2802 686.4004,353.2802 686.4004,353.2802 685.4404,354.2402 685.4404,354.2402 685.4404,354.2402 685.4404,354.2402 685.4404,354.2402 685.4404,355.2002 686.4004,355.2002 686.4004,355.2002 686.4004,355.2002 686.4004,355.2002 685.4404,356.1602 685.4404,356.1602 685.4404,356.1602 685.4404,356.1602 685.4404,356.1602 685.4404,356.1602 685.4404,356.1602 685.4404,357.1202 685.4404,357.1202 685.4404,357.1202 685.4404,357.1202 685.4404,357.1202 685.4404,358.0802 685.4404,358.0802 686.4004,358.0802 686.4004,358.0802 686.4004,359.0402 686.4004,359.0402 686.4004,359.0402 687.3604,359.0402 687.3604,359.0402 687.3604,359.0402 687.3604,359.0402 688.3204,360.0002 688.3204,360.0002 688.3204,360.0002 688.3204,360.0002 688.3204,360.0002 689.2804,360.0002 689.2804,360.9602 689.2804,360.9602 689.2804,360.9602 689.2804,360.9602 690.2404,360.9602 690.2404,360.9602 690.2404,360.9602 690.2404,360.9602 690.2404,360.9602 691.2004,360.9602 691.2004,360.9602 691.2004,360.9602 691.2004,360.9602 691.2004,360.9602 692.1604,360.9602 692.1604,361.9202 692.1604,361.9202 692.1604,361.9202 692.1604,361.9202 692.1604,361.9202 692.1604,361.9202 693.1204,361.9202 693.1204,361.9202 693.1204,361.9202 693.1204,361.9202 694.0804,361.9202 694.0804,361.9202 694.0804,361.9202 695.0404,361.9202 695.0404,361.9202 695.0404,361.9202 695.0404,361.9202 695.0404,361.9202 695.0404,361.9202 696.0004,362.8802 696.0004,362.8802 696.0004,362.8802 696.0004,362.8802 696.0004,362.8802 696.0004,362.8802 696.9604,362.8802 696.9604,363.8402 696.9604,363.8402 696.9604,363.8402 696.9604,363.8402 696.9604,363.8402 697.9204,363.8402 697.9204,363.8402 697.9204,363.8402 697.9204,363.8402 698.8804,363.8402 698.8804,363.8402 698.8804,363.8402 698.8804,363.8402 698.8804,363.8402 699.8404,363.8402 699.8404,362.8802 699.8404,362.8802 699.8404,363.8402 699.8404,363.8402 699.8404,363.8402 700.8004,363.8402 700.8004,363.8402 700.8004,363.8402 700.8004,363.8402 700.8004,363.8402 700.8004,363.8402 701.7604,363.8402 701.7604,363.8402 701.7604,364.8002 701.7604,364.8002 701.7604,364.8002 702.7204,364.8002 702.7204,364.8002 702.7204,364.8002 702.7204,364.8002 702.7204,364.8002 703.6804,363.8402 703.6804,363.8402 703.6804,363.8402 703.6804,363.8402 703.6804,363.8402 704.6404,363.8402 704.6404,363.8402 704.6404,363.8402 704.6404,363.8402 704.6404,363.8402 705.6004,363.8402 705.6004,363.8402 705.6004,363.8402 705.6004,363.8402 705.6004,363.8402 706.5604,363.8402 706.5604,363.8402 706.5604,363.8402 706.5604,363.8402 706.5604,364.8002 706.5604,364.8002 706.5604,364.8002 706.5604,364.8002 707.5204,364.8002 707.5204,364.8002 707.5204,365.7602 707.5204,365.7602 707.5204,365.7602 707.5204,365.7602 707.5204,365.7602 708.4804,365.7602 708.4804,366.7202 708.4804,366.7202 708.4804,366.7202 708.4804,366.7202 708.4804,366.7202 708.4804,366.7202 708.4804,366.7202 709.4404,366.7202 709.4404,366.7202 709.4404,366.7202 709.4404,366.7202 709.4404,367.6802 709.4404,367.6802 709.4404,367.6802 709.4404,367.6802 709.4404,367.6802 710.4004,366.7202 711.3604,366.7202 711.3604,366.7202 711.3604,367.6802 711.3604,367.6802 711.3604,367.6802 711.3604,367.6802 711.3604,367.6802 711.3604,367.6802 711.3604,367.6802 713.2804,368.6402 713.2804,368.6402 713.2804,368.6402 713.2804,368.6402 713.2804,368.6402 713.2804,368.6402 713.2804,368.6402 715.2004,369.6002 715.2004,369.6002 715.2004,369.6002 716.1604,369.6002 716.1604,368.6402 716.1604,368.6402 716.1604,368.6402 716.1604,368.6402 716.1604,368.6402 716.1604,368.6402 716.1604,368.6402 718.0804,369.6002 718.0804,369.6002 718.0804,369.6002 718.0804,369.6002 718.0804,369.6002 718.0804,369.6002 718.0804,370.5602 718.0804,369.6002 718.0804,370.5602 718.0804,370.5602 718.0804,370.5602 718.0804,370.5602 720.0004,370.5602 720.0004,370.5602 720.0004,370.5602 720.0004,370.5602 721.9204,371.5202 721.9204,371.5202 721.9204,371.5202 721.9204,371.5202 721.9204,370.5602 721.9204,370.5602 721.9204,370.5602 722.8804,370.5602 722.8804,370.5602 722.8804,370.5602 722.8804,370.5602 722.8804,370.5602 723.8404,370.5602 723.8404,370.5602 723.8404,370.5602 723.8404,371.5202 724.8004,371.5202 724.8004,371.5202 724.8004,371.5202 724.8004,371.5202 724.8004,371.5202 725.7604,371.5202 725.7604,371.5202 725.7604,371.5202 725.7604,371.5202 725.7604,371.5202 726.7204,371.5202 726.7204,371.5202 726.7204,371.5202 726.7204,371.5202 726.7204,371.5202 726.7204,371.5202 727.6804,371.5202 727.6804,371.5202 727.6804,371.5202 727.6804,371.5202 727.6804,372.4802 727.6804,372.4802 728.6404,372.4802 728.6404,372.4802 728.6404,372.4802 728.6404,372.4802 728.6404,372.4802 729.6004,372.4802 729.6004,372.4802 729.6004,372.4802 729.6004,372.4802 730.5604,372.4802 730.5604,372.4802 730.5604,372.4802 730.5604,372.4802 730.5604,372.4802 730.5604,372.4802 730.5604,372.4802 731.5204,371.5202 732.4804,371.5202 732.4804,371.5202 732.4804,371.5202 732.4804,371.5202 732.4804,371.5202 733.4404,371.5202 733.4404,371.5202 733.4404,371.5202 733.4404,371.5202 734.4004,371.5202 734.4004,371.5202 734.4004,371.5202 734.4004,371.5202 734.4004,370.5602 734.4004,370.5602 735.3604,370.5602 735.3604,370.5602 735.3604,370.5602 735.3604,370.5602 735.3604,370.5602 735.3604,370.5602 736.3204,369.6002 736.3204,370.5602 736.3204,369.6002 736.3204,369.6002 736.3204,369.6002 737.2804,369.6002 737.2804,369.6002 737.2804,369.6002 737.2804,368.6402 737.2804,368.6402 737.2804,368.6402 737.2804,368.6402 738.2404,368.6402 738.2404,368.6402 738.2404,368.6402 738.2404,367.6802 738.2404,367.6802 738.2404,367.6802 739.2004,368.6402 739.2004,368.6402 739.2004,368.6402 739.2004,368.6402 739.2004,368.6402 739.2004,368.6402 739.2004,369.6002 740.1604,369.6002 740.1604,369.6002 740.1604,369.6002 740.1604,369.6002 740.1604,369.6002 741.1204,369.6002 741.1204,369.6002 741.1204,370.5602 741.1204,370.5602 741.1204,370.5602 741.1204,370.5602 742.0804,370.5602 742.0804,370.5602 742.0804,370.5602 742.0804,371.5202 742.0804,371.5202 742.0804,371.5202 742.0804,371.5202 743.0404,371.5202 743.0404,371.5202 743.0404,372.4802 743.0404,372.4802 743.0404,372.4802 743.0404,372.4802 743.0404,372.4802 744.0004,372.4802 744.0004,373.4402 744.0004,373.4402 744.0004,373.4402 744.0004,373.4402 744.0004,373.4402 744.0004,373.4402 744.0004,373.4402 744.0004,373.4402 744.9604,373.4402 744.0004,370.5602 744.0004,370.5602 744.0004,370.5602 744.0004,369.6002 744.0004,369.6002 744.0004,369.6002 744.0004,369.6002 744.0004,369.6002 744.0004,369.6002 744.0004,369.6002 744.0004,369.6002 744.0004,367.6802 744.0004,367.6802 744.0004,367.6802 744.0004,367.6802 744.0004,368.6402 744.0004,368.6402 744.0004,368.6402 744.0004,368.6402 744.0004,368.6402 744.0004,367.6802 744.0004,367.6802 744.0004,367.6802 744.0004,367.6802 744.0004,365.7602 743.0404,365.7602 744.0004,365.7602 744.0004,364.8002 744.0004,364.8002 744.0004,364.8002 744.0004,364.8002 744.0004,363.8402 744.0004,363.8402 744.0004,363.8402 744.0004,363.8402 744.0004,363.8402 744.0004,362.8802 744.0004,362.8802 744.0004,362.8802 744.0004,362.8802 744.0004,362.8802 744.0004,362.8802 744.0004,361.9202 744.0004,362.8802 744.0004,361.9202 744.0004,361.9202 744.0004,361.9202 744.0004,361.9202 744.0004,360.9602 744.0004,360.9602 744.0004,360.9602 744.0004,360.9602 744.0004,360.9602 744.0004,360.0002 744.0004,360.9602 744.0004,360.0002 744.0004,360.0002 744.9604,360.0002 744.9604,360.0002 744.0004,359.0402 744.0004,359.0402 744.9604,359.0402 744.9604,359.0402 744.9604,358.0802 744.9604,358.0802 744.9604,358.0802 744.0004,358.0802 744.0004,358.0802 744.0004,357.1202 744.0004,357.1202 744.0004,357.1202 744.0004,357.1202 744.0004,357.1202 744.0004,357.1202 744.0004,356.1602 744.0004,356.1602 744.0004,356.1602 744.0004,356.1602 744.0004,356.1602 744.0004,355.2002 744.0004,355.2002 744.0004,355.2002 744.0004,355.2002 744.0004,354.2402 744.0004,354.2402 744.0004,354.2402 744.0004,354.2402 744.9604,354.2402 744.9604,354.2402 744.9604,353.2802 744.9604,353.2802 744.9604,353.2802 744.9604,353.2802 744.9604,352.3202 744.9604,353.2802 744.9604,353.2802 744.9604,353.2802 744.9604,353.2802 744.9604,353.2802 744.9604,352.3202 744.9604,352.3202 744.9604,352.3202 744.9604,352.3202 744.9604,352.3202 744.9604,351.3602 744.9604,351.3602 744.9604,351.3602 744.9604,351.3602 744.9604,351.3602 744.9604,351.3602 744.9604,350.4002 744.9604,350.4002 744.9604,350.4002 744.9604,350.4002 744.9604,349.4402 744.9604,349.4402 744.9604,349.4402 744.9604,349.4402 744.9604,349.4402 744.9604,349.4402 744.9604,348.4802 744.9604,348.4802 744.9604,348.4802 744.9604,348.4802 744.9604,348.4802 745.9204,348.4802 746.8804,347.5202 746.8804,347.5202 746.8804,347.5202 746.8804,347.5202 746.8804,347.5202 746.8804,347.5202 746.8804,347.5202 745.9204,346.5602 746.8804,346.5602 746.8804,346.5602 745.9204,346.5602 745.9204,345.6002 745.9204,345.6002 745.9204,345.6002 745.9204,345.6002 745.9204,345.6002 745.9204,344.6402 745.9204,344.6402 745.9204,344.6402 745.9204,344.6402 744.9604,344.6402 744.9604,343.6802 744.9604,343.6802 744.9604,343.6802 744.9604,343.6802 744.9604,343.6802 744.9604,343.6802 744.0004,343.6802 744.0004,343.6802 744.0004,342.7202 744.0004,342.7202 744.0004,342.7202 744.0004,342.7202 744.0004,341.7602 744.0004,341.7602 744.0004,341.7602 744.0004,341.7602 744.0004,341.7602 744.0004,341.7602 744.0004,341.7602 743.0404,340.8002 743.0404,340.8002 743.0404,340.8002 744.0004,340.8002 744.0004,340.8002 744.0004,339.8402 744.0004,339.8402 744.0004,339.8402 743.0404,339.8402 743.0404,338.8802 743.0404,338.8802 743.0404,338.8802 743.0404,338.8802 743.0404,338.8802 743.0404,337.9202 743.0404,337.9202 743.0404,337.9202 743.0404,337.9202 743.0404,336.9602 743.0404,336.9602 743.0404,336.9602 743.0404,336.0002 743.0404,336.0002 743.0404,336.0002 743.0404,336.0002 743.0404,336.0002 743.0404,335.0402 744.0004,335.0402 744.0004,335.0402 744.0004,335.0402 744.0004,335.0402 744.0004,335.0402 744.0004,334.0802 744.0004,334.0802 744.0004,334.0802 744.0004,334.0802 744.9604,333.1202 744.9604,333.1202 744.9604,333.1202 744.9604,333.1202 744.9604,333.1202 745.9204,333.1202 745.9204,333.1202 745.9204,332.1602 745.9204,332.1602 745.9204,332.1602 745.9204,332.1602 746.8804,332.1602 746.8804,331.2002 746.8804,331.2002 746.8804,331.2002 746.8804,331.2002 747.8404,330.2402 747.8404,330.2402 747.8404,330.2402 747.8404,330.2402 747.8404,330.2402 747.8404,329.2802 747.8404,329.2802 747.8404,329.2802 747.8404,329.2802 747.8404,329.2802 747.8404,328.3202 747.8404,328.3202 747.8404,328.3202 747.8404,328.3202 747.8404,327.3602 747.8404,327.3602 747.8404,327.3602 747.8404,327.3602 747.8404,327.3602 747.8404,327.3602 747.8404,327.3602 747.8404,326.4002 747.8404,326.4002 747.8404,326.4002 747.8404,326.4002 747.8404,326.4002 747.8404,326.4002 747.8404,326.4002 747.8404,326.4002 747.8404,326.4002 747.8404,326.4002 747.8404,326.4002 747.8404,326.4002 746.8804,326.4002 746.8804,325.4402 746.8804,325.4402 746.8804,324.4802 746.8804,324.4802 745.9204,324.4802 745.9204,324.4802 745.9204,323.5202 745.9204,323.5202 745.9204,323.5202 745.9204,323.5202 745.9204,323.5202 745.9204,322.5602 745.9204,322.5602 745.9204,322.5602 745.9204,322.5602 745.9204,321.6002 745.9204,321.6002 745.9204,321.6002 745.9204,321.6002 745.9204,321.6002 744.9604,321.6002 744.9604,321.6002 744.9604,321.6002 744.9604,321.6002 744.9604,320.6402 744.0004,320.6402 744.0004,320.6402 744.0004,320.6402 744.0004,319.6802 744.0004,319.6802 744.0004,319.6802 744.0004,319.6802 744.0004,319.6802 744.0004,319.6802 744.0004,319.6802 744.0004,318.7202 744.0004,318.7202 743.0404,318.7202 743.0404,318.7202 743.0404,318.7202 743.0404,318.7202 743.0404,318.7202 742.0804,318.7202 742.0804,318.7202 742.0804,318.7202 742.0804,318.7202 741.1204,318.7202 741.1204,318.7202 741.1204,318.7202 741.1204,318.7202 741.1204,318.7202 740.1604,318.7202 740.1604,318.7202 740.1604,317.7602 740.1604,317.7602 740.1604,317.7602 740.1604,317.7602 739.2004,317.7602 739.2004,317.7602 739.2004,316.8002 739.2004,316.8002 739.2004,316.8002 739.2004,316.8002 739.2004,316.8002 739.2004,315.8402 739.2004,315.8402 739.2004,315.8402 739.2004,315.8402 739.2004,314.8802 739.2004,314.8802 739.2004,314.8802 739.2004,314.8802 739.2004,313.9202 739.2004,313.9202 739.2004,313.9202 739.2004,313.9202 739.2004,313.9202 739.2004,312.9602 739.2004,312.9602 739.2004,312.9602 739.2004,312.9602 740.1604,312.9602 740.1604,312.9602 740.1604,312.0002 740.1604,312.0002 740.1604,312.0002 740.1604,312.0002 741.1204,312.0002 741.1204,312.0002 741.1204,312.0002 741.1204,311.0402 741.1204,311.0402 741.1204,311.0402 742.0804,311.0402 742.0804,311.0402 742.0804,311.0402 742.0804,311.0402 742.0804,311.0402 742.0804,311.0402 742.0804,310.0802 742.0804,310.0802 742.0804,310.0802 742.0804,310.0802 742.0804,310.0802 742.0804,309.1202 742.0804,309.1202 742.0804,309.1202 742.0804,309.1202 742.0804,309.1202 742.0804,308.1602 741.1204,308.1602 741.1204,308.1602 741.1204,308.1602 741.1204,307.2002 741.1204,307.2002 741.1204,307.2002 741.1204,307.2002 740.1604,307.2002 740.1604,307.2002 740.1604,307.2002 740.1604,307.2002 740.1604,306.2402 740.1604,306.2402 739.2004,306.2402 739.2004,306.2402 739.2004,306.2402 739.2004,305.2802 739.2004,305.2802 739.2004,305.2802 739.2004,305.2802 738.2404,305.2802 738.2404,305.2802 738.2404,305.2802 738.2404,305.2802 738.2404,304.3202 738.2404,304.3202 738.2404,304.3202 738.2404,304.3202 738.2404,304.3202 738.2404,304.3202 737.2804,303.3602 737.2804,303.3602 737.2804,303.3602 737.2804,303.3602 737.2804,303.3602 737.2804,302.4002 737.2804,302.4002 737.2804,302.4002 737.2804,302.4002 737.2804,302.4002 736.3204,301.4402 736.3204,301.4402 736.3204,301.4402 736.3204,301.4402 736.3204,300.4802 736.3204,300.4802 736.3204,300.4802 736.3204,300.4802 736.3204,300.4802 736.3204,299.5202 736.3204,299.5202 736.3204,299.5202 736.3204,299.5202 736.3204,299.5202 736.3204,298.5602 736.3204,298.5602 736.3204,298.5602 736.3204,298.5602 736.3204,298.5602 736.3204,297.6002 736.3204,297.6002 736.3204,297.6002 735.3604,297.6002 735.3604,297.6002 735.3604,296.6402 735.3604,296.6402 735.3604,296.6402 735.3604,296.6402 735.3604,296.6402 735.3604,296.6402 735.3604,296.6402 735.3604,295.6802 734.4004,295.6802 734.4004,295.6802 734.4004,295.6802 734.4004,294.7202 734.4004,294.7202 734.4004,294.7202 734.4004,294.7202 734.4004,294.7202 733.4404,294.7202 733.4404,294.7202 733.4404,295.6802 733.4404,295.6802 732.4804,294.7202 733.4404,296.6402 733.4404,294.7202 734.4004,294.7202 734.4004,295.6802 733.4404,295.6802 733.4404,294.7202 733.4404,295.6802 734.4004,294.7202 737.2804,290.8802 737.2804,289.9202 736.3204,289.9202 736.3204,289.9202 736.3204,289.9202 736.3204,289.9202 736.3204,288.9602 736.3204,288.9602 736.3204,288.9602 735.3604,288.9602 735.3604,288.9602 735.3604,288.9602 735.3604,288.0002 735.3604,288.0002 735.3604,288.0002 735.3604,288.0002 735.3604,287.0402 735.3604,287.0402 735.3604,287.0402 735.3604,287.0402 735.3604,287.0402 735.3604,286.0802 735.3604,286.0802 734.4004,286.0802 734.4004,286.0802 734.4004,286.0802 734.4004,286.0802 733.4404,286.0802 733.4404,286.0802 733.4404,285.1202 733.4404,285.1202 733.4404,285.1202 733.4404,285.1202 732.4804,285.1202 732.4804,285.1202 732.4804,284.1602 732.4804,284.1602 732.4804,284.1602 732.4804,284.1602 732.4804,284.1602 731.5204,284.1602 731.5204,284.1602 731.5204,284.1602 731.5204,284.1602 730.5604,284.1602 730.5604,283.2002 730.5604,283.2002 730.5604,283.2002 730.5604,283.2002 730.5604,282.2402 730.5604,282.2402 730.5604,282.2402 730.5604,282.2402 729.6004,282.2402 729.6004,282.2402 728.6404,282.2402 728.6404,282.2402 728.6404,282.2402 728.6404,282.2402 728.6404,281.2802 727.6804,281.2802 727.6804,281.2802 727.6804,281.2802 726.7204,281.2802 726.7204,280.3202 726.7204,280.3202 725.7604,280.3202 725.7604,280.3202 725.7604,280.3202 725.7604,280.3202 725.7604,279.3602 725.7604,279.3602 724.8004,279.3602 724.8004,279.3602 724.8004,279.3602 724.8004,279.3602 723.8404,279.3602 723.8404,278.4002 723.8404,278.4002 723.8404,278.4002 723.8404,278.4002 723.8404,278.4002 722.8804,278.4002 722.8804,278.4002 722.8804,278.4002 722.8804,277.4401 722.8804,277.4401 722.8804,277.4401 721.9204,276.4801 721.9204,276.4801 721.9204,276.4801 721.9204,275.5201 721.9204,275.5201 721.9204,275.5201 721.9204,275.5201 721.9204,275.5201 721.9204,274.5601 721.9204,274.5601 722.8804,274.5601 722.8804,274.5601 722.8804,274.5601 722.8804,273.6001 722.8804,273.6001 722.8804,273.6001 722.8804,273.6001 722.8804,273.6001 722.8804,272.6401 722.8804,272.6401 722.8804,272.6401 722.8804,272.6401 722.8804,271.6801 722.8804,271.6801 722.8804,271.6801 722.8804,271.6801 722.8804,270.7201 722.8804,270.7201 722.8804,270.7201 721.9204,270.7201 721.9204,270.7201 721.9204,270.7201 721.9204,269.7601 721.9204,269.7601 720.9604,269.7601 720.9604,269.7601 720.9604,268.8001 720.9604,268.8001 720.0004,268.8001 720.0004,268.8001 720.0004,268.8001 720.0004,268.8001 720.0004,267.8401 720.0004,267.8401 720.0004,267.8401 720.0004,266.8801 720.0004,266.8801 720.0004,266.8801 720.0004,265.9201 720.0004,265.9201 720.0004,265.9201 720.0004,265.9201 720.0004,264.9601 720.0004,264.9601 720.0004,264.9601 720.0004,264.9601 720.0004,264.0001 720.0004,264.0001 720.0004,264.0001 720.0004,264.0001 720.9604,264.0001 720.9604,264.0001 720.9604,263.0401 720.9604,264.0001 720.9604,263.0401 720.9604,263.0401 720.9604,263.0401 720.9604,263.0401 720.9604,263.0401 720.0004,262.0801 720.0004,262.0801 720.0004,262.0801 720.0004,262.0801 720.0004,262.0801 720.0004,261.1201 720.9604,261.1201 720.0004,261.1201 720.0004,261.1201 720.0004,261.1201 720.0004,261.1201 720.0004,260.1601 720.0004,260.1601 720.0004,260.1601 720.0004,260.1601 720.0004,259.2001 720.0004,259.2001 720.0004,259.2001 720.9604,259.2001 720.9604,259.2001 720.9604,259.2001 720.9604,259.2001 720.9604,259.2001 721.9204,259.2001 721.9204,259.2001 721.9204,258.2401 721.9204,258.2401 721.9204,258.2401 721.9204,258.2401 720.9604,258.2401 720.9604,257.2801 720.9604,257.2801 720.9604,257.2801 720.9604,257.2801 720.9604,257.2801 720.9604,256.3201 720.9604,256.3201 720.9604,256.3201 720.9604,256.3201 720.9604,256.3201 720.9604,256.3201 720.9604,256.3201 720.9604,255.3601 720.0004,255.3601 720.0004,255.3601 720.0004,255.3601 720.0004,255.3601 720.0004,255.3601 720.0004,255.3601 719.0404,255.3601 719.0404,255.3601 719.0404,254.4001 719.0404,254.4001 721.9204,254.4001 721.9204,254.4001 723.8404,254.4001 724.8004,255.3601 724.8004,255.3601 724.8004,255.3601 724.8004,255.3601 724.8004,255.3601 724.8004,255.3601 725.7604,255.3601 725.7604,255.3601 725.7604,255.3601 725.7604,255.3601 726.7204,255.3601 726.7204,255.3601 727.6804,256.3201 728.6404,256.3201 728.6404,257.2801 728.6404,257.2801 728.6404,257.2801 728.6404,257.2801 729.6004,257.2801 729.6004,257.2801 729.6004,257.2801 729.6004,257.2801 729.6004,257.2801 730.5604,257.2801 730.5604,257.2801 730.5604,257.2801 730.5604,257.2801 731.5204,257.2801 731.5204,257.2801 731.5204,257.2801 731.5204,257.2801 731.5204,257.2801 732.4804,257.2801 732.4804,257.2801 732.4804,257.2801 732.4804,257.2801 732.4804,257.2801 733.4404,257.2801 733.4404,257.2801 733.4404,257.2801 733.4404,257.2801 732.4804,255.3601 732.4804,255.3601 732.4804,255.3601 732.4804,254.4001 732.4804,254.4001 731.5204,254.4001 731.5204,254.4001 731.5204,253.4401 731.5204,253.4401 731.5204,253.4401 731.5204,253.4401 730.5604,253.4401 730.5604,253.4401 730.5604,253.4401 730.5604,253.4401 730.5604,252.4801 729.6004,252.4801 729.6004,252.4801 729.6004,252.4801 729.6004,252.4801 729.6004,252.4801 729.6004,252.4801 728.6404,251.5201 728.6404,251.5201 728.6404,251.5201 728.6404,251.5201 728.6404,251.5201 728.6404,250.5601 728.6404,250.5601 728.6404,250.5601 728.6404,250.5601 727.6804,250.5601 727.6804,249.6001 727.6804,249.6001 727.6804,249.6001 727.6804,249.6001 726.7204,249.6001 726.7204,249.6001 726.7204,248.6401 726.7204,248.6401 726.7204,248.6401 725.7604,248.6401 725.7604,248.6401 725.7604,248.6401 725.7604,248.6401 725.7604,248.6401 725.7604,247.6801 725.7604,247.6801 725.7604,247.6801 724.8004,247.6801 724.8004,247.6801 724.8004,246.7201 724.8004,246.7201 724.8004,246.7201 724.8004,246.7201 724.8004,246.7201 724.8004,245.7601 724.8004,245.7601 724.8004,245.7601 724.8004,245.7601 724.8004,245.7601 724.8004,244.8001 724.8004,244.8001 724.8004,244.8001 724.8004,244.8001 724.8004,243.8401 724.8004,243.8401 724.8004,243.8401 724.8004,243.8401 724.8004,243.8401 723.8404,242.8801 723.8404,242.8801 723.8404,242.8801 723.8404,242.8801 723.8404,242.8801 723.8404,242.8801 722.8804,242.8801 722.8804,241.9201 723.8404,241.9201 723.8404,241.9201 723.8404,241.9201 723.8404,241.9201 723.8404,241.9201 723.8404,240.9601 723.8404,240.9601 723.8404,240.9601 723.8404,240.9601 723.8404,240.9601 723.8404,240.0001 722.8804,240.0001 722.8804,240.0001 722.8804,240.0001 722.8804,240.0001 722.8804,240.0001 721.9204,240.0001 721.9204,240.0001 721.9204,240.0001 721.9204,240.0001 721.9204,240.0001 720.9604,240.0001 720.9604,239.0401 720.9604,239.0401 720.9604,239.0401 720.9604,239.0401 720.9604,239.0401 720.9604,238.0801 720.9604,238.0801 720.9604,238.0801 720.0004,238.0801 720.0004,238.0801 720.0004,238.0801 720.0004,237.1201 720.0004,237.1201 720.0004,237.1201 719.0404,237.1201 719.0404,237.1201 719.0404,237.1201 719.0404,237.1201 718.0804,237.1201 718.0804,237.1201 718.0804,236.1601 717.1204,236.1601 717.1204,236.1601 717.1204,236.1601 717.1204,236.1601 716.1604,236.1601 716.1604,236.1601 716.1604,235.2001 716.1604,235.2001 716.1604,235.2001 716.1604,235.2001 716.1604,234.2401 716.1604,234.2401 716.1604,234.2401 716.1604,234.2401 716.1604,233.2801 716.1604,233.2801 716.1604,233.2801 716.1604,233.2801 716.1604,232.3201 716.1604,232.3201 716.1604,232.3201 716.1604,232.3201 715.2004,231.3601 715.2004,231.3601 715.2004,231.3601 715.2004,231.3601 715.2004,230.4001 715.2004,230.4001 715.2004,230.4001 715.2004,230.4001 714.2404,230.4001 714.2404,230.4001 714.2404,229.4401 714.2404,229.4401 714.2404,229.4401 714.2404,229.4401 714.2404,228.4801 714.2404,228.4801 714.2404,228.4801 714.2404,228.4801 714.2404,228.4801 714.2404,227.5201 714.2404,227.5201 714.2404,227.5201 714.2404,227.5201 714.2404,226.5601 713.2804,226.5601 713.2804,226.5601 713.2804,226.5601 713.2804,225.6001 713.2804,225.6001 713.2804,225.6001 713.2804,225.6001 713.2804,224.6401 713.2804,224.6401 713.2804,224.6401 713.2804,224.6401 713.2804,224.6401 712.3204,223.6801 712.3204,223.6801 712.3204,223.6801 712.3204,223.6801 712.3204,222.7201 712.3204,222.7201 712.3204,222.7201 712.3204,222.7201 712.3204,221.7601 712.3204,221.7601 712.3204,221.7601 712.3204,221.7601 713.2804,220.8001 713.2804,220.8001 713.2804,220.8001 713.2804,220.8001 713.2804,220.8001 713.2804,220.8001 713.2804,219.8401 714.2404,219.8401 714.2404,219.8401 714.2404,219.8401 714.2404,219.8401 714.2404,218.8801 714.2404,218.8801 714.2404,218.8801 714.2404,218.8801 714.2404,218.8801 714.2404,217.9201 714.2404,217.9201 714.2404,217.9201 714.2404,217.9201 714.2404,216.9601 714.2404,216.9601 713.2804,216.9601 713.2804,216.9601 713.2804,216.9601 713.2804,216.0001 713.2804,216.0001 713.2804,216.0001 713.2804,216.0001 713.2804,216.0001 715.2004,214.0801 715.2004,214.0801 715.2004,214.0801 715.2004,214.0801 715.2004,214.0801 715.2004,213.1201 715.2004,213.1201 716.1604,213.1201 716.1604,213.1201 716.1604,213.1201 716.1604,214.0801 716.1604,214.0801 716.1604,214.0801 716.1604,214.0801 716.1604,214.0801 716.1604,215.0401 716.1604,215.0401 717.1204,215.0401 717.1204,215.0401 717.1204,216.0001 717.1204,216.0001 717.1204,216.0001 717.1204,216.0001 717.1204,216.0001 718.0804,216.0001 718.0804,216.9601 718.0804,216.9601 718.0804,216.9601 718.0804,216.9601 719.0404,216.9601 719.0404,216.9601 719.0404,216.9601 719.0404,216.9601 719.0404,216.9601 719.0404,216.9601 720.0004,216.9601 720.0004,216.9601 720.0004,216.9601 720.0004,216.9601 720.0004,216.9601 720.0004,216.0001 720.0004,216.0001 720.0004,216.0001 720.0004,216.0001 720.0004,216.0001 720.0004,215.0401 720.0004,215.0401 720.0004,215.0401 720.0004,215.0401 720.0004,215.0401 720.0004,214.0801 720.9604,214.0801 720.9604,214.0801 720.9604,214.0801 720.9604,214.0801 720.9604,214.0801 720.9604,214.0801 721.9204,214.0801 721.9204,214.0801 721.9204,214.0801 721.9204,213.1201 721.9204,213.1201 722.8804,213.1201 722.8804,213.1201 722.8804,213.1201 722.8804,213.1201 723.8404,214.0801 723.8404,214.0801 723.8404,214.0801 723.8404,214.0801 723.8404,214.0801 723.8404,214.0801 724.8004,215.0401 724.8004,215.0401 724.8004,215.0401 724.8004,215.0401 724.8004,215.0401 724.8004,216.0001 724.8004,216.0001 724.8004,216.0001 724.8004,216.0001 724.8004,216.0001 726.7204,216.0001 726.7204,216.0001 726.7204,216.0001 726.7204,216.0001 726.7204,216.9601 726.7204,216.9601 727.6804,216.9601 727.6804,216.9601 727.6804,216.9601 727.6804,216.9601 727.6804,216.9601 728.6404,216.9601 728.6404,216.9601 728.6404,217.9201 728.6404,217.9201 728.6404,217.9201 729.6004,217.9201 729.6004,217.9201 729.6004,217.9201 729.6004,218.8801 729.6004,218.8801 729.6004,218.8801 729.6004,218.8801 729.6004,218.8801 729.6004,219.8401 729.6004,219.8401 730.5604,219.8401 730.5604,219.8401 730.5604,219.8401 730.5604,219.8401 730.5604,219.8401 731.5204,219.8401 731.5204,220.8001 732.4804,221.7601 732.4804,221.7601 732.4804,222.7201 733.4404,222.7201 733.4404,222.7201 733.4404,222.7201 733.4404,222.7201 733.4404,223.6801 733.4404,223.6801 733.4404,223.6801 733.4404,223.6801 733.4404,224.6401 733.4404,224.6401 733.4404,224.6401 733.4404,224.6401 734.4004,225.6001 734.4004,225.6001 734.4004,225.6001 734.4004,225.6001 734.4004,225.6001 734.4004,226.5601 734.4004,226.5601 734.4004,226.5601 734.4004,226.5601 734.4004,226.5601 734.4004,227.5201 734.4004,227.5201 734.4004,227.5201 735.3604,227.5201 735.3604,227.5201 735.3604,228.4801 735.3604,228.4801 735.3604,228.4801 736.3204,228.4801 736.3204,228.4801 736.3204,228.4801 736.3204,229.4401 736.3204,229.4401 736.3204,229.4401 736.3204,229.4401 736.3204,230.4001 736.3204,230.4001 736.3204,230.4001 736.3204,230.4001 736.3204,230.4001 736.3204,231.3601 737.2804,231.3601 737.2804,231.3601 737.2804,231.3601 737.2804,231.3601 737.2804,231.3601 738.2404,231.3601 738.2404,231.3601 738.2404,231.3601 738.2404,231.3601 739.2004,232.3201 739.2004,232.3201 739.2004,232.3201 739.2004,232.3201 740.1604,232.3201 740.1604,232.3201 740.1604,232.3201 740.1604,232.3201 740.1604,232.3201 741.1204,232.3201 741.1204,232.3201 741.1204,232.3201 741.1204,232.3201 741.1204,232.3201 742.0804,232.3201 742.0804,232.3201 742.0804,232.3201 742.0804,232.3201 742.0804,232.3201 743.0404,233.2801 743.0404,233.2801 743.0404,233.2801 743.0404,233.2801 743.0404,233.2801 743.0404,233.2801 743.0404,234.2401 744.0004,234.2401 744.0004,234.2401 744.0004,234.2401 744.0004,235.2001 744.0004,235.2001 744.0004,235.2001 744.0004,235.2001 744.0004,236.1601 744.0004,236.1601 744.0004,236.1601 744.0004,236.1601 744.0004,236.1601 744.0004,237.1201 743.0404,237.1201 743.0404,237.1201 744.0004,238.0801 744.0004,238.0801 744.0004,238.0801 744.0004,238.0801 744.0004,238.0801 744.9604,239.0401 744.9604,239.0401 744.9604,239.0401 744.9604,239.0401 744.9604,240.0001 744.9604,240.0001 744.9604,240.0001 744.9604,240.0001 744.9604,240.0001 744.9604,240.9601 744.9604,240.9601 744.9604,240.9601 744.9604,240.9601 744.9604,241.9201 744.9604,241.9201 744.9604,241.9201 744.9604,241.9201 744.9604,241.9201 744.9604,242.8801 744.9604,242.8801 744.9604,242.8801 744.9604,242.8801 744.9604,243.8401 744.9604,243.8401 744.9604,243.8401 744.9604,243.8401 744.9604,244.8001 744.9604,244.8001 744.9604,244.8001 744.9604,244.8001 745.9204,244.8001 745.9204,244.8001 745.9204,244.8001 745.9204,244.8001 745.9204,244.8001 746.8804,245.7601 746.8804,245.7601 746.8804,245.7601 746.8804,245.7601 747.8404,245.7601 747.8404,245.7601 747.8404,245.7601 747.8404,245.7601 747.8404,245.7601 748.8004,246.7201 748.8004,246.7201 748.8004,246.7201 748.8004,246.7201 749.7604,246.7201 749.7604,246.7201 749.7604,247.6801 749.7604,247.6801 749.7604,246.7201 750.7204,246.7201 750.7204,246.7201 750.7204,247.6801 750.7204,247.6801 751.6804,247.6801 751.6804,247.6801 751.6804,247.6801 751.6804,247.6801 751.6804,247.6801 752.6404,247.6801 752.6404,247.6801 752.6404,247.6801 752.6404,248.6401 753.6004,248.6401 753.6004,248.6401 753.6004,248.6401 753.6004,248.6401 753.6004,248.6401 754.5604,248.6401 754.5604,248.6401 754.5604,248.6401 754.5604,248.6401 755.5204,248.6401 755.5204,247.6801 755.5204,247.6801 755.5204,247.6801 755.5204,248.6401 755.5204,248.6401 756.4804,248.6401 756.4804,248.6401 756.4804,248.6401 756.4804,248.6401 757.4404,248.6401 757.4404,247.6801 757.4404,247.6801 757.4404,247.6801 757.4404,247.6801 758.4004,247.6801 758.4004,247.6801 758.4004,247.6801 758.4004,247.6801 759.3604,247.6801 759.3604,247.6801 759.3604,247.6801 759.3604,247.6801 759.3604,247.6801 760.3204,247.6801 760.3204,246.7201 760.3204,246.7201 760.3204,246.7201 760.3204,246.7201 761.2804,247.6801 761.2804,247.6801 761.2804,246.7201 761.2804,246.7201 762.2404,246.7201 762.2404,246.7201 762.2404,246.7201 762.2404,246.7201 762.2404,246.7201 763.2004,246.7201 763.2004,246.7201 763.2004,246.7201 763.2004,246.7201 764.1604,246.7201 764.1604,246.7201 764.1604,246.7201 764.1604,246.7201 765.1204,246.7201 765.1204,246.7201 765.1204,246.7201 765.1204,246.7201 765.1204,246.7201 766.0804,246.7201 766.0804,246.7201 766.0804,246.7201 766.0804,246.7201 766.0804,245.7601 766.0804,245.7601 767.0404,245.7601 767.0404,245.7601 767.0404,245.7601 767.0404,245.7601 767.0404,245.7601 768.0004,244.8001 768.0004,244.8001 768.0004,244.8001 768.0004,244.8001 768.9604,244.8001 768.9604,244.8001 768.9604,244.8001 768.9604,244.8001 768.9604,243.8401 769.9204,243.8401 769.9204,243.8401 769.9204,243.8401 769.9204,243.8401 770.8804,243.8401 770.8804,243.8401 770.8804,243.8401 770.8804,243.8401 770.8804,243.8401 771.8404,243.8401 771.8404,243.8401 771.8404,243.8401 771.8404,244.8001 773.7604,243.8401 773.7604,243.8401 773.7604,243.8401 773.7604,243.8401 774.7204,243.8401 774.7204,243.8401 774.7204,243.8401 774.7204,243.8401 774.7204,243.8401 775.6804,243.8401 775.6804,243.8401 775.6804,243.8401 775.6804,244.8001 776.6404,244.8001 776.6404,244.8001 776.6404,244.8001 777.6004,244.8001 777.6004,244.8001 777.6004,244.8001 778.5604,244.8001 778.5604,244.8001 778.5604,244.8001 778.5604,244.8001 778.5604,244.8001 778.5604,244.8001 779.5204,245.7601 779.5204,245.7601 779.5204,245.7601 780.4804,245.7601 780.4804,245.7601 780.4804,244.8001 781.4404,244.8001 781.4404,245.7601 781.4404,245.7601 781.4404,245.7601 782.4004,245.7601 782.4004,245.7601 782.4004,245.7601 782.4004,245.7601 783.3604,245.7601 783.3604,245.7601 783.3604,245.7601 783.3604,245.7601 784.3204,245.7601 784.3204,245.7601 784.3204,245.7601 785.2804,245.7601 785.2804,245.7601 785.2804,245.7601 786.2404,245.7601 786.2404,245.7601 786.2404,245.7601 786.2404,245.7601 787.2004,245.7601 787.2004,245.7601 787.2004,245.7601 787.2004,245.7601 788.1604,245.7601 788.1604,245.7601 788.1604,245.7601 788.1604,245.7601 789.1204,245.7601 789.1204,245.7601 789.1204,245.7601 789.1204,245.7601 789.1204,244.8001 790.0804,244.8001 790.0804,244.8001 790.0804,244.8001 790.0804,244.8001 790.0804,243.8401 790.0804,243.8401 790.0804,243.8401 790.0804,243.8401 791.0404,242.8801 791.0404,242.8801 791.0404,242.8801 791.0404,242.8801 791.0404,242.8801 791.0404,242.8801 792.0004,241.9201 792.0004,241.9201 792.0004,241.9201 792.9604,241.9201 792.9604,241.9201 793.9204,241.9201 793.9204,241.9201 794.8804,240.9601 794.8804,240.9601 794.8804,240.9601 794.8804,240.9601 795.8404,240.9601 795.8404,240.9601 795.8404,240.9601 795.8404,240.9601 795.8404,240.9601 796.8004,240.9601 796.8004,241.9201 796.8004,241.9201 796.8004,241.9201 796.8004,241.9201 797.7604,241.9201 797.7604,241.9201 797.7604,241.9201 797.7604,241.9201 798.7204,241.9201 798.7204,241.9201 798.7204,241.9201 798.7204,241.9201 798.7204,242.8801 799.6804,242.8801 799.6804,242.8801 799.6804,242.8801 800.6404,242.8801 800.6404,242.8801 800.6404,242.8801 800.6404,242.8801 800.6404,242.8801 801.6004,241.9201 801.6004,241.9201 801.6004,241.9201 801.6004,241.9201 802.5604,241.9201 802.5604,241.9201 802.5604,241.9201 802.5604,241.9201 803.5204,241.9201 803.5204,241.9201 803.5204,241.9201 803.5204,242.8801 804.4804,242.8801 804.4804,242.8801 804.4804,242.8801 805.4404,242.8801 805.4404,242.8801 805.4404,241.9201 805.4404,241.9201 805.4404,240.9601 805.4404,240.9601 806.4004,240.9601 806.4004,240.9601 806.4004,240.0001 806.4004,240.0001 806.4004,240.9601 807.3604,240.9601 807.3604,240.9601 807.3604,240.9601 807.3604,240.9601 807.3604,241.9201 807.3604,241.9201 807.3604,241.9201 808.3204,241.9201 808.3204,241.9201 809.2804,241.9201 809.2804,241.9201 809.2804,241.9201 809.2804,241.9201 810.2404,241.9201 810.2404,241.9201 811.2004,241.9201 811.2004,241.9201 811.2004,241.9201 811.2004,241.9201 812.1604,241.9201 812.1604,241.9201 812.1604,241.9201 812.1604,241.9201 813.1204,241.9201 813.1204,240.9601 813.1204,240.9601 813.1204,240.9601 813.1204,240.9601 813.1204,240.0001 813.1204,240.0001 814.0804,240.0001 814.0804,240.0001 814.0804,239.0401 814.0804,239.0401 814.0804,239.0401 814.0804,239.0401 814.0804,238.0801 814.0804,238.0801 814.0804,238.0801 814.0804,238.0801 814.0804,237.1201 814.0804,237.1201 814.0804,237.1201 815.0404,236.1601 815.0404,236.1601 815.0404,236.1601 815.0404,235.2001 815.0404,235.2001 815.0404,235.2001 816.0004,235.2001 816.0004,235.2001 816.0004,235.2001 816.0004,234.2401 816.0004,234.2401 816.9604,234.2401 816.9604,234.2401 816.9604,234.2401 816.9604,234.2401 816.9604,233.2801 816.9604,233.2801 817.9204,233.2801 817.9204,233.2801 817.9204,233.2801 817.9204,232.3201 817.9204,232.3201 817.9204,232.3201 818.8804,232.3201 818.8804,232.3201 818.8804,232.3201 818.8804,231.3601 818.8804,231.3601 819.8404,231.3601 819.8404,231.3601 819.8404,231.3601 819.8404,231.3601 820.8004,231.3601 820.8004,231.3601 820.8004,230.4001 820.8004,231.3601 820.8004,231.3601 821.7604,231.3601 821.7604,231.3601 821.7604,231.3601 821.7604,231.3601 822.7204,231.3601 822.7204,231.3601 822.7204,230.4001 822.7204,230.4001 822.7204,230.4001 823.6804,230.4001 823.6804,230.4001 823.6804,230.4001 823.6804,230.4001 823.6804,230.4001 824.6404,230.4001 824.6404,230.4001 824.6404,230.4001 824.6404,230.4001 825.6004,230.4001 825.6004,230.4001 825.6004,230.4001 825.6004,230.4001 826.5604,230.4001 826.5604,231.3601 826.5604,231.3601 826.5604,231.3601 826.5604,231.3601 826.5604,231.3601 827.5204,231.3601 827.5204,231.3601 827.5204,231.3601 828.4804,231.3601 828.4804,231.3601 828.4804,231.3601 828.4804,231.3601 829.4404,231.3601 829.4404,232.3201 829.4404,232.3201 830.4004,232.3201 830.4004,232.3201 830.4004,232.3201 830.4004,232.3201 831.3604,232.3201 831.3604,232.3201 831.3604,232.3201 832.3204,233.2801 832.3204,233.2801 832.3204,233.2801 832.3204,233.2801 833.2805,233.2801 833.2805,233.2801 833.2805,233.2801 834.2405,233.2801 834.2405,233.2801 834.2405,233.2801 835.2005,233.2801 835.2005,233.2801 835.2005,233.2801 835.2005,233.2801 836.1605,234.2401 836.1605,234.2401 836.1605,234.2401 837.1205,234.2401 837.1205,234.2401 837.1205,234.2401 837.1205,234.2401 838.0805,234.2401 838.0805,234.2401 838.0805,234.2401 839.0405,234.2401 839.0405,234.2401 839.0405,234.2401 840.0005,234.2401 840.0005,234.2401 840.0005,234.2401 840.0005,234.2401 840.9605,234.2401 840.9605,234.2401 840.9605,234.2401 840.9605,234.2401 841.9205,234.2401 841.9205,234.2401 842.8805,234.2401 842.8805,234.2401 842.8805,234.2401 842.8805,235.2001 843.8405,235.2001 843.8405,235.2001 843.8405,235.2001 843.8405,235.2001 844.8005,235.2001 844.8005,235.2001 844.8005,235.2001 845.7605,235.2001 845.7605,235.2001 845.7605,236.1601 845.7605,236.1601 846.7205,236.1601 846.7205,236.1601 846.7205,236.1601 847.6805,236.1601 847.6805,236.1601 847.6805,236.1601 848.6405,236.1601 848.6405,236.1601 848.6405,236.1601 849.6005,236.1601 849.6005,236.1601 849.6005,236.1601 850.5605,236.1601 850.5605,236.1601 850.5605,236.1601 850.5605,236.1601 851.5205,236.1601 851.5205,236.1601 851.5205,236.1601 851.5205,236.1601 852.4805,237.1201 852.4805,237.1201 852.4805,237.1201 853.4405,237.1201 853.4405,237.1201 853.4405,237.1201 854.4005,238.0801 854.4005,238.0801 854.4005,238.0801 855.3605,238.0801 855.3605,238.0801 855.3605,238.0801 855.3605,239.0401 856.3205,239.0401 856.3205,239.0401 856.3205,240.0001 857.2805,240.0001 857.2805,240.0001 857.2805,240.0001 857.2805,240.9601 857.2805,240.9601 858.2405,240.9601 858.2405,240.9601 858.2405,240.9601 858.2405,240.9601 859.2005,240.9601 859.2005,241.9201 859.2005,241.9201 860.1605,241.9201 860.1605,241.9201 860.1605,241.9201 860.1605,241.9201 861.1205,241.9201 861.1205,241.9201 861.1205,241.9201 861.1205,241.9201 862.0805,241.9201 862.0805,241.9201 862.0805,242.8801 863.0405,242.8801 863.0405,242.8801 863.0405,242.8801 863.0405,242.8801 864.0005,243.8401 864.0005,243.8401 864.0005,243.8401 864.0005,243.8401 864.9605,244.8001 864.9605,244.8001 864.9605,244.8001 865.9205,244.8001 865.9205,244.8001 865.9205,244.8001 865.9205,244.8001 866.8805,245.7601 866.8805,245.7601 866.8805,245.7601 866.8805,245.7601 867.8405,245.7601 867.8405,245.7601 867.8405,245.7601 868.8005,245.7601 868.8005,245.7601 868.8005,245.7601 868.8005,245.7601 869.7605,245.7601 869.7605,244.8001 869.7605,244.8001 869.7605,244.8001 870.7205,244.8001 870.7205,244.8001 870.7205,244.8001 870.7205,244.8001 871.6805,244.8001 871.6805,244.8001 871.6805,244.8001 872.6405,244.8001 872.6405,244.8001 872.6405,243.8401 873.6005,243.8401 873.6005,243.8401 873.6005,243.8401 874.5605,243.8401 874.5605,243.8401 874.5605,243.8401 874.5605,243.8401 875.5205,243.8401 875.5205,243.8401 876.4805,243.8401 876.4805,243.8401 877.4405,243.8401 877.4405,243.8401 877.4405,243.8401 877.4405,243.8401 878.4005,243.8401 878.4005,243.8401 878.4005,243.8401 879.3605,242.8801 879.3605,242.8801 879.3605,242.8801 879.3605,242.8801 880.3205,242.8801 880.3205,242.8801 880.3205,242.8801 881.2805,242.8801 881.2805,242.8801 881.2805,241.9201 881.2805,241.9201 882.2405,241.9201 882.2405,241.9201 882.2405,241.9201 882.2405,241.9201 883.2005,241.9201 883.2005,241.9201 883.2005,241.9201 883.2005,241.9201 884.1605,241.9201 884.1605,241.9201 885.1205,241.9201 885.1205,241.9201 885.1205,241.9201 885.1205,241.9201 886.0805,241.9201 886.0805,241.9201 886.0805,241.9201 886.0805,241.9201 887.0405,240.9601 887.0405,240.9601 888.0005,240.9601 888.0005,240.9601 888.0005,240.9601 888.0005,240.9601 888.9605,240.9601 888.9605,240.9601 888.9605,240.0001 888.9605,240.0001 889.9205,240.0001 889.9205,240.0001 889.9205,240.0001 890.8805,240.0001 890.8805,240.0001 890.8805,239.0401 890.8805,239.0401 891.8405,239.0401 891.8405,239.0401 891.8405,239.0401 892.8005,239.0401 892.8005,238.0801 892.8005,238.0801 893.7605,238.0801 893.7605,238.0801 893.7605,238.0801 894.7205,237.1201 894.7205,237.1201 894.7205,237.1201 894.7205,237.1201 895.6805,237.1201 895.6805,237.1201 895.6805,237.1201 895.6805,236.1601 895.6805,236.1601 896.6405,236.1601 896.6405,236.1601 896.6405,236.1601 896.6405,235.2001 896.6405,235.2001 897.6005,235.2001 897.6005,235.2001 897.6005,235.2001 897.6005,235.2001 897.6005,234.2401 898.5605,234.2401 898.5605,234.2401 898.5605,234.2401 898.5605,234.2401 899.5205,234.2401 899.5205,234.2401 899.5205,234.2401 900.4805,234.2401 900.4805,233.2801 901.4405,233.2801 901.4405,233.2801 901.4405,233.2801 902.4005,233.2801 902.4005,233.2801 902.4005,233.2801 903.3605,232.3201 903.3605,232.3201 903.3605,232.3201 903.3605,232.3201 903.3605,232.3201 904.3205,232.3201 904.3205,232.3201 904.3205,231.3601 905.2805,231.3601 905.2805,231.3601 905.2805,231.3601 906.2405,231.3601 906.2405,231.3601 906.2405,232.3201 907.2005,232.3201 907.2005,232.3201 907.2005,232.3201 908.1605,232.3201 908.1605,232.3201 908.1605,232.3201 909.1205,232.3201 909.1205,232.3201 910.0805,232.3201 910.0805,232.3201 910.0805,232.3201 910.0805,231.3601 911.0405,231.3601 911.0405,231.3601 911.0405,231.3601 911.0405,231.3601 912.0005,231.3601 912.0005,231.3601 912.0005,231.3601 912.9605,230.4001 912.9605,230.4001 912.9605,230.4001 912.9605,230.4001 913.9205,230.4001 913.9205,230.4001 913.9205,230.4001 913.9205,230.4001 914.8805,230.4001 914.8805,230.4001 915.8405,229.4401 915.8405,229.4401 916.8005,229.4401 916.8005,230.4001 916.8005,230.4001 917.7605,229.4401 917.7605,229.4401 918.7205,229.4401 918.7205,229.4401 918.7205,229.4401 919.6805,229.4401 919.6805,229.4401 919.6805,229.4401 919.6805,229.4401 920.6405,228.4801 920.6405,228.4801 920.6405,228.4801 920.6405,228.4801 921.6005,228.4801 921.6005,228.4801 921.6005,228.4801 922.5605,228.4801 922.5605,228.4801 922.5605,228.4801 922.5605,228.4801 923.5205,228.4801 923.5205,228.4801 923.5205,228.4801 924.4805,228.4801 924.4805,227.5201 924.4805,227.5201 925.4405,227.5201 925.4405,227.5201 925.4405,227.5201 926.4005,227.5201 926.4005,228.4801 926.4005,227.5201 927.3605,227.5201 927.3605,227.5201 927.3605,227.5201 928.3205,227.5201 928.3205,227.5201 928.3205,226.5601 929.2805,226.5601 929.2805,226.5601 929.2805,226.5601 929.2805,226.5601 929.2805,226.5601 930.2405,225.6001 930.2405,225.6001 930.2405,225.6001 931.2005,225.6001 931.2005,225.6001 931.2005,225.6001 932.1605,225.6001 932.1605,225.6001 933.1205,225.6001 933.1205,225.6001 933.1205,224.6401 933.1205,224.6401 934.0805,224.6401 934.0805,224.6401 934.0805,224.6401 934.0805,224.6401 935.0405,224.6401 935.0405,224.6401 936.0005,223.6801 936.0005,223.6801 936.0005,223.6801 936.0005,223.6801 936.9605,223.6801 936.9605,223.6801 936.9605,223.6801 936.9605,223.6801 936.9605,222.7201 937.9205,222.7201 937.9205,222.7201 937.9205,222.7201 937.9205,222.7201 938.8805,222.7201 938.8805,222.7201 938.8805,222.7201 938.8805,221.7601 939.8405,221.7601 939.8405,221.7601 939.8405,221.7601 939.8405,221.7601 939.8405,221.7601 940.8005,220.8001 940.8005,220.8001 940.8005,220.8001 940.8005,220.8001 940.8005,219.8401 940.8005,219.8401 940.8005,219.8401 940.8005,219.8401 940.8005,219.8401 940.8005,218.8801 940.8005,218.8801 940.8005,218.8801 940.8005,218.8801 941.7605,217.9201 941.7605,217.9201 941.7605,217.9201 941.7605,217.9201 941.7605,217.9201 941.7605,216.9601 941.7605,216.9601 942.7205,216.9601 942.7205,216.0001 942.7205,216.0001 942.7205,216.0001 942.7205,215.0401 942.7205,215.0401 942.7205,215.0401 942.7205,215.0401 942.7205,214.0801 942.7205,214.0801 942.7205,214.0801 942.7205,214.0801 942.7205,214.0801 943.6805,214.0801 943.6805,214.0801 943.6805,214.0801 944.6405,214.0801 944.6405,214.0801 944.6405,213.1201 944.6405,213.1201 945.6005,213.1201 945.6005,213.1201 945.6005,213.1201 945.6005,213.1201 945.6005,212.1601 945.6005,212.1601 946.5605,212.1601 946.5605,211.2001 946.5605,211.2001 946.5605,211.2001 946.5605,211.2001 946.5605,210.2401 946.5605,210.2401 947.5205,210.2401 947.5205,210.2401 947.5205,210.2401 947.5205,209.2801 947.5205,209.2801 947.5205,209.2801 947.5205,209.2801 947.5205,208.3201 947.5205,208.3201 947.5205,208.3201 947.5205,208.3201 948.4805,208.3201 948.4805,208.3201 948.4805,208.3201 948.4805,208.3201 948.4805,207.3601 949.4405,207.3601 949.4405,207.3601 949.4405,207.3601 949.4405,207.3601 950.4005,207.3601 950.4005,207.3601 950.4005,206.4001 950.4005,206.4001 951.3605,206.4001 951.3605,206.4001 951.3605,205.4401 951.3605,205.4401 952.3205,205.4401 952.3205,205.4401 952.3205,205.4401 952.3205,204.4801 952.3205,204.4801 952.3205,204.4801 952.3205,204.4801 953.2805,204.4801 953.2805,204.4801 953.2805,204.4801 953.2805,204.4801 953.2805,204.4801 954.2405,204.4801 954.2405,204.4801 954.2405,204.4801 955.2005,204.4801 955.2005,204.4801 955.2005,204.4801 955.2005,204.4801 956.1605,204.4801 956.1605,204.4801 956.1605,204.4801 956.1605,204.4801 957.1205,204.4801 957.1205,204.4801 957.1205,204.4801 957.1205,204.4801 958.0805,204.4801 958.0805,204.4801 958.0805,204.4801 958.0805,204.4801 959.0405,204.4801 959.0405,204.4801 959.0405,203.5201 959.0405,203.5201 960.0005,203.5201 960.0005,203.5201 960.0005,203.5201 960.9605,202.5601 960.9605,202.5601 960.9605,202.5601 961.9205,202.5601 961.9205,201.6001 962.8805,202.5601 962.8805,202.5601 963.8405,202.5601 963.8405,202.5601 963.8405,201.6001 963.8405,201.6001 964.8005,201.6001 964.8005,201.6001 965.7605,201.6001 965.7605,202.5601 965.7605,202.5601 965.7605,202.5601 966.7205,202.5601 966.7205,202.5601 966.7205,202.5601 966.7205,202.5601 967.6805,202.5601 967.6805,202.5601 967.6805,202.5601 967.6805,202.5601 967.6805,203.5201 968.6405,203.5201 968.6405,203.5201 968.6405,203.5201 969.6005,203.5201 969.6005,204.4801 969.6005,204.4801 970.5605,204.4801 970.5605,204.4801 970.5605,204.4801 970.5605,205.4401 970.5605,205.4401 970.5605,205.4401 970.5605,206.4001 970.5605,206.4001 970.5605,207.3601 971.5205,207.3601 971.5205,207.3601 971.5205,207.3601 971.5205,207.3601 971.5205,208.3201 971.5205,208.3201 972.4805,208.3201 972.4805,208.3201 972.4805,209.2801 972.4805,209.2801 973.4405,209.2801 973.4405,209.2801 973.4405,209.2801 974.4005,209.2801 974.4005,209.2801 974.4005,209.2801 974.4005,209.2801 975.3605,209.2801 975.3605,209.2801 976.3205,209.2801 976.3205,209.2801 976.3205,210.2401 976.3205,210.2401 976.3205,210.2401 977.2805,210.2401 977.2805,210.2401 977.2805,210.2401 978.2405,210.2401 978.2405,210.2401 978.2405,210.2401 978.2405,209.2801 979.2005,209.2801 979.2005,208.3201 979.2005,208.3201 980.1605,208.3201 980.1605,208.3201 980.1605,208.3201 980.1605,207.3601 980.1605,207.3601 980.1605,207.3601 981.1205,206.4001 981.1205,206.4001 981.1205,206.4001 981.1205,206.4001 981.1205,205.4401 981.1205,205.4401 981.1205,205.4401 981.1205,205.4401 982.0805,205.4401 982.0805,204.4801 982.0805,204.4801 981.1205,204.4801 981.1205,204.4801 981.1205,203.5201 981.1205,203.5201 981.1205,203.5201 981.1205,203.5201 981.1205,202.5601 981.1205,202.5601 981.1205,202.5601 981.1205,202.5601 981.1205,202.5601 981.1205,201.6001 981.1205,201.6001 981.1205,201.6001 981.1205,201.6001 982.0805,200.6401 982.0805,200.6401 982.0805,200.6401 982.0805,200.6401 983.0405,200.6401 983.0405,200.6401 983.0405,200.6401 984.0005,200.6401 984.0005,200.6401 984.0005,200.6401 984.9605,200.6401 984.9605,200.6401 984.9605,200.6401 984.9605,200.6401 985.9205,200.6401 985.9205,200.6401 985.9205,200.6401 986.8805,200.6401 986.8805,200.6401 986.8805,200.6401 986.8805,200.6401 987.8405,200.6401 987.8405,200.6401 987.8405,200.6401 987.8405,200.6401 988.8005,200.6401 988.8005,199.6801 989.7605,199.6801 989.7605,199.6801 989.7605,199.6801 989.7605,199.6801 989.7605,199.6801 990.7205,199.6801 990.7205,199.6801 990.7205,199.6801 991.6805,199.6801 991.6805,199.6801 991.6805,199.6801 991.6805,199.6801 992.6405,199.6801 992.6405,199.6801 992.6405,198.7201 992.6405,198.7201 992.6405,198.7201 993.6005,198.7201 993.6005,198.7201 993.6005,198.7201 994.5605,198.7201 994.5605,198.7201 994.5605,198.7201 994.5605,198.7201 994.5605,198.7201 995.5205,199.6801 995.5205,199.6801 995.5205,199.6801 995.5205,199.6801 996.4805,199.6801 996.4805,199.6801 996.4805,199.6801 996.4805,199.6801 997.4405,199.6801 997.4405,199.6801 997.4405,199.6801 997.4405,199.6801 998.4005,199.6801 998.4005,198.7201 998.4005,198.7201 998.4005,198.7201 998.4005,198.7201 998.4005,198.7201 999.3605,198.7201 999.3605,197.7601 999.3605,197.7601 999.3605,197.7601 999.3605,197.7601 999.3605,197.7601 1000.3205,197.7601 1000.3205,197.7601 1000.3205,197.7601 1001.2805,197.7601 1001.2805,197.7601 1001.2805,197.7601 1001.2805,197.7601 1002.2405,197.7601 1002.2405,197.7601 1002.2405,197.7601 1003.2005,197.7601 1003.2005,197.7601 1003.2005,197.7601 1004.1605,197.7601 1004.1605,197.7601 1005.1205,197.7601 1005.1205,197.7601 1005.1205,197.7601 1006.0805,197.7601 1006.0805,197.7601 1006.0805,198.7201 1007.0405,198.7201 1007.0405,198.7201 1008.0005,198.7201 1008.0005,198.7201 1008.0005,198.7201 1008.0005,198.7201 1008.9605,198.7201 1008.9605,198.7201 1008.9605,198.7201 1008.9605,198.7201 1009.9205,198.7201 1009.9205,198.7201 1009.9205,197.7601 1010.8805,197.7601 1010.8805,197.7601 1010.8805,198.7201 1010.8805,198.7201 1010.8805,198.7201 1011.8405,198.7201 1011.8405,198.7201 1011.8405,198.7201 1011.8405,198.7201 1012.8005,198.7201 1012.8005,198.7201 1012.8005,198.7201"/>
    <polyline points="526.0803,299.5202 526.0803,299.5202 525.1203,299.5202 525.1203,299.5202 525.1203,299.5202 525.1203,299.5202 524.1603,300.4802 524.1603,300.4802 523.2003,300.4802 523.2003,301.4402 523.2003,301.4402 523.2003,301.4402 523.2003,301.4402 523.2003,301.4402 522.2403,302.4002 522.2403,302.4002 521.2803,302.4002 520.3203,302.4002 520.3203,303.3602 520.3203,303.3602 520.3203,303.3602 519.3603,303.3602 519.3603,304.3202 519.3603,304.3202 519.3603,304.3202 518.4003,304.3202 518.4003,305.2802 518.4003,305.2802 517.4403,305.2802 517.4403,306.2402 517.4403,306.2402 517.4403,306.2402 517.4403,306.2402 516.4803,306.2402 516.4803,306.2402 516.4803,306.2402 515.5203,306.2402 515.5203,306.2402 515.5203,306.2402 515.5203,307.2002 515.5203,307.2002 515.5203,307.2002 514.5603,307.2002 514.5603,307.2002 514.5603,307.2002 514.5603,307.2002 514.5603,307.2002 514.5603,308.1602 514.5603,308.1602 513.6003,308.1602 513.6003,308.1602 513.6003,308.1602 513.6003,309.1202 513.6003,309.1202 513.6003,309.1202 513.6003,309.1202 513.6003,309.1202 513.6003,309.1202 513.6003,309.1202 513.6003,309.1202 513.6003,310.0802 513.6003,310.0802 513.6003,310.0802 513.6003,311.0402 513.6003,311.0402 513.6003,311.0402 512.6403,311.0402 512.6403,312.0002 512.6403,312.0002 512.6403,312.0002 511.6803,311.0402 511.6803,311.0402 511.6803,311.0402 510.7203,311.0402 509.7603,312.0002 509.7603,312.0002 508.8003,312.0002 508.8003,312.0002 508.8003,312.0002 508.8003,312.0002 507.8403,312.0002 507.8403,312.0002 507.8403,312.0002 507.8403,312.0002 507.8403,312.0002 506.8803,312.0002 506.8803,312.0002 506.8803,312.9602 506.8803,312.9602 506.8803,312.9602 506.8803,312.9602 506.8803,312.9602 506.8803,313.9202 506.8803,313.9202 506.8803,313.9202 506.8803,313.9202 506.8803,313.9202 506.8803,313.9202 505.9203,313.9202 505.9203,314.8802 505.9203,314.8802 504.9603,314.8802 504.9603,314.8802 504.9603,314.8802 504.9603,314.8802 504.0003,314.8802 504.0003,314.8802 504.0003,314.8802 504.0003,313.9202 503.0403,313.9202 503.0403,314.8802 503.0403,314.8802 503.0403,313.9202 502.0803,313.9202 502.0803,313.9202 502.0803,314.8802 502.0803,314.8802 502.0803,314.8802 501.1203,314.8802 501.1203,314.8802 501.1203,314.8802 501.1203,314.8802 501.1203,315.8402 501.1203,315.8402 500.1603,315.8402 500.1603,315.8402 500.1603,316.8002 500.1603,316.8002 500.1603,316.8002 500.1603,316.8002 501.1203,316.8002 501.1203,317.7602 501.1203,317.7602 501.1203,317.7602 501.1203,317.7602 501.1203,317.7602 501.1203,317.7602 501.1203,318.7202 501.1203,318.7202 501.1203,318.7202 501.1203,318.7202 501.1203,318.7202 501.1203,318.7202 502.0803,318.7202 502.0803,319.6802 502.0803,319.6802 502.0803,319.6802 502.0803,319.6802 501.1203,320.6402 501.1203,320.6402 501.1203,320.6402 501.1203,320.6402 501.1203,320.6402 501.1203,320.6402 501.1203,320.6402 502.0803,320.6402 502.0803,320.6402 502.0803,320.6402 502.0803,320.6402 502.0803,320.6402 503.0403,320.6402 503.0403,320.6402 503.0403,320.6402 503.0403,320.6402 503.0403,320.6402 503.0403,320.6402 503.0403,320.6402 503.0403,320.6402 503.0403,320.6402 503.0403,320.6402 503.0403,321.6002 503.0403,321.6002 502.0803,321.6002 502.0803,321.6002 502.0803,321.6002 502.0803,321.6002 502.0803,322.5602 502.0803,322.5602 502.0803,322.5602 502.0803,322.5602 501.1203,322.5602 501.1203,323.5202 501.1203,323.5202 501.1203,323.5202 501.1203,323.5202 501.1203,323.5202 501.1203,323.5202 501.1203,323.5202 500.1603,323.5202 500.1603,324.4802 500.1603,324.4802 500.1603,324.4802 500.1603,324.4802 500.1603,324.4802 500.1603,324.4802 499.2003,324.4802 499.2003,324.4802 499.2003,324.4802 499.2003,324.4802 499.2003,324.4802 499.2003,324.4802 498.2403,325.4402 498.2403,325.4402 498.2403,325.4402 498.2403,325.4402 497.2803,326.4002 497.2803,326.4002 497.2803,326.4002 497.2803,326.4002 497.2803,326.4002 497.2803,326.4002 497.2803,326.4002 497.2803,326.4002 497.2803,326.4002 497.2803,326.4002 497.2803,327.3602 497.2803,327.3602 497.2803,327.3602 497.2803,327.3602 497.2803,327.3602 497.2803,327.3602 497.2803,328.3202 497.2803,328.3202 497.2803,329.2802 497.2803,329.2802 497.2803,329.2802 497.2803,330.2402 496.3203,330.2402 496.3203,330.2402 496.3203,330.2402 496.3203,330.2402 496.3203,330.2402 495.3603,330.2402 495.3603,330.2402 495.3603,330.2402 494.4003,330.2402 493.4403,330.2402 493.4403,330.2402 492.4803,330.2402 492.4803,330.2402 492.4803,330.2402 492.4803,330.2402 492.4803,330.2402 491.5203,330.2402 491.5203,330.2402 490.5603,330.2402 490.5603,330.2402 490.5603,330.2402 490.5603,330.2402 489.6003,330.2402 489.6003,330.2402 489.6003,330.2402 488.6403,330.2402 488.6403,330.2402 488.6403,330.2402 487.6803,330.2402 487.6803,331.2002 486.7203,331.2002 486.7203,331.2002 486.7203,331.2002 485.7603,331.2002 484.8003,331.2002 484.8003,331.2002 484.8003,331.2002 484.8003,331.2002 483.8403,331.2002 483.8403,331.2002 483.8403,331.2002 482.8803,331.2002 482.8803,331.2002 482.8803,331.2002 481.9203,331.2002 481.9203,331.2002 480.9603,331.2002 480.9603,332.1602 480.9603,332.1602 480.9603,332.1602 480.9603,332.1602 480.0003,332.1602 480.0003,332.1602 479.0403,332.1602 479.0403,332.1602 479.0403,332.1602 479.0403,332.1602 478.0803,332.1602 478.0803,332.1602 478.0803,332.1602 477.1203,332.1602 477.1203,332.1602 477.1203,333.1202 477.1203,333.1202 476.1603,333.1202 476.1603,333.1202 476.1603,333.1202 475.2003,333.1202 475.2003,333.1202 475.2003,333.1202 474.2403,332.1602 473.2803,332.1602 473.2803,332.1602 471.3603,332.1602 471.3603,332.1602 471.3603,331.2002 471.3603,331.2002 470.4003,331.2002 470.4003,330.2402 469.4403,330.2402 468.4803,330.2402 468.4803,330.2402 468.4803,330.2402 468.4803,330.2402 468.4803,330.2402 468.4803,330.2402 467.5203,330.2402 467.5203,330.2402 466.5603,330.2402 466.5603,330.2402 466.5603,330.2402 466.5603,330.2402 465.6003,330.2402 465.6003,330.2402 465.6003,330.2402 465.6003,330.2402 465.6003,330.2402 464.6403,330.2402 464.6403,330.2402 464.6403,330.2402 464.6403,330.2402 463.6803,330.2402 463.6803,331.2002 463.6803,331.2002 462.7202,331.2002 462.7202,331.2002 462.7202,331.2002 461.7602,331.2002 461.7602,332.1602 460.8002,332.1602 460.8002,332.1602 459.8402,332.1602 459.8402,332.1602 459.8402,332.1602 459.8402,332.1602 458.8802,332.1602 458.8802,333.1202 458.8802,333.1202 457.9202,333.1202 457.9202,333.1202 457.9202,334.0802 457.9202,334.0802 457.9202,334.0802 457.9202,334.0802 457.9202,334.0802 457.9202,334.0802 457.9202,334.0802 456.9602,335.0402 456.9602,335.0402 456.0002,335.0402 456.0002,336.0002 456.0002,336.0002 456.0002,336.0002 455.0402,336.0002 455.0402,336.0002 455.0402,336.0002 454.0802,336.0002 454.0802,336.9602 453.1202,336.9602 453.1202,336.9602 453.1202,336.9602 452.1602,336.9602 452.1602,336.9602 451.2002,336.9602 451.2002,336.9602 450.2402,336.0002 450.2402,336.0002 450.2402,336.0002 449.2802,336.0002 448.3202,335.0402 448.3202,335.0402 447.3602,335.0402 447.3602,335.0402 446.4002,335.0402 446.4002,335.0402 445.4402,335.0402 445.4402,335.0402 445.4402,334.0802 444.4802,334.0802 444.4802,334.0802 443.5202,334.0802 443.5202,334.0802 443.5202,334.0802 442.5602,334.0802 442.5602,333.1202 442.5602,333.1202 441.6002,333.1202 441.6002,333.1202 440.6402,333.1202 440.6402,333.1202 440.6402,333.1202 439.6802,333.1202 438.7202,333.1202 437.7602,332.1602 437.7602,332.1602 436.8002,333.1202 436.8002,333.1202 436.8002,333.1202 436.8002,333.1202 436.8002,333.1202 435.8402,333.1202 435.8402,332.1602 434.8802,331.2002 434.8802,331.2002 434.8802,330.2402 434.8802,330.2402 433.9202,329.2802 433.9202,329.2802 432.9602,329.2802 432.0002,328.3202 432.0002,328.3202 431.0402,327.3602 431.0402,327.3602 430.0802,327.3602 430.0802,327.3602 429.1202,326.4002 428.1602,326.4002 427.2002,326.4002 427.2002,325.4402 426.2402,325.4402 425.2802,324.4802 422.4002,323.5202 421.4402,324.4802 421.4402,324.4802 420.4802,324.4802 420.4802,323.5202 419.5202,323.5202 419.5202,323.5202 418.5602,323.5202 418.5602,323.5202 418.5602,322.5602 417.6002,323.5202 417.6002,322.5602 416.6402,322.5602 415.6802,322.5602 415.6802,322.5602 414.7202,321.6002 414.7202,321.6002 413.7602,321.6002 412.8002,321.6002 412.8002,321.6002 411.8402,321.6002 410.8802,320.6402 408.9602,320.6402 408.9602,320.6402 408.0002,320.6402 408.0002,320.6402 407.0402,321.6002 407.0402,321.6002 407.0402,321.6002 406.0802,321.6002 406.0802,321.6002 406.0802,321.6002 405.1202,321.6002 403.2002,322.5602 403.2002,322.5602 403.2002,322.5602 403.2002,322.5602 402.2402,322.5602 402.2402,321.6002 401.2802,321.6002 401.2802,321.6002 401.2802,321.6002 400.3202,321.6002 399.3602,321.6002 399.3602,321.6002 398.4002,321.6002 397.4402,321.6002 397.4402,321.6002 396.4802,321.6002 395.5202,321.6002 395.5202,320.6402 394.5602,320.6402 394.5602,320.6402 394.5602,320.6402 393.6002,320.6402 393.6002,320.6402 393.6002,320.6402 393.6002,320.6402 392.6402,321.6002 392.6402,320.6402 392.6402,320.6402 392.6402,320.6402 392.6402,320.6402 391.6802,320.6402 390.7202,320.6402 389.7602,320.6402 389.7602,320.6402 388.8002,319.6802 388.8002,319.6802 388.8002,319.6802 388.8002,318.7202 387.8402,318.7202 387.8402,318.7202 386.8802,318.7202 386.8802,318.7202 386.8802,318.7202 385.9202,318.7202 385.9202,319.6802 385.9202,319.6802 384.0002,319.6802 384.0002,319.6802 382.0802,319.6802 382.0802,319.6802 382.0802,319.6802 381.1202,319.6802 381.1202,318.7202 380.1602,318.7202 379.2002,318.7202 379.2002,318.7202 378.2402,318.7202 378.2402,317.7602 378.2402,317.7602 378.2402,316.8002 377.2802,316.8002 377.2802,316.8002 377.2802,315.8402 377.2802,315.8402 377.2802,315.8402 376.3202,315.8402 375.3602,314.8802 375.3602,314.8802 375.3602,313.9202 374.4002,313.9202 373.4402,313.9202 373.4402,313.9202 373.4402,312.9602 372.4802,312.9602 372.4802,312.9602 371.5202,312.9602 371.5202,312.9602 370.5602,312.0002 369.6002,312.0002 369.6002,312.0002 369.6002,312.0002 368.6402,311.0402 368.6402,311.0402 368.6402,311.0402 367.6802,311.0402 366.7202,311.0402 366.7202,311.0402 365.7602,311.0402 365.7602,312.0002 364.8002,312.0002 364.8002,312.0002 364.8002,312.0002 363.8402,312.0002 362.8802,312.0002 362.8802,312.0002 361.9202,312.0002 361.9202,312.0002 360.9602,312.9602 360.9602,312.9602 360.0002,312.9602 360.0002,312.9602 360.0002,312.9602 359.0402,313.9202 359.0402,313.9202 359.0402,313.9202 358.0802,313.9202 358.0802,313.9202 358.0802,314.8802 357.1202,314.8802 356.1602,314.8802 356.1602,314.8802 356.1602,313.9202 355.2002,313.9202 354.2402,313.9202 354.2402,312.9602 354.2402,312.9602 354.2402,312.9602 353.2802,312.9602 353.2802,312.9602 352.3202,312.9602 351.3602,312.9602 351.3602,312.9602 350.4002,312.9602 350.4002,312.9602 350.4002,312.9602 350.4002,312.9602 350.4002,312.9602 349.4402,312.9602 349.4402,312.9602 349.4402,312.9602 347.5202,312.0002 347.5202,312.0002 347.5202,312.0002 346.5602,312.0002 346.5602,311.0402 346.5602,311.0402 345.6002,311.0402 344.6402,310.0802 343.6802,310.0802 342.7202,309.1202 341.7602,309.1202 341.7602,309.1202 341.7602,309.1202 340.8002,309.1202 339.8402,308.1602 339.8402,308.1602 339.8402,308.1602 337.9202,307.2002 337.9202,306.2402 336.9602,306.2402 336.0002,306.2402 336.0002,305.2802 336.0002,305.2802 335.0402,305.2802 334.0802,304.3202 334.0802,304.3202 333.1202,303.3602 332.1602,302.4002 332.1602,302.4002 331.2002,302.4002 330.2402,302.4002 330.2402,303.3602 329.2802,303.3602 329.2802,303.3602 328.3202,303.3602 328.3202,303.3602 327.3602,302.4002 327.3602,302.4002 327.3602,302.4002 326.4002,301.4402 326.4002,301.4402 326.4002,301.4402 326.4002,301.4402 325.4402,301.4402 325.4402,301.4402 324.4802,301.4402 324.4802,301.4402 323.5202,301.4402 323.5202,302.4002 322.5602,302.4002 322.5602,302.4002 321.6002,302.4002 319.6802,302.4002 319.6802,302.4002 319.6802,302.4002 319.6802,302.4002 318.7202,302.4002 318.7202,303.3602 318.7202,303.3602 317.7602,303.3602 316.8002,304.3202 315.8402,305.2802 315.8402,305.2802 315.8402,305.2802 314.8802,306.2402 314.8802,305.2802 314.8802,306.2402 313.9202,306.2402 313.9202,306.2402 312.9602,306.2402 312.0002,306.2402 312.0002,306.2402 311.0402,306.2402 311.0402,306.2402 310.0802,306.2402 310.0802,306.2402 310.0802,306.2402 309.1202,306.2402 308.1602,306.2402 307.2002,305.2802 307.2002,305.2802 306.2402,304.3202 305.2802,303.3602 305.2802,302.4002 304.3202,301.4402 304.3202,301.4402 303.3602,301.4402 303.3602,300.4802 302.4002,300.4802 302.4002,300.4802 302.4002,299.5202 302.4002,299.5202 301.4402,298.5602 301.4402,298.5602 301.4402,297.6002 300.4802,297.6002 300.4802,297.6002 299.5202,297.6002 299.5202,297.6002 298.5602,297.6002 298.5602,297.6002 297.6002,297.6002 297.6002,297.6002 296.6402,298.5602 296.6402,298.5602 296.6402,298.5602 295.6802,298.5602 295.6802,297.6002 294.7202,297.6002 294.7202,296.6402 293.7602,296.6402 293.7602,296.6402 293.7602,295.6802 292.8002,295.6802 291.8402,295.6802 291.8402,295.6802 291.8402,294.7202 291.8402,294.7202 290.8802,294.7202 290.8802,294.7202 290.8802,294.7202 290.8802,294.7202 290.8802,294.7202 289.9202,293.7602 289.9202,293.7602 289.9202,293.7602 289.9202,292.8002 288.9602,292.8002 288.9602,292.8002 288.9602,291.8402 288.0002,291.8402 288.0002,291.8402 288.0002,291.8402 287.0402,290.8802 287.0402,290.8802 286.0802,290.8802 286.0802,289.9202 286.0802,289.9202 285.1202,289.9202 284.1602,288.9602 284.1602,288.9602 283.2002,288.9602 283.2002,288.9602 283.2002,288.9602 283.2002,288.9602 283.2002,288.9602 283.2002,288.9602 282.2402,288.9602 282.2402,288.9602 282.2402,288.9602 282.2402,288.0002 282.2402,288.0002 281.2802,288.0002 281.2802,288.0002 281.2802,288.0002 281.2802,288.0002 280.3202,288.0002 280.3202,288.0002 280.3202,288.0002 280.3202,288.0002 279.3602,288.0002 279.3602,288.0002 279.3602,288.0002 279.3602,288.0002 279.3602,288.0002 278.4002,288.9602 278.4002,288.9602 278.4002,288.9602 278.4002,288.9602 277.4401,288.9602 276.4801,288.9602 275.5201,288.9602 275.5201,288.9602 274.5601,288.9602 274.5601,288.9602 273.6001,288.9602 273.6001,288.9602 273.6001,288.9602 273.6001,288.9602 272.6401,289.9202 272.6401,289.9202 271.6801,290.8802 270.7201,291.8402 270.7201,291.8402 269.7601,292.8002 268.8001,292.8002 268.8001,293.7602 267.8401,293.7602 267.8401,293.7602 267.8401,294.7202 266.8801,295.6802 265.9201,296.6402 265.9201,297.6002 264.0001,299.5202 263.0401,300.4802 262.0801,300.4802 262.0801,301.4402 262.0801,301.4402 261.1201,301.4402 261.1201,302.4002 261.1201,302.4002 260.1601,303.3602 260.1601,303.3602 260.1601,303.3602 260.1601,303.3602 259.2001,303.3602 258.2401,303.3602 257.2801,303.3602 257.2801,304.3202 256.3201,303.3602 256.3201,303.3602 256.3201,303.3602 255.3601,303.3602 255.3601,303.3602 255.3601,303.3602 254.4001,303.3602 254.4001,303.3602 253.4401,303.3602 253.4401,303.3602 252.4801,304.3202 251.5201,304.3202 250.5601,305.2802 249.6001,305.2802 249.6001,305.2802 248.6401,305.2802 247.6801,305.2802 247.6801,305.2802 246.7201,305.2802 246.7201,305.2802 245.7601,304.3202 245.7601,304.3202 245.7601,304.3202 244.8001,303.3602 244.8001,303.3602 243.8401,302.4002 242.8801,302.4002 242.8801,302.4002 242.8801,302.4002 241.9201,302.4002 241.9201,302.4002 240.9601,302.4002 240.9601,301.4402 240.0001,301.4402 239.0401,302.4002 238.0801,302.4002 237.1201,302.4002 237.1201,302.4002 236.1601,302.4002 236.1601,301.4402 235.2001,301.4402 235.2001,301.4402 234.2401,301.4402 234.2401,301.4402 233.2801,300.4802 233.2801,300.4802 232.3201,299.5202 232.3201,299.5202 231.3601,299.5202 231.3601,299.5202 230.4001,298.5602 230.4001,298.5602 229.4401,298.5602 229.4401,298.5602 229.4401,298.5602 228.4801,299.5202 227.5201,299.5202 227.5201,299.5202 226.5601,299.5202 225.6001,299.5202 225.6001,299.5202 224.6401,299.5202 224.6401,300.4802 223.6801,300.4802 223.6801,300.4802 222.7201,300.4802 221.7601,300.4802 221.7601,300.4802 220.8001,300.4802 219.8401,300.4802 218.8801,300.4802 218.8801,300.4802 216.9601,300.4802 216.0001,300.4802 215.0401,300.4802 215.0401,300.4802 212.1601,300.4802 212.1601,300.4802 210.2401,300.4802 210.2401,300.4802 209.2801,300.4802 208.3201,300.4802 207.3601,300.4802 207.3601,300.4802 206.4001,300.4802 205.4401,300.4802 204.4801,300.4802 203.5201,300.4802 202.5601,300.4802 201.6001,300.4802 200.6401,301.4402 199.6801,301.4402 198.7201,302.4002 198.7201,303.3602 197.7601,307.2002 197.7601,307.2002 196.8001,309.1202 196.8001,310.0802 195.8401,310.0802 195.8401,311.0402 194.8801,312.0002 193.9201,312.0002 192.9601,312.0002 191.0401,313.9202 190.0801,313.9202 189.1201,313.9202 189.1201,314.8802 188.1601,314.8802 188.1601,315.8402 187.2001,315.8402 187.2001,316.8002 187.2001,316.8002 187.2001,317.7602 187.2001,319.6802 186.2401,321.6002 186.2401,322.5602 186.2401,323.5202 186.2401,324.4802 186.2401,325.4402 186.2401,325.4402 186.2401,327.3602 187.2001,328.3202 187.2001,329.2802 187.2001,330.2402 187.2001,331.2002 186.2401,332.1602 186.2401,332.1602 186.2401,334.0802 186.2401,334.0802 186.2401,335.0402 186.2401,335.0402 186.2401,336.0002 186.2401,336.0002 187.2001,337.9202 187.2001,339.8402 188.1601,339.8402 188.1601,340.8002 189.1201,340.8002 189.1201,341.7602 190.0801,341.7602 190.0801,342.7202 191.0401,342.7202 191.0401,342.7202 192.0001,343.6802 192.0001,343.6802 192.0001,344.6402 192.9601,345.6002 192.9601,346.5602 193.9201,348.4802 194.8801,348.4802 194.8801,349.4402 195.8401,349.4402 196.8001,350.4002 197.7601,350.4002 198.7201,351.3602 201.6001,352.3202 204.4801,355.2002 206.4001,356.1602 207.3601,357.1202 208.3201,358.0802 209.2801,359.0402 209.2801,359.0402 210.2401,360.0002 211.2001,360.9602 212.1601,361.9202 213.1201,361.9202 214.0801,362.8802 217.9201,364.8002 217.9201,365.7602 218.8801,365.7602 219.8401,366.7202 220.8001,367.6802 221.7601,368.6402 221.7601,369.6002 222.7201,370.5602 222.7201,370.5602 225.6001,376.3202 226.5601,376.3202 226.5601,377.2802 226.5601,378.2402 227.5201,378.2402 227.5201,379.2002 227.5201,380.1602 227.5201,381.1202 226.5601,381.1202 226.5601,383.0402 226.5601,384.0002 225.6001,384.0002 225.6001,384.9602 225.6001,386.8802 224.6401,389.7602 223.6801,391.6802 223.6801,392.6402 223.6801,393.6002 223.6801,395.5202 223.6801,395.5202 222.7201,396.4802 221.7601,397.4402 221.7601,397.4402 220.8001,398.4002 219.8401,398.4002 218.8801,398.4002 218.8801,398.4002 217.9201,399.3602 216.9601,399.3602 216.9601,400.3202 216.0001,401.2802 214.0801,404.1602 213.1201,405.1202 213.1201,406.0802 212.1601,407.0402 213.1201,407.0402 212.1601,408.0002 213.1201,408.0002 214.0801,408.9602 214.0801,408.9602 215.0401,409.9202 215.0401,408.9602 216.0001,409.9202 216.9601,409.9202 217.9201,408.9602 217.9201,408.9602 218.8801,408.9602 219.8401,408.9602 221.7601,408.9602 222.7201,408.9602 223.6801,408.9602 224.6401,408.9602 225.6001,409.9202 225.6001,410.8802 226.5601,411.8402 226.5601,413.7602 226.5601,413.7602 228.4801,415.6802 228.4801,415.6802 229.4401,415.6802 230.4001,416.6402 231.3601,417.6002 233.2801,417.6002 233.2801,418.5602 235.2001,418.5602 236.1601,418.5602 236.1601,418.5602 237.1201,417.6002 239.0401,416.6402 240.9601,415.6802 241.9201,415.6802 241.9201,415.6802 247.6801,416.6402 248.6401,417.6002 249.6001,417.6002 250.5601,417.6002 251.5201,418.5602 251.5201,419.5202 253.4401,420.4802 253.4401,420.4802 254.4001,420.4802 254.4001,421.4402 254.4001,421.4402 255.3601,422.4002 255.3601,422.4002 255.3601,424.3202 255.3601,425.2802 254.4001,426.2402 254.4001,427.2002 253.4401,427.2002 253.4401,428.1602 250.5601,430.0802 249.6001,431.0402 249.6001,432.0002 248.6401,432.9602 248.6401,433.9202 248.6401,434.8802 248.6401,435.8402 248.6401,436.8002 248.6401,436.8002 249.6001,436.8002 249.6001,437.7602 249.6001,438.7202 250.5601,438.7202 250.5601,439.6802 252.4801,441.6002 252.4801,442.5602 253.4401,442.5602 253.4401,443.5202 254.4001,443.5202 254.4001,443.5202 255.3601,444.4802 256.3201,444.4802 257.2801,444.4802 259.2001,444.4802 260.1601,444.4802 261.1201,443.5202 262.0801,443.5202 264.0001,442.5602 264.0001,441.6002 264.9601,441.6002 266.8801,440.6402 267.8401,439.6802 268.8001,439.6802 268.8001,438.7202 269.7601,438.7202 270.7201,438.7202 270.7201,438.7202 271.6801,438.7202 272.6401,439.6802 272.6401,439.6802 273.6001,439.6802 272.6401,439.6802"/>
    <polygon points="0.0,0.0 0.0,576.0 1152.0,576.0 1152.0,0.0"/>
  </g>
</svg>
